<svg xmlns="http://www.w3.org/2000/svg" width="810" viewBox="0 0 810 810" height="810" version="1.0"><defs><clipPath id="a"><path d="M 18.757812 56 L 790 56 L 790 756.835938 L 18.757812 756.835938 Z M 18.757812 56"/></clipPath></defs><g clip-path="url(#a)"><path fill="#A37D4F" d="M 355.878906 752.089844 L 348.503906 747.519531 L 347.976562 704.566406 L 347.445312 661.609375 L 345.964844 701.054688 C 344.636719 736.382812 343.921875 740.921875 339.121094 744.546875 C 336.171875 746.769531 331.347656 748.613281 328.398438 748.640625 C 321.863281 748.699219 284.160156 728.15625 284.160156 724.535156 C 284.160156 719.53125 273.367188 711.21875 266.871094 711.21875 C 257.257812 711.21875 246.117188 695.382812 244.625 679.597656 C 241.304688 644.457031 267.964844 582.648438 304.269531 541.316406 C 310.679688 534.015625 322.382812 515.261719 321.238281 514.121094 C 320.550781 513.429688 315.292969 515.261719 309.550781 518.191406 C 303.808594 521.117188 297.5 523.511719 295.527344 523.511719 C 289.5 523.511719 275.007812 532.027344 270.878906 537.992188 C 256.878906 558.21875 217.328125 584.632812 206.292969 581.128906 C 198.726562 578.726562 199.851562 572.148438 208.421875 568.691406 C 226.070312 561.574219 234.125 556.289062 246.023438 544.03125 C 256.886719 532.835938 257.738281 531.234375 251.988281 532.777344 C 243.742188 534.992188 235.386719 538.449219 220.203125 545.921875 C 199.882812 555.921875 176.921875 586.484375 176.921875 603.527344 C 176.921875 613.011719 171.34375 618.761719 166.671875 614.085938 C 156.324219 603.738281 169.640625 570.375 191.617188 551.59375 C 203.613281 541.34375 243.3125 520.832031 251.15625 520.832031 C 252.464844 520.832031 258.097656 518.507812 263.671875 515.664062 C 270.625 512.121094 278.832031 503.292969 289.820312 487.539062 C 298.628906 474.914062 312.523438 457.355469 320.695312 448.527344 L 335.558594 432.472656 L 330.089844 424.792969 C 321.441406 412.644531 317.269531 409.9375 315.265625 415.171875 C 314.007812 418.445312 311.53125 419.179688 305.6875 418.011719 C 299.503906 416.773438 298.125 417.273438 299.296875 420.328125 C 301.421875 425.867188 288.769531 430.261719 280.140625 426.980469 C 274.125 424.691406 273.4375 425.101562 273.4375 430.972656 C 273.4375 438.597656 266.074219 443.445312 257.785156 441.277344 C 252.941406 440.007812 251.988281 440.90625 251.988281 446.746094 C 251.988281 452.820312 250.59375 453.953125 241.265625 455.445312 C 235.128906 456.425781 230.542969 458.652344 230.542969 460.648438 C 230.542969 466.664062 222.441406 472.566406 214.179688 472.566406 C 209.042969 472.566406 205.660156 474.21875 204.582031 477.257812 C 201.652344 485.519531 195.039062 491.335938 188.570312 491.335938 C 183.738281 491.335938 182.285156 492.8125 182.285156 497.710938 C 182.285156 507.234375 176.5625 510.542969 163.664062 508.480469 C 153.78125 506.898438 151.398438 504.988281 143.074219 491.96875 C 133.652344 477.234375 120.621094 450.066406 120.621094 445.152344 C 120.621094 443.714844 118.875 438.734375 116.738281 434.085938 C 106.039062 410.8125 102.105469 377.746094 107.011719 352.347656 C 111.5 329.136719 104.816406 346.023438 96.582031 378.710938 C 90.527344 402.753906 88.101562 418.695312 88.003906 435.09375 C 87.882812 455.683594 88.707031 459.554688 96.292969 473.976562 C 106.835938 494.027344 134.105469 520.101562 147.074219 522.535156 C 154.707031 523.96875 157.054688 523.1875 161.15625 517.851562 C 167.222656 509.960938 167.851562 514.597656 161.875 523.132812 C 158.652344 527.734375 155.917969 528.898438 151.152344 527.699219 C 146.441406 526.519531 144.75 527.207031 144.75 530.300781 C 144.75 532.613281 142.910156 538.066406 140.660156 542.417969 C 137.113281 549.28125 135.070312 550.332031 125.246094 550.335938 L 113.917969 550.34375 L 124.90625 560.394531 C 139.296875 573.554688 142.503906 578.257812 140.550781 583.34375 C 138.125 589.675781 126.125 591.144531 111.894531 586.863281 C 104.898438 584.757812 99.171875 583.953125 99.171875 585.082031 C 99.171875 586.207031 107.617188 594.972656 117.941406 604.5625 C 128.261719 614.152344 136.707031 623.945312 136.707031 626.324219 C 136.707031 636.585938 118.769531 641.265625 103.863281 634.890625 C 95.382812 631.261719 98.953125 637.210938 116.695312 656.25 C 147.464844 689.277344 154.003906 703.175781 138.761719 703.175781 C 130.707031 703.175781 113.339844 693.914062 103.066406 684.136719 C 79.308594 661.527344 101.824219 695.058594 130.5 724.992188 C 141.285156 736.253906 150.113281 746.730469 150.113281 748.277344 C 150.113281 756.792969 124.25 753.550781 109.4375 743.179688 C 90.042969 729.601562 74.46875 714.621094 66.449219 701.835938 C 61.824219 694.460938 56.691406 687.222656 55.039062 685.746094 C 41.691406 673.8125 18.730469 595.402344 18.757812 561.84375 C 18.773438 541.78125 27.597656 477.269531 33.296875 455.535156 C 44.488281 412.855469 73.457031 320.90625 77.773438 314.34375 C 79.230469 312.132812 83.480469 303.6875 87.21875 295.574219 C 90.953125 287.460938 95.230469 278.636719 96.722656 275.957031 C 98.214844 273.28125 103.035156 261.214844 107.433594 249.140625 C 115.328125 227.488281 127.949219 201.382812 136.847656 188.3125 C 139.355469 184.625 149.097656 168.554688 158.496094 152.601562 C 167.890625 136.652344 177.390625 121.566406 179.601562 119.082031 C 181.8125 116.601562 188.324219 107.328125 194.070312 98.480469 C 203.171875 84.460938 228.425781 56.914062 232.171875 56.914062 C 232.894531 56.914062 236.914062 58.6875 241.105469 60.855469 C 250.539062 65.734375 253.949219 75.148438 257.441406 105.980469 C 258.933594 119.167969 262.734375 136.144531 265.890625 143.710938 C 280.0625 177.710938 324.902344 222.738281 344.957031 223.113281 C 346.695312 223.144531 350.511719 216.835938 353.441406 209.09375 C 356.367188 201.351562 359.457031 193.207031 360.308594 190.992188 C 361.15625 188.777344 360.871094 185.433594 359.671875 183.554688 C 357.976562 180.902344 354.105469 181.640625 342.273438 186.875 C 333.902344 190.578125 327.054688 192.910156 327.054688 192.058594 C 327.054688 189.011719 339.207031 180.441406 343.652344 180.355469 C 350.347656 180.222656 351.984375 175.886719 352.265625 157.527344 C 352.703125 129.304688 370.730469 110.460938 399.261719 108.394531 C 420.414062 106.863281 436.652344 115.90625 446.316406 134.597656 C 452.136719 145.855469 450.960938 172.019531 444.335938 178.644531 C 440.375 182.609375 440.320312 184.164062 443.8125 194.0625 C 445.949219 200.117188 447.695312 209.675781 447.695312 215.304688 C 447.695312 220.929688 448.742188 226.179688 450.019531 226.96875 C 454.328125 229.632812 495.320312 213.398438 506.359375 204.652344 C 523.894531 190.757812 541.132812 168.757812 548.296875 151.128906 C 554.015625 137.054688 554.9375 130.550781 554.9375 104.308594 C 554.9375 69.683594 557.25 64.957031 574.214844 64.957031 C 584.726562 64.957031 594.617188 71.769531 613.617188 92.097656 C 641.792969 122.242188 692.550781 203.832031 711.847656 249.988281 C 720.171875 269.898438 728.5625 289.808594 730.488281 294.234375 C 738.484375 312.578125 740.203125 316.71875 749.15625 339.277344 C 754.304688 352.25 760.269531 370.953125 762.40625 380.839844 C 764.542969 390.726562 768.886719 407.863281 772.054688 418.925781 C 777.574219 438.183594 783.542969 466.664062 788.082031 495.351562 C 791.199219 515.078125 788.46875 607.613281 784.109375 629.871094 C 778.949219 656.242188 765.828125 693.609375 757.527344 705.589844 C 753.742188 711.054688 750.644531 716.699219 750.644531 718.132812 C 750.644531 722.941406 727.976562 745.796875 717.714844 751.332031 C 708.183594 756.476562 707.167969 756.542969 700.851562 752.398438 C 690.160156 745.394531 688.886719 740.546875 694.640625 728.71875 C 697.476562 722.886719 702.65625 715.054688 706.148438 711.3125 C 712.355469 704.660156 721.15625 689.394531 721.15625 685.273438 C 721.15625 684.132812 719.242188 685.933594 716.902344 689.273438 C 714.566406 692.613281 707.71875 698.460938 701.691406 702.265625 C 691.246094 708.863281 690.566406 708.957031 687.175781 704.324219 C 681.871094 697.066406 682.84375 688.972656 690.347656 677.910156 C 698.722656 665.566406 708.367188 646.855469 706.355469 646.855469 C 705.527344 646.855469 701.371094 649.429688 697.113281 652.578125 C 692.855469 655.726562 687.472656 657.574219 685.15625 656.683594 C 679.347656 654.457031 679.75 640.015625 685.867188 631.179688 C 691.441406 623.125 694.925781 614.675781 692.675781 614.675781 C 691.847656 614.675781 688.101562 617.089844 684.355469 620.039062 C 675.402344 627.082031 671.261719 626.804688 666.019531 618.808594 C 660.90625 611 662.523438 600.574219 671.457031 583.769531 C 680.921875 565.964844 681.296875 561.644531 674.015625 554.359375 C 670.453125 550.796875 667.535156 546.015625 667.535156 543.734375 C 667.535156 538.605469 663.183594 538.320312 660.296875 543.261719 C 659.117188 545.28125 655.4375 547.777344 652.121094 548.804688 C 647.167969 550.34375 645.578125 549.328125 643.214844 543.125 C 641.632812 538.96875 640.960938 532.429688 641.726562 528.59375 C 642.96875 522.355469 642.410156 521.753906 636.449219 522.894531 C 630.96875 523.941406 629.246094 522.726562 626.714844 516.027344 C 624.570312 510.34375 621.347656 507.425781 616.042969 506.363281 C 610.363281 505.226562 608.058594 502.910156 606.914062 497.191406 C 605.777344 491.503906 602.980469 488.671875 596.011719 486.152344 C 586.730469 482.792969 586.652344 482.628906 587.695312 468.941406 C 588.699219 455.765625 598.679688 412.84375 603.382812 401.492188 C 606.683594 393.523438 603.648438 413.648438 597.605469 439.804688 C 589.625 474.351562 590.949219 485.960938 602.875 485.960938 C 603.9375 485.960938 604.808594 476.003906 604.8125 463.835938 C 604.820312 451.671875 606.230469 439.300781 607.949219 436.351562 C 612.046875 429.320312 612.160156 434.390625 608.371094 454.890625 C 606.796875 463.417969 606.113281 471.003906 606.855469 471.746094 C 608.851562 473.742188 613.484375 454.835938 616.207031 433.570312 L 618.601562 414.898438 L 618.941406 431.097656 C 619.125 440.003906 617.46875 454.242188 615.257812 462.734375 C 609.503906 484.832031 609.894531 501.261719 616.222656 503.269531 C 618.960938 504.140625 623.101562 504.125 625.421875 503.234375 C 632.230469 500.621094 643.410156 456.34375 643.410156 431.996094 C 643.410156 426.453125 644.726562 421.105469 646.335938 420.109375 C 652.597656 416.238281 645.714844 461.710938 634.632812 497.394531 C 630.152344 511.824219 629.683594 516.207031 632.328125 518.84375 C 634.972656 521.480469 636.730469 520.785156 640.902344 515.457031 C 649.191406 504.871094 656.339844 487.175781 657.949219 473.269531 C 659.296875 461.628906 659.003906 462.070312 654.65625 478.207031 C 650.066406 495.246094 641.675781 511.9375 639.027344 509.289062 C 638.328125 508.589844 640.21875 503.972656 643.226562 499.027344 C 646.230469 494.082031 650.703125 480.988281 653.164062 469.929688 C 656.269531 455.976562 658.1875 451.398438 659.441406 454.976562 C 660.632812 458.371094 662.480469 452.917969 664.871094 438.949219 C 669.546875 411.601562 671.773438 417.839844 667.59375 446.585938 C 663.964844 471.554688 659.242188 491.066406 653.507812 504.777344 C 644.457031 526.429688 645.53125 550.527344 655.191406 542.507812 C 669.222656 530.859375 683.621094 496.753906 687.601562 465.722656 C 688.558594 458.277344 690.515625 450.433594 691.957031 448.289062 C 693.6875 445.714844 694.226562 461.1875 693.542969 494.003906 C 692.441406 546.960938 690.703125 555.363281 674.058594 588.214844 C 666.59375 602.953125 665.679688 615.15625 671.667969 620.128906 C 675.144531 623.015625 677.257812 622.148438 684.984375 614.65625 C 696.683594 603.3125 703.558594 588.417969 707.253906 566.40625 C 708.863281 556.820312 711.59375 540.761719 713.320312 530.71875 C 715.304688 519.183594 715.753906 503.382812 714.542969 487.8125 C 712.199219 457.667969 714.808594 458.132812 718.621094 488.542969 C 723.363281 526.375 711.765625 587.457031 692.121094 628.082031 C 686.339844 640.042969 684.308594 654.898438 688.457031 654.898438 C 695.453125 654.898438 715.855469 625.414062 715.734375 615.476562 C 715.703125 612.824219 713.421875 615.480469 710.664062 621.378906 C 704.992188 633.527344 697.242188 644.21875 697.113281 640.074219 C 697.066406 638.558594 698.789062 634.804688 700.941406 631.730469 C 715.390625 611.09375 723.835938 558.894531 723.835938 490.199219 C 723.835938 462.347656 724.839844 445.738281 726.515625 445.738281 C 727.992188 445.738281 729.199219 441.917969 729.199219 437.246094 C 729.199219 421.355469 731.425781 430.914062 732.933594 453.269531 C 733.761719 465.523438 735.574219 480.003906 736.964844 485.449219 C 742.769531 508.171875 742.898438 522.726562 737.574219 554.960938 C 730.828125 595.828125 713.332031 648.960938 698.394531 673.925781 C 691.566406 685.335938 687.492188 695.082031 688.285156 698.105469 C 689.011719 700.890625 690.230469 703.171875 690.992188 703.171875 C 693.8125 703.171875 710.429688 691.9375 710.429688 690.027344 C 710.429688 688.941406 714.464844 683.304688 719.394531 677.511719 C 731.496094 663.285156 740.921875 645.617188 745.042969 629.429688 C 746.925781 622.054688 749.519531 613.609375 750.808594 610.660156 C 762.394531 584.214844 761.449219 453.582031 749.414062 417.582031 C 748.429688 414.632812 749.660156 415.753906 752.152344 420.070312 C 754.640625 424.390625 758.210938 436.457031 760.082031 446.886719 C 764.03125 468.902344 764.578125 552.800781 760.964844 582.496094 C 758.289062 604.484375 747.578125 642.757812 739.949219 657.582031 C 737.292969 662.742188 731.746094 674.207031 727.625 683.054688 C 723.5 691.90625 715.511719 705.453125 709.871094 713.167969 C 693.78125 735.171875 692.152344 743.277344 702.691406 748.917969 C 709.542969 752.585938 726.097656 743.476562 736.679688 730.214844 C 757.355469 704.304688 778.792969 648.640625 781.28125 614.414062 C 785.445312 557.15625 785.542969 513.191406 781.558594 485.929688 C 777.125 455.566406 754.746094 367.820312 745.320312 343.847656 C 742.128906 335.734375 738.496094 326.082031 737.242188 322.394531 C 735.988281 318.707031 729.375 302.417969 722.546875 286.191406 C 715.71875 269.96875 706.480469 247.796875 702.015625 236.917969 C 692.996094 214.945312 673.574219 181.332031 652.238281 150.773438 C 644.515625 139.710938 632.839844 122.8125 626.285156 113.214844 C 613.496094 94.480469 583.023438 67.644531 574.542969 67.644531 C 571.695312 67.644531 567.125 69.285156 564.382812 71.289062 C 560.085938 74.433594 559.339844 79.121094 558.949219 105.480469 C 558.699219 122.28125 557.800781 137.835938 556.949219 140.046875 C 556.101562 142.257812 554.179688 147.929688 552.679688 152.644531 C 548.972656 164.289062 531.28125 187.761719 516.210938 201.03125 C 505.011719 210.890625 490.152344 219.398438 472.207031 226.222656 C 468.640625 227.578125 466.386719 229.355469 467.203125 230.171875 C 468.019531 230.988281 471.304688 230.253906 474.507812 228.539062 C 477.707031 226.824219 480.941406 226.035156 481.6875 226.785156 C 483.730469 228.828125 467.539062 236.585938 461.234375 236.585938 C 458.210938 236.585938 455.738281 235.308594 455.738281 233.746094 C 455.738281 232.183594 454.605469 231.605469 453.21875 232.460938 C 451.726562 233.386719 452.273438 237.785156 454.558594 243.261719 C 462.457031 262.164062 457.546875 289.8125 444.886719 297.71875 C 439.511719 301.074219 439.492188 301 443.898438 294.273438 L 448.402344 287.398438 L 441.242188 290.121094 C 430.613281 294.164062 414.972656 286.183594 411.6875 275.042969 C 409.421875 267.347656 408.40625 266.703125 400.558594 267.976562 C 393.320312 269.152344 391.148438 268.199219 387.140625 262.074219 L 382.355469 254.773438 L 378.796875 266.972656 C 375.273438 279.066406 366.972656 287.527344 354.984375 291.242188 C 346.300781 293.933594 339.757812 284.558594 338.332031 267.382812 C 337.664062 259.292969 336.359375 252.6875 335.433594 252.703125 C 334.511719 252.71875 329.648438 256.960938 324.625 262.132812 C 319.605469 267.300781 309.132812 275.171875 301.355469 279.621094 C 293.578125 284.074219 283.402344 291.277344 278.742188 295.628906 L 270.269531 303.546875 L 276.40625 313.640625 C 279.78125 319.191406 285.78125 327.960938 289.738281 333.121094 C 298.304688 344.292969 303.273438 360.429688 296.390625 354.714844 C 294.085938 352.800781 292.152344 349.273438 292.09375 346.871094 C 292.03125 344.472656 288.480469 338.410156 284.199219 333.402344 C 277.328125 325.367188 276.609375 325.050781 278.074219 330.71875 C 279.945312 337.976562 313.367188 396.886719 321.410156 407.113281 C 334.398438 423.628906 354.871094 445.441406 356.460938 444.457031 C 357.421875 443.863281 358.40625 432.746094 358.640625 419.757812 C 359.109375 394.324219 362.804688 375.976562 377.167969 327.757812 C 382.222656 310.796875 387.210938 293.902344 388.253906 290.214844 C 389.574219 285.558594 392.34375 283.257812 397.324219 282.679688 C 405.472656 281.730469 408.902344 286.832031 416.820312 311.667969 C 423.542969 332.757812 426.078125 334.78125 437.261719 327.960938 C 442.265625 324.910156 449.675781 322.410156 453.730469 322.40625 C 457.785156 322.398438 461.101562 321.1875 461.101562 319.710938 C 461.101562 318.238281 463.351562 317.03125 466.101562 317.03125 C 473.3125 317.03125 485.273438 306.855469 483.5 302.234375 C 482.417969 299.414062 480.707031 299.058594 477.214844 300.925781 C 473.457031 302.9375 472.117188 302.347656 471.03125 298.199219 C 470.273438 295.285156 470.742188 292.226562 472.078125 291.402344 C 473.414062 290.574219 474.507812 291.289062 474.507812 292.992188 C 474.507812 295.136719 478.816406 295.589844 488.582031 294.480469 C 500.074219 293.171875 501.429688 293.410156 495.953125 295.769531 L 489.253906 298.660156 L 497.207031 302.875 C 507.070312 308.097656 513.21875 314.066406 511.007812 316.277344 C 510.089844 317.195312 506.550781 315.328125 503.144531 312.125 C 495.078125 304.546875 493.078125 304.753906 482.242188 314.308594 C 477.25 318.707031 471.203125 322.328125 468.804688 322.351562 C 459.5 322.441406 457.941406 328.792969 460.84375 354.785156 C 462.359375 368.386719 462.738281 380.839844 461.683594 382.460938 C 460.625 384.082031 458.984375 378.773438 458.035156 370.664062 C 453.699219 333.597656 452.128906 325.074219 449.640625 325.074219 C 447.039062 325.074219 448.324219 340.789062 451.996094 353.902344 C 452.972656 357.390625 452.503906 359.933594 450.882812 359.933594 C 449.339844 359.933594 446.699219 353.296875 445.015625 345.1875 C 443.332031 337.074219 441.496094 330.4375 440.933594 330.4375 C 440.367188 330.4375 436.765625 331.871094 432.929688 333.621094 C 426.59375 336.503906 426.101562 337.8125 427.613281 347.699219 C 428.527344 353.691406 431.703125 367.042969 434.671875 377.367188 C 445.453125 414.859375 450.148438 431.21875 453.339844 442.394531 C 457.179688 455.855469 459.304688 456.566406 463.730469 445.871094 C 465.535156 441.519531 472.027344 429.148438 478.160156 418.386719 C 484.289062 407.625 494.109375 387.957031 499.980469 374.683594 C 505.855469 361.410156 513.558594 345.121094 517.105469 338.484375 L 527.03125 319.929688 C 529.371094 315.566406 529.679688 311.886719 527.980469 308.707031 C 526.585938 306.105469 525.429688 301.785156 525.410156 299.105469 C 525.351562 291.324219 490.792969 260.71875 463.863281 244.601562 C 461.691406 243.300781 460.726562 241.433594 461.710938 240.445312 C 462.695312 239.460938 466.726562 241.191406 470.667969 244.292969 L 477.832031 249.929688 L 485.757812 243.257812 C 490.121094 239.585938 494.847656 236.585938 496.261719 236.585938 C 497.679688 236.585938 504.265625 230.996094 510.902344 224.167969 C 517.535156 217.339844 523.617188 212.40625 524.410156 213.203125 C 526.867188 215.660156 499.800781 241.144531 489.582031 245.996094 C 484.265625 248.519531 480.621094 251.722656 481.484375 253.113281 C 482.386719 254.578125 485.730469 253.890625 489.410156 251.480469 C 492.90625 249.1875 497.628906 247.3125 499.902344 247.3125 C 507.558594 247.3125 534.515625 216.667969 544.921875 196.128906 C 554.363281 177.5 565.664062 146.203125 565.664062 138.6875 C 565.664062 136.847656 567.617188 126.679688 570.007812 116.09375 C 573.261719 101.683594 575.953125 95.792969 580.714844 92.675781 C 587.363281 88.316406 600.515625 89.597656 600.515625 94.605469 C 600.515625 96.351562 598.828125 96.445312 595.824219 94.875 C 593.238281 93.519531 588.523438 93.402344 585.320312 94.609375 C 580.664062 96.371094 578.628906 100.976562 575.09375 117.757812 C 572.667969 129.28125 568.949219 144.367188 566.832031 151.277344 C 564.714844 158.191406 562.976562 165.433594 562.96875 167.367188 C 562.949219 172.824219 544.820312 206.855469 535.472656 218.992188 C 523.242188 234.863281 509.25 247.539062 499.308594 251.742188 C 494.515625 253.769531 490.59375 255.902344 490.59375 256.480469 C 490.59375 257.796875 516.929688 276.808594 518.75 276.808594 C 521.726562 276.808594 519.820312 269.199219 516.0625 266.082031 C 513.851562 264.246094 512.042969 261.722656 512.042969 260.472656 C 512.042969 257.628906 520.058594 260.367188 525.625 265.117188 C 531.972656 270.535156 545.851562 272.625 548.375 268.539062 C 549.789062 266.25 546.53125 261.660156 538.644531 254.835938 L 526.789062 244.578125 L 541.449219 248.902344 C 552.539062 252.175781 557.277344 252.503906 560.886719 250.25 C 563.511719 248.609375 565.664062 248.351562 565.664062 249.683594 C 565.664062 252.859375 558.933594 255.335938 550.027344 255.4375 C 543.875 255.507812 543.53125 255.902344 547.566406 258.253906 C 550.144531 259.753906 552.257812 263.722656 552.257812 267.070312 C 552.257812 270.414062 554.148438 279.523438 556.460938 287.3125 C 558.773438 295.097656 560.007812 302.128906 559.203125 302.929688 C 557.671875 304.464844 557.425781 303.820312 552.457031 285.523438 C 550.542969 278.476562 547.808594 274.128906 545.289062 274.128906 C 542.886719 274.128906 542.003906 275.398438 543.136719 277.234375 C 546.503906 282.679688 552.078125 312.621094 551.796875 323.734375 C 551.628906 330.488281 551.078125 332.085938 550.316406 328.054688 L 549.105469 321.644531 L 545.921875 328.027344 C 541.714844 336.46875 533.5625 337.996094 531.65625 330.703125 C 529.5 322.464844 526.378906 326.125 525.953125 337.386719 C 525.75 342.804688 524.867188 349.492188 523.996094 352.246094 C 523.121094 355 523.199219 359.757812 524.167969 362.8125 C 525.808594 367.976562 526.273438 368.0625 530.738281 364.023438 C 533.378906 361.632812 537.59375 354.304688 540.101562 347.738281 C 545.152344 334.503906 550.960938 331.03125 546.464844 343.933594 C 544.90625 348.402344 544.15625 355.644531 544.796875 360.023438 C 545.441406 364.398438 544.96875 367.980469 543.75 367.980469 C 542.53125 367.980469 541.53125 366.171875 541.53125 363.960938 C 541.53125 361.746094 540.628906 359.976562 539.523438 360.019531 C 534.339844 360.238281 528.152344 374.703125 521.441406 402.28125 C 517.414062 418.84375 513.046875 433.058594 511.738281 433.867188 C 508.457031 435.898438 508.75 432.5625 513.078125 418.738281 C 524.328125 382.789062 526.332031 373.15625 523.214844 370.039062 C 521.496094 368.316406 520.023438 361.417969 519.945312 354.707031 L 519.804688 342.507812 L 513.074219 355.914062 C 501.636719 378.699219 493.738281 399.613281 493.105469 408.800781 C 492.121094 423.019531 493.03125 426.976562 497.296875 426.976562 C 502.039062 426.976562 502.5 423.867188 498.371094 419.734375 C 496.222656 417.589844 496.6875 412.507812 500.066406 401.097656 C 505.378906 383.160156 508.816406 386.160156 504.15625 404.671875 C 502.460938 411.398438 501.6875 417.511719 502.4375 418.261719 C 504.429688 420.253906 508.515625 409.253906 513.144531 389.433594 L 517.210938 372.003906 L 515.824219 386.457031 C 515.0625 394.402344 512.710938 405.867188 510.597656 411.929688 C 505.515625 426.523438 505.535156 437.703125 510.648438 437.703125 C 516.253906 437.703125 523.753906 421.183594 529.496094 396.179688 C 532.199219 384.40625 534.910156 376.257812 535.515625 378.078125 C 536.121094 379.898438 534.105469 392.097656 531.03125 405.183594 C 517.507812 462.800781 533.347656 462.40625 550.066406 404.710938 C 554.410156 389.730469 558.488281 376.945312 559.132812 376.300781 C 561.617188 373.8125 560.074219 382.226562 554.625 400.863281 C 543.214844 439.882812 542.433594 445.855469 548.175781 450.054688 C 551 452.121094 554.277344 452.84375 555.457031 451.664062 C 556.636719 450.484375 560.039062 439.316406 563.019531 426.847656 C 570.707031 394.675781 576.585938 375.328125 578.183594 376.929688 C 578.941406 377.6875 578.320312 382.316406 576.808594 387.222656 C 570.441406 407.855469 565.273438 431.683594 563.84375 446.96875 C 562.171875 464.902344 564.0625 468.265625 578.226562 472.519531 L 585.769531 474.78125 L 578.277344 475.011719 C 570.863281 475.242188 557.621094 465.152344 557.621094 459.277344 C 557.621094 457.734375 555.277344 456.472656 552.410156 456.472656 C 549.542969 456.472656 545.355469 453.839844 543.105469 450.625 C 539.128906 444.949219 538.847656 444.917969 533.621094 449.652344 C 529.207031 453.648438 527.492188 453.917969 524.15625 451.152344 C 521.917969 449.292969 520.085938 445.464844 520.085938 442.640625 C 520.085938 438.292969 519.246094 437.960938 514.554688 440.476562 C 508.5625 443.683594 501.320312 440.03125 501.320312 433.808594 C 501.320312 432.027344 498.609375 430.667969 495.292969 430.785156 C 490.425781 430.957031 489.007812 429.234375 487.921875 421.847656 C 486.351562 411.1875 484.15625 412.988281 474.933594 432.515625 C 467.601562 448.03125 467.605469 448.066406 477.238281 474.980469 C 488.097656 505.304688 496.855469 519.738281 524.675781 553.140625 C 567.914062 605.050781 583.285156 639.152344 572.683594 659.652344 C 567.75 669.199219 552.59375 681.722656 545.972656 681.722656 C 543.53125 681.722656 541.535156 683.34375 541.535156 685.328125 C 541.535156 691.714844 519.464844 711.019531 506.855469 715.65625 C 500.125 718.132812 492.1875 722.3125 489.222656 724.941406 C 479.890625 733.21875 460.265625 740.378906 441.691406 742.28125 C 427.230469 743.761719 422.867188 745.339844 419.019531 750.460938 C 414.585938 756.363281 412.484375 756.800781 388.753906 756.734375 C 369.484375 756.679688 361.449219 755.546875 355.878906 752.089844 Z M 417.125 745.777344 C 421.445312 740.988281 422.191406 736.128906 421.988281 714.269531 C 421.75 689.164062 418.601562 673.898438 409.058594 651.605469 C 399.242188 628.675781 393.660156 523.578125 401.617188 511.4375 C 404.84375 506.511719 405.011719 506.726562 403.65625 514.121094 C 402.84375 518.542969 401.621094 532.421875 400.933594 544.957031 L 399.683594 567.75 L 403.652344 538.410156 C 405.835938 522.269531 408.195312 508.496094 408.894531 507.792969 C 411.890625 504.796875 412.378906 509.644531 410.082031 519.558594 C 404.210938 544.886719 408.625 601.242188 420.007812 646.273438 C 423.839844 661.4375 426.324219 674.496094 425.527344 675.292969 C 424.734375 676.089844 423.222656 672.734375 422.175781 667.832031 C 421.128906 662.933594 419.375 657.71875 418.277344 656.246094 C 416.394531 653.710938 408.691406 621.183594 406.53125 606.636719 C 405.980469 602.949219 405.371094 605.1875 405.167969 611.613281 C 404.785156 623.84375 411.542969 654.085938 415.8125 659.253906 C 420.460938 664.882812 429.398438 712.355469 428.222656 725.164062 C 426.878906 739.769531 428.25 740.824219 445.050781 738.125 C 465.226562 734.886719 479.375 729.523438 485.808594 722.675781 C 494.65625 713.253906 494.683594 680.246094 485.855469 663.445312 C 482.511719 657.078125 480.402344 650.855469 481.167969 649.613281 C 482.800781 646.972656 470.730469 620.957031 460.316406 604.679688 C 456.328125 598.441406 453.0625 591.90625 453.0625 590.15625 C 453.0625 588.40625 452.300781 587.734375 451.371094 588.664062 C 450.441406 589.59375 451.566406 594.339844 453.878906 599.207031 C 456.1875 604.078125 459.367188 611.449219 460.941406 615.597656 C 462.519531 619.742188 467.539062 628.558594 472.097656 635.1875 C 476.65625 641.816406 479.851562 647.777344 479.195312 648.433594 C 476.582031 651.046875 458.621094 619.863281 449.257812 596.460938 C 441.144531 576.167969 439.46875 568.839844 440.082031 556.292969 C 440.492188 547.847656 439.945312 539.515625 438.859375 537.773438 C 437.777344 536.03125 438.078125 533.871094 439.535156 532.972656 C 440.988281 532.070312 442.722656 534.101562 443.386719 537.480469 C 451.054688 576.589844 453.109375 581.976562 478.949219 630.773438 C 492.851562 657.023438 496.710938 671.609375 496.871094 698.484375 C 496.921875 706.964844 498.164062 713.902344 499.632812 713.902344 C 506.25 713.902344 524.984375 702.4375 530.449219 695.042969 C 549.996094 668.601562 540.683594 610.796875 512.421875 583.089844 C 468.800781 540.324219 443.84375 499.074219 440.621094 464.425781 C 439.328125 450.507812 439.65625 445.433594 441.757812 446.734375 C 443.382812 447.734375 445.539062 454.261719 446.550781 461.230469 C 447.566406 468.203125 450.230469 477.527344 452.46875 481.949219 C 463.054688 502.851562 491.914062 543.21875 511.441406 564.4375 C 538.699219 594.054688 544.164062 608.957031 543.378906 651.527344 C 542.894531 677.835938 543.097656 678.910156 548.234375 677.375 C 551.183594 676.492188 557.621094 671.984375 562.539062 667.351562 C 571.167969 659.226562 571.445312 658.328125 570.488281 641.503906 C 569.625 626.273438 567.855469 621.363281 556.484375 602.621094 C 549.324219 590.820312 539.714844 576.789062 535.128906 571.4375 C 516.074219 549.199219 491.101562 516.101562 485.828125 506.085938 C 482.71875 500.1875 476.878906 486.640625 472.847656 475.984375 C 466.328125 458.75 464.867188 456.777344 459.609375 458.097656 C 454.363281 459.414062 453.054688 457.679688 448.019531 442.757812 C 444.894531 433.507812 442.339844 423.757812 442.339844 421.09375 C 442.339844 418.433594 440.769531 416.253906 438.851562 416.253906 C 433.339844 416.253906 428.941406 422.089844 428.851562 429.527344 C 428.78125 435.464844 428.410156 435.746094 426.039062 431.671875 C 424.535156 429.089844 421.554688 426.980469 419.417969 426.980469 C 416.511719 426.980469 415.4375 430.878906 415.171875 442.398438 L 414.8125 457.816406 L 413.089844 445.75 C 410.113281 424.886719 404.570312 421.171875 399.078125 436.367188 C 394.9375 447.816406 390.867188 448.910156 394.078125 437.710938 C 396.183594 430.378906 395.753906 429.535156 389.199219 428.140625 C 385.25 427.296875 379.246094 425.484375 375.859375 424.113281 C 366.148438 420.175781 364.589844 421.035156 364.574219 430.332031 C 364.566406 435.125 362.648438 442.667969 360.3125 447.09375 C 357.980469 451.515625 353.828125 462.273438 351.089844 470.992188 C 348.355469 479.710938 341.628906 493.589844 336.148438 501.828125 C 313.132812 536.429688 304.160156 549.289062 299.488281 554.351562 C 267.371094 589.1875 240.328125 667.320312 252.324219 690.621094 C 256.699219 699.117188 265.804688 708.546875 269.632812 708.546875 C 272.121094 708.546875 272.585938 702.300781 271.511719 683.324219 C 270.3125 662.203125 271.046875 654.902344 276.027344 638.410156 C 281.484375 620.335938 312.925781 562.171875 324.359375 548.992188 C 337.71875 533.597656 359.226562 481.179688 359.226562 464.023438 C 359.226562 459.875 360.433594 456.480469 361.910156 456.480469 C 372.6875 456.480469 347.300781 529.253906 329.632812 548.992188 C 326.992188 551.945312 321.882812 561.597656 318.285156 570.445312 C 314.683594 579.296875 310.660156 586.339844 309.34375 586.101562 C 308.027344 585.863281 306.75 589.550781 306.503906 594.296875 C 306.261719 599.046875 303.566406 607.71875 300.519531 613.566406 C 285.828125 641.757812 278.363281 699.867188 287.113281 717.898438 C 290.945312 725.796875 320.421875 743.40625 329.8125 743.40625 C 338.304688 743.40625 340.011719 736.941406 341.160156 700.492188 C 342.949219 643.730469 349.476562 603.894531 365.976562 548.992188 C 376.355469 514.472656 377.683594 506.246094 377.140625 479.945312 C 376.613281 454.582031 379.210938 448.914062 382.207031 468.878906 C 385.039062 487.773438 381.589844 514.460938 372.515625 543.863281 C 358.203125 590.234375 357.097656 594.328125 355.566406 606.648438 C 354.328125 616.597656 354.492188 617.304688 356.511719 610.671875 C 357.855469 606.246094 359.679688 599.164062 360.5625 594.933594 C 361.445312 590.707031 362.828125 587.90625 363.636719 588.714844 C 364.445312 589.519531 363.246094 598.410156 360.96875 608.472656 C 355.265625 633.714844 351.269531 685.792969 352.574219 717.933594 C 353.894531 750.511719 354.8125 751.355469 388.972656 751.414062 C 409.054688 751.449219 412.671875 750.726562 417.125 745.789062 Z M 142.367188 744.070312 C 140.953125 741.488281 133.5625 733.34375 125.949219 725.96875 C 118.339844 718.59375 108.375 707.128906 103.808594 700.492188 C 99.242188 693.855469 94.726562 687.820312 93.769531 687.085938 C 91.640625 685.445312 69.585938 648.992188 63.078125 636.347656 C 53.023438 616.835938 45.335938 581.890625 43.695312 548.265625 C 41.792969 509.265625 46.660156 456.332031 54.109375 435.023438 C 56.941406 426.910156 61.050781 413.632812 63.234375 405.523438 C 65.414062 397.410156 68.339844 388.359375 69.730469 385.410156 C 71.117188 382.460938 73.519531 376.5625 75.066406 372.300781 C 76.613281 368.039062 78.375 365.050781 78.976562 365.652344 C 79.582031 366.257812 76.433594 378.191406 71.984375 392.171875 C 55.917969 442.628906 54.015625 450.246094 49.667969 481.398438 C 40.523438 546.90625 53.914062 622.886719 79.898438 652.917969 C 101.859375 678.308594 107.09375 683.371094 119.824219 691.542969 C 144.984375 707.683594 149.175781 701.574219 129.714844 677.128906 C 122.917969 668.59375 115.375 659.796875 112.957031 657.585938 C 102.722656 648.230469 74.023438 608.03125 71.179688 599.070312 C 70.128906 595.761719 68.019531 593.941406 66.398438 594.945312 C 64.683594 596.003906 64.265625 595.488281 65.378906 593.691406 C 66.414062 592.015625 64.523438 581.875 61.175781 571.15625 C 55.882812 554.210938 55.121094 546.238281 55.332031 510.101562 C 55.46875 487.238281 56.804688 465.519531 58.304688 461.832031 C 60.257812 457.027344 60.667969 466.152344 59.742188 494.011719 C 58.589844 528.652344 59.710938 543.371094 65.542969 570.054688 C 71.230469 596.105469 92.597656 626.257812 110.691406 633.773438 C 119.597656 637.472656 131.347656 633.414062 131.347656 626.640625 C 131.347656 624.304688 123.152344 614.324219 113.132812 604.460938 C 86.199219 577.949219 76.710938 557.941406 70.804688 515.222656 C 66.4375 483.617188 66.421875 479.785156 70.546875 455.160156 C 72.96875 440.691406 75.578125 428.230469 76.339844 427.46875 C 79.828125 423.980469 79.714844 429.796875 75.960938 447.113281 C 71.09375 469.566406 72.46875 509.777344 79.101562 538.933594 C 82.601562 554.328125 85.574219 560.546875 93.363281 568.757812 C 105.871094 581.949219 112.265625 585.183594 125.8125 585.183594 C 133.363281 585.183594 136.710938 584.03125 136.710938 581.433594 C 136.710938 579.367188 129.546875 569.769531 120.785156 560.101562 C 101.292969 538.585938 101.269531 538.546875 92.25 507.28125 C 82.847656 474.699219 80.105469 422.03125 86.648438 399.679688 C 88.945312 391.832031 93.378906 376.359375 96.496094 365.296875 C 99.617188 354.234375 103.910156 341.382812 106.035156 336.734375 C 108.160156 332.085938 109.902344 327.019531 109.902344 325.472656 C 109.902344 323.921875 111.613281 321.691406 113.703125 320.511719 C 115.792969 319.332031 118.289062 312.9375 119.246094 306.300781 C 120.207031 299.664062 122.027344 289.546875 123.289062 283.816406 C 124.808594 276.90625 124.5625 271.761719 122.550781 268.542969 C 118.867188 262.648438 127.207031 240.65625 141.164062 219.464844 C 146.085938 211.984375 150.15625 204.027344 150.203125 201.78125 C 150.320312 196.054688 156.90625 187.992188 159.523438 190.367188 C 160.722656 191.449219 160.785156 190.75 159.664062 188.8125 C 156.089844 182.617188 190.910156 136.183594 204.644531 128.832031 C 207.792969 127.148438 203.023438 133.789062 194.042969 143.589844 C 175.882812 163.414062 162.003906 182.324219 164.089844 184.410156 C 164.835938 185.160156 170.554688 179.011719 176.792969 170.75 C 183.027344 162.484375 188.820312 156.410156 189.65625 157.246094 C 192.191406 159.78125 198.152344 153.3125 196.71875 149.582031 C 195.984375 147.667969 197.433594 145.3125 199.9375 144.351562 C 203.554688 142.964844 203.867188 143.359375 201.457031 146.265625 C 199.785156 148.277344 199.15625 150.660156 200.058594 151.5625 C 200.960938 152.464844 194.519531 160.195312 185.75 168.746094 C 170.074219 184.023438 152.796875 204.773438 152.796875 208.320312 C 152.796875 209.3125 149.886719 213.964844 146.332031 218.660156 C 138.726562 228.699219 125.988281 255.824219 125.988281 261.976562 C 125.988281 264.839844 128.621094 263.265625 133.902344 257.25 C 139.089844 251.335938 141.332031 246.386719 140.410156 242.867188 C 139.425781 239.097656 143.566406 231.78125 154.355469 218.234375 C 162.796875 207.636719 170.203125 199.464844 170.8125 200.074219 C 171.421875 200.683594 165.203125 209.875 156.996094 220.496094 C 143.097656 238.488281 138.417969 247.203125 144.753906 243.285156 C 149.042969 240.632812 147.960938 243.421875 139.277344 257.394531 C 130.734375 271.140625 120.726562 311.15625 120.660156 331.847656 C 120.621094 343.316406 126.554688 354.570312 132.632812 354.570312 C 136.9375 354.570312 139.625 346.582031 147.507812 310.324219 C 154.285156 279.164062 160.574219 257.816406 164.097656 254.011719 C 166.804688 251.085938 164.222656 264.546875 160.753906 271.441406 C 155.933594 281.023438 147.21875 333.066406 149.65625 337.707031 C 151.042969 340.34375 152.976562 347.328125 153.960938 353.226562 C 154.941406 359.128906 158.074219 366.972656 160.914062 370.65625 L 166.082031 377.363281 L 166.140625 368.648438 C 166.175781 363.851562 165.113281 359.933594 163.785156 359.933594 C 162.460938 359.933594 160.148438 353.597656 158.652344 345.851562 C 157.160156 338.109375 155.050781 328.757812 153.96875 325.070312 C 152.820312 321.148438 153.003906 319.289062 154.410156 320.589844 C 155.734375 321.808594 158.832031 329.652344 161.292969 338.019531 C 164.40625 348.609375 165.832031 351.039062 165.984375 346.011719 C 166.398438 332.289062 170.890625 335.960938 172.640625 351.453125 C 173.609375 360.007812 176.242188 369.636719 178.496094 372.855469 C 182.894531 379.136719 190.925781 380.875 190.011719 375.351562 C 189.707031 373.507812 190.4375 368.480469 191.636719 364.175781 C 193.105469 358.910156 192.382812 351.902344 189.421875 342.722656 C 187.003906 335.226562 184.710938 325.472656 184.328125 321.050781 L 183.628906 313.003906 L 177.6875 323.058594 C 174.417969 328.589844 170.789062 333.117188 169.625 333.117188 C 166.90625 333.117188 160.839844 313.777344 160.839844 305.105469 C 160.839844 293.3125 171.476562 252.414062 178.199219 238.367188 C 186.761719 220.472656 185.179688 219.421875 175.753906 236.746094 C 171.679688 244.230469 167.75 249.75 167.015625 249.015625 C 164.476562 246.476562 180.929688 220.558594 184.679688 221.195312 C 186.742188 221.546875 189.015625 220.15625 189.730469 218.105469 C 190.597656 215.617188 189.882812 215.085938 187.582031 216.511719 C 185.238281 217.957031 184.796875 217.574219 186.195312 215.308594 C 187.398438 213.363281 189.246094 212.972656 190.640625 214.367188 C 192.035156 215.761719 189.238281 224.492188 183.898438 235.382812 C 171.550781 260.578125 162.5 304.03125 166.734375 317.816406 C 168.410156 323.28125 170.609375 327.753906 171.617188 327.753906 C 172.625 327.753906 176.871094 317.195312 181.046875 304.289062 C 185.222656 291.386719 189.757812 279.621094 191.128906 278.144531 C 192.664062 276.488281 192.773438 278.023438 191.414062 282.167969 C 187.867188 292.972656 188.566406 328.304688 192.519531 338.289062 C 198.101562 352.375 204.464844 359.753906 211.109375 359.847656 C 215.8125 359.914062 217.140625 358.421875 217.140625 353.070312 C 217.140625 349.296875 216.03125 346.894531 214.675781 347.730469 C 213.320312 348.570312 210.921875 345.320312 209.34375 340.515625 C 203.234375 321.878906 195.816406 291.214844 195.753906 284.335938 C 195.722656 280.367188 194.636719 276.464844 193.34375 275.667969 C 191.125 274.296875 197.4375 246.441406 203.699219 229.964844 C 208.566406 217.167969 209.65625 224.449219 205.179688 239.84375 C 199.710938 258.667969 197.839844 278.71875 200.613281 288.871094 C 202.507812 295.804688 203.0625 294.320312 204.632812 278.144531 C 205.632812 267.820312 208.273438 253.941406 210.5 247.308594 C 213.019531 239.792969 214.0625 238.277344 213.261719 243.285156 C 212.554688 247.710938 210.511719 261.886719 208.714844 274.792969 C 206.917969 287.699219 204.523438 298.257812 203.390625 298.257812 C 202.257812 298.257812 202.636719 301.992188 204.226562 306.558594 C 208.109375 317.699219 211.683594 311.9375 211.738281 294.453125 C 211.785156 278.984375 217.082031 246.355469 219.203125 248.476562 C 220.007812 249.28125 220.859375 256.285156 221.101562 264.042969 C 221.542969 278.429688 227.1875 294.234375 231.886719 294.234375 C 233.320312 294.234375 235.441406 287.597656 236.605469 279.484375 C 237.765625 271.375 240.996094 260.113281 243.785156 254.460938 C 248.316406 245.277344 248.457031 243.285156 245.097656 235.691406 C 243.03125 231.019531 238.417969 223.691406 234.84375 219.410156 C 231.269531 215.125 228.925781 210.121094 229.628906 208.285156 C 230.335938 206.445312 229.621094 204.148438 228.046875 203.171875 C 226.472656 202.199219 225.261719 198.757812 225.351562 195.527344 L 225.523438 189.652344 L 227.964844 195.738281 C 229.308594 199.082031 234.714844 204.359375 239.976562 207.464844 C 250.082031 213.429688 251.210938 217.765625 241.269531 212.445312 C 238.066406 210.730469 234.851562 209.929688 234.121094 210.660156 C 231.027344 213.75 239.308594 223.0625 249.210938 227.628906 C 260.21875 232.707031 264.210938 238.265625 254.675781 235.238281 C 251.675781 234.289062 249.3125 234.757812 249.3125 236.304688 C 249.3125 240.621094 258.679688 244.585938 269.914062 245.027344 C 277.992188 245.34375 278.59375 245.664062 272.769531 246.546875 C 268.714844 247.160156 265.398438 248.746094 265.398438 250.070312 C 265.398438 254.902344 276.21875 258.085938 287.425781 256.554688 C 297.664062 255.15625 298.402344 255.402344 294.21875 258.816406 C 283.101562 267.890625 291.148438 271.382812 308.914062 265.195312 C 322.425781 260.484375 323.679688 258.652344 315.507812 255.546875 C 307.222656 252.394531 286.847656 234.488281 286.847656 230.359375 C 286.847656 228.757812 291.371094 231.855469 296.898438 237.238281 C 302.429688 242.625 311.046875 248.75 316.054688 250.84375 C 324.085938 254.207031 326.035156 254.148438 332.664062 250.347656 C 336.792969 247.976562 340.703125 244.210938 341.355469 241.976562 C 342.003906 239.746094 343.339844 235.984375 344.320312 233.617188 C 345.679688 230.335938 342.921875 227.945312 332.699219 223.546875 C 319.195312 217.738281 291.671875 193.039062 278.488281 174.902344 C 265.179688 156.597656 256.808594 134.425781 253.234375 108.007812 C 246.660156 59.453125 239.824219 53.40625 216.28125 75.34375 C 210.066406 81.136719 187.039062 112.914062 175.53125 131.582031 C 174.027344 134.023438 169.503906 141.125 165.476562 147.363281 C 161.453125 153.601562 158.160156 159.117188 158.160156 159.617188 C 158.160156 160.117188 150.429688 173.40625 140.976562 189.144531 C 131.527344 204.882812 120.503906 226.519531 116.476562 237.226562 C 105.050781 267.625 96.710938 287.1875 85.882812 308.980469 C 80.390625 320.042969 70.222656 347.195312 63.296875 369.316406 C 56.367188 391.441406 48.414062 416.78125 45.621094 425.628906 C 32.433594 467.425781 23.035156 533.269531 24.878906 570.953125 C 27.847656 631.585938 55.242188 692.863281 93.816406 725.144531 C 113.429688 741.554688 126.5 748.605469 137.476562 748.695312 C 143.789062 748.746094 144.546875 748.03125 142.371094 744.0625 Z M 95.753906 710.550781 C 77.417969 687.691406 62.328125 662.953125 66.730469 662.953125 C 68.15625 662.953125 70.152344 665.5625 71.164062 668.753906 C 73.609375 676.460938 89.726562 699.363281 101.519531 711.890625 C 106.726562 717.421875 109.617188 721.945312 107.941406 721.945312 C 106.265625 721.945312 100.78125 716.816406 95.753906 710.550781 Z M 111.71875 674.765625 C 101.859375 664.90625 79.164062 631.121094 81.097656 629.1875 C 81.988281 628.300781 85.117188 632.214844 88.054688 637.886719 C 90.992188 643.5625 99.515625 655.746094 106.996094 664.964844 C 121.464844 682.789062 123.070312 686.121094 111.714844 674.765625 Z M 58.066406 647.753906 C 57.082031 646.773438 56.28125 644.722656 56.28125 643.195312 C 56.28125 641.515625 57.527344 641.675781 59.453125 643.597656 C 61.195312 645.34375 62 647.394531 61.238281 648.15625 C 60.476562 648.921875 59.050781 648.738281 58.066406 647.753906 Z M 53.808594 637.027344 C 53.695312 635.300781 52.902344 631.683594 52.054688 628.980469 C 50.589844 624.3125 50.664062 624.304688 53.585938 628.863281 C 55.277344 631.5 56.066406 635.121094 55.339844 636.90625 C 54.390625 639.253906 53.964844 639.285156 53.808594 637.027344 Z M 74.324219 620.261719 C 73.160156 615.800781 73.507812 614.753906 75.496094 616.742188 C 77.054688 618.300781 77.800781 621.160156 77.15625 623.09375 C 76.488281 625.101562 75.273438 623.886719 74.324219 620.261719 Z M 97.445312 604.625 C 79.398438 582.96875 71.136719 565.429688 65.539062 536.917969 C 62.425781 521.066406 67.109375 529.960938 71.269531 547.808594 C 76.292969 569.347656 85.914062 586.886719 102.007812 603.855469 C 109.054688 611.285156 113.300781 617.363281 111.441406 617.363281 C 109.578125 617.363281 103.28125 611.632812 97.445312 604.625 Z M 42.875 595.910156 C 42.875 592.960938 43.335938 590.546875 43.902344 590.546875 C 44.46875 590.546875 45.5625 592.960938 46.332031 595.910156 C 47.105469 598.863281 46.640625 601.273438 45.304688 601.273438 C 43.96875 601.273438 42.875 598.863281 42.875 595.910156 Z M 40.714844 578.480469 C 40.660156 574.058594 41.21875 571.921875 41.953125 573.738281 C 42.6875 575.554688 42.730469 579.171875 42.050781 581.78125 C 41.371094 584.390625 40.769531 582.90625 40.714844 578.480469 Z M 111.628906 563.8125 C 95.921875 546.421875 85.613281 522.933594 81.957031 496.195312 C 80.179688 483.195312 79.460938 472.558594 80.363281 472.558594 C 81.261719 472.558594 83.433594 482.515625 85.1875 494.683594 C 88.707031 519.09375 101.230469 547.769531 115.203125 563.425781 C 119.65625 568.417969 123.304688 572.945312 123.304688 573.480469 C 123.304688 575.964844 120.539062 573.675781 111.628906 563.8125 Z M 61.855469 508.984375 C 61.738281 506.15625 62.371094 504.574219 63.261719 505.464844 C 64.152344 506.355469 64.246094 508.667969 63.472656 510.605469 C 62.617188 512.742188 61.980469 512.109375 61.855469 508.984375 Z M 78.152344 461.832031 C 78.152344 458.144531 78.757812 456.636719 79.503906 458.480469 C 80.246094 460.324219 80.246094 463.34375 79.503906 465.183594 C 78.757812 467.027344 78.152344 465.519531 78.152344 461.832031 Z M 181.175781 358.046875 C 180.210938 352.449219 178.730469 344.398438 177.886719 340.15625 C 176.894531 335.183594 177.335938 333.058594 179.128906 334.167969 C 182.070312 335.984375 186.566406 364.59375 184.273438 366.886719 C 183.535156 367.625 182.140625 363.648438 181.175781 358.046875 Z M 171.773438 305.1875 C 171.65625 302.359375 172.289062 300.773438 173.179688 301.667969 C 174.074219 302.558594 174.167969 304.871094 173.394531 306.804688 C 172.539062 308.945312 171.902344 308.308594 171.773438 305.1875 Z M 134.125 296.917969 C 134.042969 286.996094 138.3125 271.027344 145.015625 256.203125 C 147.804688 250.035156 149.449219 243.328125 148.667969 241.300781 C 147.890625 239.269531 149.40625 234.9375 152.035156 231.667969 C 154.664062 228.402344 162.820312 218.125 170.15625 208.835938 C 183.695312 191.699219 200.746094 176.390625 203.375 179.015625 C 204.167969 179.808594 201.859375 183.253906 198.242188 186.667969 C 169.425781 213.894531 143.824219 257.082031 140.28125 284.4375 C 138.234375 300.226562 134.21875 308.371094 134.125 296.917969 Z M 172.289062 294.867188 C 173.191406 292.515625 174.738281 286.273438 175.730469 280.988281 C 176.722656 275.707031 178.808594 270.59375 180.363281 269.632812 C 182.210938 268.492188 182.492188 269.667969 181.171875 273.015625 C 180.058594 275.835938 178.484375 282.097656 177.675781 286.925781 C 176.863281 291.753906 174.953125 296.480469 173.425781 297.421875 C 171.75 298.457031 171.300781 297.445312 172.289062 294.867188 Z M 228.179688 255.890625 C 227.882812 245.148438 234.613281 226.351562 237.660156 229.398438 C 238.410156 230.148438 237.597656 233.421875 235.855469 236.679688 C 234.113281 239.933594 231.742188 248.183594 230.589844 255.007812 L 228.492188 267.417969 Z M 312.125 241.972656 C 307.804688 239.191406 301.699219 234.730469 298.5625 232.058594 C 290.421875 225.128906 272.941406 199.195312 274.089844 195.753906 C 274.621094 194.160156 279.539062 199.617188 285.023438 207.878906 C 294.503906 222.167969 313.183594 239.832031 321.5625 242.4375 C 323.902344 243.164062 324.359375 244.320312 322.714844 245.339844 C 321.207031 246.269531 316.441406 244.757812 312.125 241.976562 Z M 327.058594 232.355469 L 320.355469 228.3125 L 327.058594 230.089844 C 330.746094 231.070312 335.570312 232.890625 337.78125 234.144531 C 341.355469 236.167969 341.355469 236.417969 337.78125 236.40625 C 335.570312 236.398438 330.742188 234.574219 327.058594 232.351562 Z M 274.230469 214.386719 C 259.367188 189.289062 245.664062 151.59375 242.371094 126.757812 C 240.476562 112.496094 230.890625 97.140625 223.878906 97.140625 C 221.953125 97.140625 216.628906 101.40625 212.054688 106.621094 C 202.042969 118.023438 200.785156 114.464844 210.671875 102.710938 C 219.625 92.070312 228.054688 92.070312 237.007812 102.710938 C 240.824219 107.246094 244.035156 112.375 244.144531 114.105469 C 245.285156 132.074219 258.152344 172.648438 270.941406 198.597656 C 285.785156 228.71875 287.453125 236.710938 274.230469 214.382812 Z M 234.847656 193.566406 C 229.738281 189.078125 224.777344 181.851562 223.820312 177.507812 C 222.867188 173.160156 220.972656 168.917969 219.613281 168.074219 C 216.398438 166.089844 216.382812 153.457031 219.59375 153.457031 C 220.945312 153.457031 222.558594 154.359375 223.175781 155.464844 C 223.796875 156.574219 223.757812 155.667969 223.097656 153.457031 C 222.433594 151.242188 221.328125 147.488281 220.640625 145.109375 C 219.925781 142.640625 221.367188 140.027344 224.003906 139.015625 C 227.8125 137.550781 228.050781 137.929688 225.359375 141.171875 C 222.726562 144.347656 223.414062 147.042969 228.929688 155.160156 C 236.5625 166.394531 236.351562 168.726562 228.089844 164.304688 C 223.949219 162.089844 222.5 162.101562 222.5 164.351562 C 222.5 171.011719 231.632812 186.035156 240.316406 193.664062 C 245.363281 198.097656 248.289062 201.722656 246.816406 201.722656 C 245.339844 201.722656 239.953125 198.054688 234.84375 193.566406 Z M 282.867188 652.917969 C 284.984375 642.238281 290.363281 625.699219 294.820312 616.15625 C 304.835938 594.730469 305.277344 588.523438 295.792969 602.484375 C 284.335938 619.347656 276.066406 647.371094 276.484375 667.894531 C 276.6875 677.710938 277.339844 682.722656 277.9375 679.035156 C 278.535156 675.347656 280.753906 663.597656 282.867188 652.917969 Z M 350.125 650.265625 C 349.234375 649.375 348.601562 650.957031 348.71875 653.785156 C 348.847656 656.910156 349.480469 657.542969 350.335938 655.40625 C 351.113281 653.46875 351.015625 651.15625 350.125 650.265625 Z M 171.5625 603.539062 C 171.5625 588.214844 200.753906 549.863281 218.621094 541.722656 C 222.230469 540.078125 225.179688 537.78125 225.179688 536.617188 C 225.179688 532.222656 202.445312 546.832031 189.253906 559.707031 C 178.945312 569.765625 174.351562 576.855469 170.855469 588.097656 C 165.507812 605.316406 165.132812 609.316406 168.882812 609.316406 C 170.355469 609.316406 171.5625 606.71875 171.5625 603.539062 Z M 722.542969 600.246094 C 724.628906 595.257812 728.902344 576.277344 732.046875 558.066406 C 737.59375 525.914062 737.792969 508.164062 732.921875 479.929688 C 729.507812 460.152344 727.46875 470.496094 727.191406 509.011719 C 726.917969 547.542969 722.75 591.378906 718.238281 603.253906 C 714.566406 612.914062 718.359375 610.261719 722.542969 600.246094 Z M 527.335938 589.996094 C 523.589844 583.660156 512.699219 570.253906 503.132812 560.207031 C 493.566406 550.160156 479.371094 532.382812 471.589844 520.703125 C 463.808594 509.027344 456.980469 499.929688 456.414062 500.496094 C 455.230469 501.679688 468.074219 527.65625 472.730469 533.5 C 478.472656 540.707031 499.824219 564.527344 514.085938 579.632812 C 521.839844 587.847656 528.886719 596.769531 529.746094 599.460938 C 530.605469 602.152344 531.945312 603.71875 532.730469 602.933594 C 533.511719 602.152344 531.085938 596.332031 527.339844 589.996094 Z M 403.972656 577.777344 C 403.300781 575.210938 402.777344 577.941406 402.804688 583.839844 C 402.835938 589.742188 403.382812 591.839844 404.027344 588.503906 C 404.667969 585.167969 404.644531 580.339844 403.972656 577.777344 Z M 227.304688 570.71875 C 250.113281 559.160156 272.871094 532.449219 309.792969 473.898438 L 321.628906 455.125 L 311.34375 466.417969 C 305.683594 472.628906 293.9375 488.316406 285.238281 501.277344 C 265.625 530.507812 229 567.828125 217.4375 570.371094 C 212.886719 571.371094 208.476562 573.300781 207.632812 574.664062 C 204.855469 579.160156 214.445312 577.238281 227.304688 570.722656 Z M 686.382812 544.929688 C 689.574219 532.992188 691.859375 481.5625 689.003906 485.964844 C 687.566406 488.175781 686.335938 492.398438 686.265625 495.351562 C 686.199219 498.300781 682.5625 507.921875 678.183594 516.734375 C 669.355469 534.503906 669.058594 536.179688 672.914062 546.320312 C 676.257812 555.113281 683.871094 554.328125 686.382812 544.933594 Z M 678.472656 535.4375 C 678.582031 532.5625 680.382812 525.988281 682.46875 520.824219 L 686.257812 511.4375 L 684.667969 523.507812 C 683.054688 535.75 678.085938 545.316406 678.472656 535.4375 Z M 136.613281 542.453125 C 142.117188 532.171875 139.644531 526.746094 123.789062 514.285156 C 114.140625 506.703125 104.316406 495.632812 98.042969 485.277344 L 87.902344 468.535156 L 89.519531 481.671875 C 90.410156 488.898438 92.140625 496.136719 93.367188 497.761719 C 94.59375 499.382812 97.195312 507.652344 99.152344 516.132812 C 101.113281 524.613281 103.726562 531.550781 104.964844 531.550781 C 106.203125 531.550781 107.21875 533.214844 107.21875 535.246094 C 107.21875 545.710938 131.664062 551.703125 136.613281 542.453125 Z M 114.390625 521.503906 C 109.207031 514.503906 105.636719 508.167969 106.457031 507.425781 C 107.28125 506.683594 108.546875 507.753906 109.273438 509.808594 C 110.003906 511.859375 114.804688 518.195312 119.945312 523.886719 C 125.085938 529.578125 128.058594 534.234375 126.554688 534.234375 C 125.046875 534.234375 119.574219 528.503906 114.390625 521.503906 Z M 252.664062 527.976562 C 261.140625 524.941406 268.078125 521.59375 268.078125 520.539062 C 268.078125 517.984375 232.753906 530.878906 229.257812 534.707031 C 227.28125 536.875 228.011719 537.121094 231.886719 535.601562 C 234.835938 534.445312 244.1875 531.011719 252.664062 527.976562 Z M 307.066406 515.125 C 313.734375 511.992188 320.390625 507.175781 321.863281 504.425781 C 324.082031 500.28125 322.859375 500.566406 314.703125 506.101562 C 309.292969 509.773438 303.371094 512.78125 301.546875 512.78125 C 299.722656 512.78125 296.726562 514.589844 294.890625 516.800781 C 290.414062 522.195312 292.703125 521.878906 307.070312 515.125 Z M 304.117188 507.289062 C 321.699219 498.605469 333.671875 481.300781 339.054688 456.796875 C 340.816406 448.757812 340.542969 448.195312 336.039062 450.636719 C 327.789062 455.109375 317.816406 467.445312 304.683594 489.410156 C 292.121094 510.429688 290.527344 513.894531 294.21875 512.140625 C 295.324219 511.617188 299.777344 509.433594 304.117188 507.289062 Z M 176.429688 496.105469 C 176.980469 491.304688 173.589844 482.601562 166.507812 470.628906 C 160.589844 460.628906 152.546875 442.261719 148.632812 429.8125 C 143.085938 412.15625 140.960938 408.175781 138.984375 411.710938 C 137.589844 414.203125 134.90625 416.242188 133.027344 416.242188 C 128.839844 416.242188 120.128906 406.949219 114.167969 396.132812 L 109.734375 388.085938 L 111.460938 399.871094 C 115.121094 424.875 138.113281 482.160156 149.640625 494.996094 C 160.152344 506.699219 175.136719 507.320312 176.429688 496.105469 Z M 155.433594 485.875 C 147.203125 469.738281 134.222656 435.015625 136.417969 435.015625 C 137.472656 435.015625 140.542969 441.351562 143.242188 449.09375 C 145.9375 456.835938 152.070312 470.714844 156.867188 479.929688 C 161.660156 489.148438 164.542969 496.691406 163.269531 496.691406 C 161.996094 496.691406 158.46875 491.824219 155.433594 485.875 Z M 339.257812 479.820312 C 347.121094 463.515625 351.621094 448.421875 348.617188 448.421875 C 347.433594 448.421875 345.171875 453.574219 343.585938 459.867188 C 342.003906 466.164062 337.632812 477.097656 333.875 484.167969 C 330.113281 491.238281 328.296875 496.246094 329.832031 495.296875 C 331.371094 494.347656 335.613281 487.382812 339.257812 479.816406 Z M 196.152344 481.527344 C 198.847656 479.085938 201.054688 476.03125 201.054688 474.734375 C 201.054688 473.441406 195.421875 463.832031 188.539062 453.378906 C 181.65625 442.929688 172.761719 424.65625 168.777344 412.777344 C 162.203125 393.179688 161.242188 391.71875 158.410156 397.007812 C 154.140625 404.992188 149.164062 404.320312 141.042969 394.671875 C 134.34375 386.707031 127.824219 368.84375 129.28125 362.449219 C 129.683594 360.699219 128.503906 358.710938 126.660156 358.035156 C 122.542969 356.523438 122.191406 367.183594 126.003906 377.859375 C 128.554688 384.996094 128.476562 385.117188 124.566406 380.070312 C 122.117188 376.910156 120.542969 369.808594 120.699219 362.640625 C 120.84375 355.988281 119.929688 345.722656 118.671875 339.820312 C 116.761719 330.878906 116.109375 330.085938 114.753906 335.050781 C 112.464844 343.421875 114.851562 383.644531 118.261719 394.21875 C 121.820312 405.25 133.285156 413.746094 136.84375 407.988281 C 140.621094 401.878906 145.945312 409.550781 152.804688 430.996094 C 158.914062 450.082031 171.398438 474.691406 178.664062 481.957031 C 183.894531 487.1875 190.066406 487.039062 196.152344 481.527344 Z M 179.609375 472.292969 C 179.609375 470.671875 177.902344 465.542969 175.816406 460.894531 C 170.007812 447.9375 165.5 432.144531 167.144531 430.496094 C 167.957031 429.683594 169.464844 432.480469 170.492188 436.710938 C 171.519531 440.9375 175.199219 450.886719 178.664062 458.8125 C 185.886719 475.320312 185.871094 475.238281 182.289062 475.238281 C 180.816406 475.238281 179.609375 473.910156 179.609375 472.289062 Z M 158.371094 407.082031 C 158.253906 404.253906 158.890625 402.671875 159.78125 403.5625 C 160.671875 404.453125 160.765625 406.765625 159.992188 408.703125 C 159.136719 410.839844 158.5 410.207031 158.371094 407.082031 Z M 226.035156 463.480469 C 227.542969 459.554688 223.480469 452.644531 213.046875 441.386719 C 204.113281 431.742188 197.277344 417.394531 193.085938 399.484375 C 191.101562 391.003906 188.160156 384.078125 186.554688 384.089844 C 184.945312 384.101562 180.269531 380.179688 176.164062 375.375 C 172.058594 370.566406 168.886719 368.445312 169.109375 370.65625 C 169.917969 378.605469 168.820312 381.382812 164.863281 381.382812 C 160.164062 381.382812 159.941406 382.488281 163.378906 388.792969 C 164.777344 391.355469 167.941406 400.085938 170.414062 408.199219 C 180.707031 441.964844 200.257812 467.15625 216.183594 467.179688 C 220.902344 467.1875 225.238281 465.558594 226.035156 463.476562 Z M 204.390625 454.609375 C 194.226562 440.160156 184.25 416.503906 189.746094 419.90625 C 191.21875 420.8125 193.242188 424.839844 194.25 428.855469 C 195.257812 432.867188 199.671875 441.46875 204.058594 447.972656 C 212.730469 460.828125 213.035156 466.90625 204.390625 454.609375 Z M 179.609375 394.792969 C 179.609375 391.84375 180.070312 389.429688 180.636719 389.429688 C 181.199219 389.429688 182.292969 391.84375 183.066406 394.792969 C 183.835938 397.742188 183.375 400.15625 182.039062 400.15625 C 180.703125 400.15625 179.609375 397.742188 179.609375 394.792969 Z M 244.042969 451.054688 C 250.515625 447.589844 247.707031 439 235.832031 425.945312 C 231.289062 420.953125 225.867188 414.617188 223.785156 411.863281 C 218.058594 404.304688 218.964844 412.09375 225.238281 424.394531 C 228.21875 430.234375 231.835938 435.015625 233.28125 435.015625 C 234.726562 435.015625 235.90625 436.183594 235.90625 437.613281 C 235.90625 444.511719 226.742188 435.402344 220.960938 422.753906 C 213.628906 406.726562 213.121094 404.375 217.597656 407.140625 C 219.734375 408.460938 220.160156 407.589844 218.9375 404.398438 C 217.949219 401.824219 217.121094 398.910156 217.101562 397.925781 C 217.078125 396.9375 215.792969 397.941406 214.242188 400.15625 C 212.070312 403.257812 211.839844 402.71875 213.230469 397.808594 C 214.359375 393.824219 214.027344 392.0625 212.347656 393.101562 C 210.867188 394.011719 208.96875 392.957031 208.121094 390.753906 C 207.277344 388.550781 207.894531 386.746094 209.496094 386.746094 C 211.09375 386.746094 211.773438 384.332031 211 381.378906 C 210.230469 378.429688 210.691406 376.691406 212.027344 377.515625 C 213.367188 378.34375 214.460938 380.804688 214.460938 382.988281 C 214.460938 389.308594 225.140625 408.589844 235.097656 420.25 C 248.496094 435.9375 259.023438 440.804688 267.683594 435.316406 C 272.242188 432.425781 268.894531 425.53125 254.53125 408.199219 C 240.703125 391.515625 233.179688 375.453125 231.523438 359.078125 C 230.050781 344.492188 225.867188 333.117188 221.972656 333.117188 C 220.707031 333.117188 220.402344 341.261719 221.296875 351.21875 C 222.375 363.199219 222.050781 368.070312 220.332031 365.621094 C 218.90625 363.589844 216.34375 362.789062 214.640625 363.84375 C 212.9375 364.894531 208.621094 363.84375 205.050781 361.503906 C 201.480469 359.164062 198.082031 357.25 197.5 357.25 C 196.914062 357.25 195.753906 364.789062 194.917969 374 C 192.445312 401.257812 205.988281 434.429688 224.8125 447.222656 C 235.707031 454.628906 236.917969 454.871094 244.039062 451.058594 Z M 240.167969 416.585938 C 232.21875 405.117188 222.414062 381.253906 222.660156 373.980469 C 222.746094 371.414062 225.695312 377.628906 229.210938 387.789062 C 232.730469 397.949219 239.351562 410.921875 243.925781 416.617188 C 248.503906 422.308594 251.148438 426.96875 249.804688 426.96875 C 248.460938 426.96875 244.125 422.296875 240.167969 416.585938 Z M 207.757812 370.65625 C 206.847656 369.183594 207.378906 367.976562 208.941406 367.976562 C 210.5 367.976562 211.777344 369.183594 211.777344 370.65625 C 211.777344 372.132812 211.246094 373.339844 210.597656 373.339844 C 209.945312 373.339844 208.667969 372.132812 207.757812 370.65625 Z M 340.238281 441.046875 C 340.851562 440.679688 340.546875 439.570312 339.558594 438.578125 C 337.460938 436.480469 324.375 448.082031 324.375 452.039062 C 324.375 453.515625 327.691406 451.796875 331.75 448.21875 C 335.804688 444.644531 339.625 441.417969 340.238281 441.046875 Z M 294.882812 420.628906 C 294.882812 416.980469 287.460938 406.316406 277.835938 396.132812 C 272.308594 390.285156 258.808594 362.945312 260.574219 361.175781 C 261.175781 360.574219 265.007812 367.359375 269.089844 376.257812 C 273.171875 385.152344 278.128906 393.050781 280.105469 393.808594 C 282.082031 394.566406 288.828125 399.925781 295.097656 405.714844 C 301.371094 411.507812 307.65625 416.242188 309.070312 416.242188 C 315.367188 416.242188 304.730469 389.28125 284.210938 353.226562 C 278.03125 342.375 272.792969 329.054688 271.789062 321.660156 C 269.636719 305.804688 266.542969 303.371094 264.226562 315.707031 C 262.933594 322.613281 261.09375 325.070312 257.230469 325.070312 C 253.273438 325.070312 251.988281 326.917969 251.988281 332.601562 C 251.988281 343.4375 246.128906 350.402344 238.65625 348.445312 C 232.902344 346.941406 232.632812 347.480469 233.832031 358.101562 C 235.996094 377.320312 248.660156 399.199219 265.261719 412.410156 C 280.207031 424.300781 294.886719 428.371094 294.886719 420.628906 Z M 268.601562 412.855469 C 264.828125 408.304688 254.195312 380.96875 255.636719 379.523438 C 256.277344 378.882812 259.996094 385.335938 263.898438 393.867188 C 267.804688 402.394531 272.277344 410.164062 273.84375 411.132812 C 275.691406 412.273438 275.753906 413.46875 274.027344 414.539062 C 272.5625 415.445312 270.121094 414.6875 268.601562 412.855469 Z M 287.640625 388.757812 C 281.707031 377.757812 276.109375 365.195312 276.152344 362.972656 C 276.167969 362.039062 280.238281 368.511719 285.191406 377.359375 C 291.230469 388.144531 295.640625 393.191406 298.566406 392.660156 C 300.964844 392.226562 302.929688 393.132812 302.929688 394.671875 C 302.929688 401.203125 292.09375 397.011719 287.640625 388.757812 Z M 271.988281 354.390625 C 271.015625 352.816406 270.792969 350.953125 271.496094 350.25 C 272.199219 349.546875 273.488281 350.835938 274.363281 353.109375 C 276.175781 357.835938 274.628906 358.667969 271.988281 354.390625 Z M 256.335938 346.992188 C 255.152344 343.5625 254.894531 340.042969 255.765625 339.171875 C 258.542969 336.390625 260.5 340.488281 259.480469 346.964844 L 258.496094 353.226562 Z M 391.394531 423.199219 C 391.394531 422.601562 385.964844 420.261719 379.332031 418 C 365.363281 413.238281 363.1875 414.730469 375.980469 420.289062 C 384.585938 424.03125 391.394531 425.316406 391.394531 423.199219 Z M 403.433594 416.199219 C 402.503906 414.699219 400.625 414.167969 399.253906 415.015625 C 395.535156 417.316406 396.226562 418.925781 400.9375 418.925781 C 403.234375 418.925781 404.359375 417.699219 403.433594 416.199219 Z M 429.527344 410.195312 L 436.828125 404.175781 L 431.617188 385.40625 C 428.75 375.082031 426.367188 365.890625 426.324219 364.980469 C 426.28125 364.070312 421.273438 363.746094 415.199219 364.261719 C 409.121094 364.777344 402.335938 364.183594 400.117188 362.941406 C 397.273438 361.347656 393.8125 363.0625 388.378906 368.75 C 381.722656 375.714844 380.671875 378.917969 380.671875 392.179688 C 380.671875 410.515625 385.003906 416.113281 395.496094 411.332031 C 401.097656 408.78125 402.117188 406.472656 402.117188 396.347656 C 402.117188 389.765625 403.429688 383.574219 405.03125 382.582031 C 407.074219 381.320312 407.378906 385.265625 406.0625 395.832031 C 404.976562 404.515625 405.21875 410.882812 406.636719 410.882812 C 412.210938 410.882812 415.523438 403.691406 415.523438 391.574219 C 415.523438 376.511719 420.734375 373.925781 421.203125 388.757812 C 421.683594 404.003906 420.972656 406.46875 414.652344 411.492188 L 408.820312 416.125 L 415.523438 416.171875 C 419.207031 416.195312 425.511719 413.507812 429.527344 410.199219 Z M 375.855469 374.96875 C 377.375 365.246094 370.816406 367.902344 367.710938 378.269531 C 363.667969 391.765625 363.746094 400.917969 367.9375 405.132812 C 370.621094 407.835938 371.664062 405.671875 373.175781 394.273438 C 374.214844 386.445312 375.421875 377.757812 375.855469 374.96875 Z M 156.703125 386.375 C 157.117188 381.417969 154.785156 369.519531 151.519531 359.929688 C 146.433594 344.992188 145.296875 343.390625 143.582031 348.726562 C 141.746094 354.453125 142.417969 360.355469 146.550781 374.679688 C 149.203125 383.878906 144.441406 376.957031 140.691406 366.164062 C 137.894531 358.109375 136.734375 356.921875 135.28125 360.621094 C 132.292969 368.25 136.390625 383.277344 143.890625 392.191406 C 151.863281 401.675781 155.566406 399.992188 156.703125 386.375 Z M 391.125 351.039062 C 394.300781 340.816406 394.390625 337.363281 391.628906 332.199219 C 389.0625 327.398438 388.945312 323.359375 391.152344 315.417969 C 396.800781 295.0625 393.640625 291.84375 387.457031 311.664062 C 384.007812 322.726562 379.261719 336.261719 376.910156 341.746094 C 371.355469 354.699219 371.496094 361.925781 377.328125 363.429688 C 385.371094 365.503906 387.125 363.929688 391.125 351.039062 Z M 415.460938 357.351562 C 418.066406 355.703125 420.105469 355.945312 421.453125 358.0625 C 425.660156 364.683594 423.472656 351.847656 416.882812 331.242188 C 408.054688 303.652344 404.25 298.222656 405.332031 314.757812 C 405.78125 321.625 405.242188 326.679688 404.136719 325.996094 C 403.03125 325.3125 402.125 332.667969 402.125 342.34375 C 402.125 357.320312 402.824219 359.925781 406.816406 359.890625 C 409.398438 359.867188 413.289062 358.722656 415.460938 357.347656 Z M 244.828125 322.550781 C 244.574219 310.402344 243.671875 299.765625 242.816406 298.910156 C 241.964844 298.058594 238.550781 297.058594 235.234375 296.691406 C 231.917969 296.324219 228.378906 295.921875 227.367188 295.796875 C 226.355469 295.675781 224.003906 291.351562 222.136719 286.191406 C 216.960938 271.875 214.457031 274.886719 214.457031 295.441406 C 214.457031 310.167969 213.503906 314.613281 209.917969 316.621094 C 205.835938 318.90625 205.746094 320.28125 209.050781 330.296875 C 214.609375 347.140625 217.140625 346.023438 217.140625 326.730469 C 217.140625 317.144531 218.347656 308.554688 219.820312 307.640625 C 221.335938 306.707031 222.5 308.898438 222.5 312.671875 C 222.5 326.433594 235.582031 348.042969 242.453125 345.632812 C 244.191406 345.023438 245.113281 336.070312 244.828125 322.550781 Z M 234.769531 332.445312 C 231.296875 315.507812 230.53125 306.300781 232.59375 306.300781 C 233.855469 306.300781 236.082031 313.542969 237.546875 322.390625 C 239.007812 331.238281 239.261719 338.480469 238.109375 338.480469 C 236.953125 338.480469 235.453125 335.765625 234.773438 332.445312 Z M 544.21875 310.214844 C 544.21875 300.929688 543.488281 291.421875 542.589844 289.089844 C 539.945312 282.1875 536.839844 284.25 537.878906 292.222656 L 538.835938 299.597656 L 536.261719 291.710938 C 534.570312 286.535156 534.617188 282.703125 536.398438 280.554688 C 538.335938 278.222656 537.371094 276.066406 533.027344 273.023438 C 526.082031 268.15625 521.628906 267.417969 524.183594 271.558594 C 525.136719 273.097656 524.558594 275.992188 522.898438 277.988281 C 520.589844 280.773438 521.476562 283.972656 526.6875 291.652344 C 530.433594 297.171875 533.496094 304.984375 533.496094 309.019531 C 533.496094 313.054688 534.253906 320.144531 535.179688 324.777344 C 536.53125 331.535156 537.589844 332.597656 540.539062 330.148438 C 542.945312 328.152344 544.21875 321.246094 544.21875 310.214844 Z M 262.476562 307.671875 C 264.582031 298.261719 269.039062 289.042969 274.84375 282.09375 C 279.988281 275.933594 283.261719 269.527344 282.40625 267.289062 C 280.5625 262.480469 268.609375 259.113281 265.261719 262.457031 C 257.183594 270.542969 248.367188 315.183594 253.78125 320.601562 C 257.589844 324.414062 259.300781 321.871094 262.476562 307.671875 Z M 262.1875 253.234375 C 260.835938 246.210938 252.789062 246.28125 248.152344 253.359375 C 245.851562 256.871094 243.226562 267.503906 242.316406 276.988281 L 240.664062 294.234375 L 251.863281 275.996094 C 258.019531 265.96875 262.667969 255.722656 262.1875 253.234375 Z M 290.675781 282.089844 L 301.207031 274.121094 L 292.757812 274.121094 C 286.078125 274.121094 283.433594 275.808594 280.144531 282.167969 C 274.941406 292.226562 277.304688 292.210938 290.675781 282.089844 Z M 453.023438 275.972656 C 453.046875 274.78125 451.859375 274.550781 450.382812 275.460938 C 448.910156 276.375 447.722656 279.160156 447.742188 281.652344 C 447.78125 285.5625 448.144531 285.632812 450.382812 282.167969 C 451.8125 279.953125 453 277.167969 453.023438 275.972656 Z M 361.910156 277.984375 C 361.910156 275.6875 360.703125 274.550781 359.230469 275.460938 C 357.757812 276.375 356.550781 278.253906 356.550781 279.644531 C 356.550781 281.03125 357.753906 282.167969 359.230469 282.167969 C 360.707031 282.167969 361.910156 280.285156 361.910156 277.984375 Z M 422.511719 269.484375 C 421.621094 268.59375 420.988281 270.175781 421.105469 273.003906 C 421.234375 276.128906 421.867188 276.761719 422.722656 274.625 C 423.5 272.6875 423.402344 270.375 422.511719 269.484375 Z M 430.785156 261.382812 C 430.109375 258.804688 429.558594 260.914062 429.558594 266.078125 C 429.558594 271.238281 430.109375 273.351562 430.785156 270.769531 C 431.457031 268.1875 431.457031 263.964844 430.785156 261.382812 Z M 414.625 262.726562 C 413.882812 260.882812 413.273438 262.390625 413.273438 266.078125 C 413.273438 269.765625 413.882812 271.273438 414.625 269.429688 C 415.371094 267.585938 415.371094 264.570312 414.625 262.726562 Z M 407.488281 256.53125 C 407.488281 254.234375 406.28125 253.097656 404.808594 254.011719 C 403.332031 254.921875 402.125 256.800781 402.125 258.191406 C 402.125 259.578125 403.332031 260.714844 404.808594 260.714844 C 406.28125 260.714844 407.488281 258.832031 407.488281 256.53125 Z M 453.8125 255.246094 C 453.027344 252.234375 451.785156 250.375 451.050781 251.105469 C 449.601562 252.558594 452.164062 260.714844 454.070312 260.714844 C 454.714844 260.714844 454.601562 258.253906 453.8125 255.246094 Z M 352.125 254.097656 C 352.957031 251.929688 352.480469 249.445312 351.070312 248.574219 C 349.660156 247.703125 348.507812 249.472656 348.507812 252.511719 C 348.507812 258.984375 350 259.640625 352.125 254.097656 Z M 396.765625 255.351562 C 396.765625 253.875 395.558594 252.667969 394.082031 252.667969 C 389.316406 252.667969 391.246094 247.3125 396.09375 247.09375 C 398.898438 246.96875 399.4375 246.339844 397.433594 245.53125 C 391.492188 243.132812 393.871094 237.25 400.785156 237.25 C 407.808594 237.25 409.613281 240.3125 404.464844 243.496094 C 402.417969 244.761719 402.933594 246.203125 406.0625 247.953125 C 408.609375 249.378906 411.65625 249.515625 412.847656 248.253906 C 416.851562 244.011719 423.742188 219.882812 422.273438 215.253906 C 420.792969 210.585938 414.085938 209.707031 408.113281 213.402344 C 406.136719 214.625 404.808594 214.03125 404.808594 211.929688 C 404.808594 209.824219 401.5625 208.367188 396.785156 208.304688 C 391.480469 208.234375 389.664062 209.097656 391.425781 210.859375 C 396.671875 216.109375 393.953125 218.339844 387.476562 214.09375 C 378.8125 208.417969 378.710938 208.449219 376.671875 217.742188 C 375.503906 223.070312 376.324219 227.722656 379.140625 231.746094 C 381.460938 235.0625 383.359375 239.359375 383.359375 241.292969 C 383.359375 243.230469 385.308594 247.789062 387.691406 251.421875 C 392.105469 258.164062 396.765625 260.183594 396.765625 255.351562 Z M 383.574219 225.457031 C 379.542969 223.933594 378.039062 222.058594 379.601562 220.496094 C 382.4375 217.65625 394.082031 219.933594 394.082031 223.328125 C 394.082031 227.199219 390.253906 227.976562 383.574219 225.457031 Z M 404.808594 223.113281 C 404.808594 218.988281 414.957031 214.710938 416.976562 217.980469 C 419.207031 221.589844 417.75 223.050781 410.53125 224.441406 C 407.382812 225.050781 404.808594 224.449219 404.808594 223.113281 Z M 438.871094 238.589844 C 438.230469 235.273438 437.707031 237.988281 437.707031 244.625 C 437.707031 251.261719 438.230469 253.976562 438.871094 250.65625 C 439.507812 247.339844 439.507812 241.910156 438.871094 238.589844 Z M 436.964844 205.171875 C 434.042969 200.617188 433.96875 200.621094 435.4375 205.292969 C 436.285156 207.992188 437.074219 211.613281 437.191406 213.335938 C 437.34375 215.597656 437.769531 215.5625 438.71875 213.21875 C 439.445312 211.429688 438.65625 207.808594 436.964844 205.171875 Z M 400.671875 201.90625 C 403.269531 197.699219 398.324219 196.679688 394.648438 200.660156 C 391.808594 203.734375 391.898438 204.402344 395.160156 204.402344 C 397.34375 204.402344 399.824219 203.277344 400.671875 201.90625 Z M 411.789062 194.402344 C 410.898438 193.511719 410.261719 195.09375 410.378906 197.921875 C 410.507812 201.046875 411.144531 201.679688 412 199.542969 C 412.773438 197.605469 412.679688 195.292969 411.789062 194.402344 Z M 374.472656 167.339844 C 376.410156 165.390625 377.996094 162.902344 377.996094 161.8125 C 377.996094 160.71875 380.394531 157.25 383.328125 154.101562 C 387.722656 149.382812 391.226562 148.507812 403.273438 149.113281 C 419.433594 149.921875 423.449219 152.304688 432.003906 166.152344 L 437.820312 175.566406 L 441.621094 168.3125 C 446.070312 159.816406 444.113281 142.808594 437.34375 131.144531 C 422.210938 105.074219 374.679688 108.246094 363.046875 136.097656 C 358.402344 147.210938 358.109375 164.15625 362.398438 173.570312 C 365.296875 179.925781 365.804688 180.109375 368.257812 175.707031 C 369.738281 173.054688 372.53125 169.289062 374.46875 167.339844 Z M 720.226562 721.273438 C 724.171875 715.007812 729.632812 706.847656 732.359375 703.140625 C 739.886719 692.914062 752.820312 657.402344 762.625 620.046875 C 771.410156 586.574219 774.355469 566.621094 775.214844 534.789062 C 775.839844 511.8125 780.183594 510.554688 780.003906 533.40625 C 779.539062 591.898438 756.183594 676.632812 730.066406 714.566406 C 716.460938 734.339844 708.660156 739.652344 720.226562 721.269531 Z M 714.359375 664.667969 C 721.753906 654.96875 731.96875 627.421875 739.355469 597.253906 C 745.636719 571.601562 745.738281 439.78125 739.496094 414.910156 L 735.457031 398.820312 L 731.984375 409.546875 C 726.289062 427.128906 718.039062 432.882812 714.5 421.734375 C 713.113281 417.371094 711.710938 416.921875 706.101562 419.054688 C 701.585938 420.769531 697.535156 420.636719 693.820312 418.648438 C 688.800781 415.960938 688.417969 413.980469 689.808594 397.863281 C 691.304688 380.527344 691.226562 380.230469 686.847656 386.753906 C 679.597656 397.550781 668.269531 408.207031 664.042969 408.207031 C 658.871094 408.207031 657.15625 400.78125 658.675781 384.953125 L 659.917969 372.007812 L 652.910156 383.847656 C 640.320312 405.125 630.011719 406.722656 630.011719 387.40625 L 630.011719 377.988281 L 624.453125 385.050781 C 614.800781 397.328125 605.554688 392.339844 611.070312 377.832031 C 614.382812 369.109375 612.289062 368.75 603.925781 376.609375 C 594.597656 385.371094 588.457031 380.5 588.457031 364.339844 C 588.457031 354.058594 587.703125 352.1875 584.046875 353.355469 C 581.621094 354.125 577.699219 352.820312 575.332031 350.453125 C 572.964844 348.085938 571.03125 347.3125 571.03125 348.738281 C 571.03125 352.800781 555.878906 367.988281 551.855469 367.953125 C 549.867188 367.9375 552.132812 364.855469 556.890625 361.105469 C 562.039062 357.046875 566.851562 349.90625 568.785156 343.449219 C 572.574219 330.796875 584.226562 306.253906 584.351562 310.664062 C 584.398438 312.320312 582.625 318.808594 580.414062 325.078125 C 575.054688 340.265625 575.195312 349.214844 580.789062 349.214844 C 589.398438 349.214844 596.84375 335.242188 601.933594 309.535156 C 604.945312 294.324219 604.777344 291.621094 600.238281 282.21875 C 593.863281 269.027344 589.796875 266.371094 589.796875 275.398438 C 589.796875 279.21875 588.011719 286.621094 585.828125 291.84375 C 582.601562 299.570312 580.835938 301.015625 576.355469 299.59375 C 571.613281 298.089844 571.019531 298.789062 572.082031 304.644531 C 573.773438 313.976562 556.921875 360.128906 553.1875 356.394531 C 552.460938 355.667969 553.613281 351.644531 555.746094 347.449219 C 562.707031 333.777344 563.871094 327.589844 559.140625 329.40625 C 553.050781 331.742188 554 328.046875 560.929688 322.429688 C 566.113281 318.234375 566.828125 315.378906 566.234375 301.21875 C 565.117188 274.550781 564.4375 269.210938 562.316406 270.519531 C 561.210938 271.203125 560.304688 271.1875 560.304688 270.484375 C 560.304688 269.78125 559.574219 267.296875 558.679688 264.964844 C 556.371094 258.949219 563.648438 259.550781 567.480469 265.691406 C 569.1875 268.421875 571.421875 276.265625 572.449219 283.121094 C 574.523438 296.929688 580.535156 300.035156 583.363281 288.753906 C 585.074219 281.933594 583.613281 259.972656 580.605469 247.3125 C 579.171875 241.28125 579.375 241.375 582.628906 248.226562 C 584.613281 252.414062 587.476562 256.640625 588.988281 257.613281 C 590.503906 258.585938 594.324219 264.207031 597.484375 270.109375 L 603.230469 280.832031 L 601.613281 270.109375 C 600.722656 264.207031 598.300781 253.429688 596.234375 246.15625 C 591.609375 229.886719 591.269531 222.164062 595.496094 229.433594 C 598.722656 234.984375 605.777344 272.796875 605.03125 280.546875 C 604.316406 287.949219 610.273438 288.835938 612.207031 281.613281 C 616.789062 264.5 611.324219 238.375 599.386719 220.332031 C 595.613281 214.628906 594.066406 210.550781 595.949219 211.273438 C 599.542969 212.652344 605.269531 222.644531 612.761719 240.609375 C 628.628906 278.648438 631.035156 286.875 631.1875 303.570312 C 631.324219 317.898438 632.171875 321.105469 636.042969 321.867188 C 640.191406 322.683594 640.734375 320.351562 640.734375 301.667969 C 640.734375 284.71875 638.84375 274.75 631.160156 251.195312 C 625.898438 235.050781 618.550781 216.617188 614.839844 210.234375 C 607.703125 197.960938 607.585938 191.722656 614.695312 202.574219 C 624.0625 216.875 642.976562 270.605469 643.894531 285.527344 C 644.234375 291.058594 645.632812 295.585938 647.003906 295.585938 C 648.425781 295.585938 648.925781 287.8125 648.164062 277.484375 C 646.222656 251.210938 632.457031 218.246094 615.820312 200.039062 C 601.511719 184.378906 602.585938 179.902344 617.085938 194.769531 C 630.542969 208.570312 640.273438 221.511719 647.707031 235.5 C 657.425781 253.78125 667.535156 298.3125 667.539062 322.851562 C 667.546875 351.015625 671.414062 359.34375 678.414062 346.257812 C 684.550781 334.785156 686.242188 308.484375 682.457031 283.289062 C 679.480469 263.488281 676.976562 256.128906 668.929688 243.542969 C 658.902344 227.867188 653.195312 224.417969 660.328125 238.351562 C 667.320312 252 675.597656 287.265625 675.183594 301.648438 C 674.957031 309.644531 674.351562 312.230469 673.777344 307.652344 C 670.113281 278.269531 658.777344 238.089844 651.996094 230.441406 C 648.082031 226.023438 648.105469 225.773438 652.277344 227.375 C 660.453125 230.511719 657.082031 224.714844 640.734375 207.53125 C 631.886719 198.230469 624.648438 190.035156 624.648438 189.320312 C 624.648438 186.054688 637.875 197.820312 649.445312 211.378906 C 656.449219 219.582031 662.179688 225.554688 662.179688 224.648438 C 662.179688 223.746094 659.253906 217.3125 655.679688 210.355469 C 648.433594 196.257812 639.828125 186.386719 622.007812 171.738281 C 615.398438 166.304688 610.828125 161.023438 611.855469 160 C 612.878906 158.972656 621.160156 165.230469 630.257812 173.898438 C 646.753906 189.613281 666.527344 217.339844 675.867188 237.847656 C 680.101562 247.152344 680.578125 247.535156 679.289062 240.609375 C 672.359375 203.402344 657.1875 179.828125 624.496094 155.472656 C 614.605469 148.105469 622.238281 149.988281 633.617188 157.71875 C 645.367188 165.707031 647.296875 165.039062 644.835938 153.832031 C 642.886719 144.949219 625.988281 129.554688 611.027344 123.035156 C 605.230469 120.507812 603.664062 118.957031 606.769531 118.820312 C 614.152344 118.488281 638.53125 135.882812 645.761719 146.640625 C 650.339844 153.449219 651.695312 158.300781 650.582031 163.875 C 649.453125 169.523438 650.441406 172.90625 654.222656 176.328125 C 660.941406 182.410156 674.589844 206.652344 679.59375 221.386719 C 681.746094 227.730469 684.109375 244.679688 684.847656 259.058594 C 686.203125 285.480469 690.066406 295.667969 699.507812 297.726562 C 702.484375 298.375 702.855469 294.929688 701.449219 279.792969 C 700.492188 269.484375 698.46875 257.796875 696.957031 253.8125 C 695.441406 249.828125 694.804688 245.96875 695.542969 245.230469 C 699.304688 241.46875 707.738281 277.640625 706.261719 291.191406 C 705.753906 295.820312 704.179688 311.070312 702.753906 325.082031 C 701.332031 339.09375 698.289062 363.511719 695.992188 379.347656 C 693.695312 395.179688 692.515625 409.964844 693.371094 412.195312 C 695.730469 418.34375 707.074219 417.113281 711.566406 410.21875 C 722.289062 393.773438 727.085938 344.734375 720.011719 323.894531 C 715.082031 309.367188 715.039062 308.992188 718.273438 308.992188 C 726.039062 308.992188 735.710938 364.890625 731.464844 385.238281 C 727.941406 402.136719 722.726562 408.816406 725.046875 393.460938 C 726.378906 384.65625 725.699219 385.617188 721.261719 398.824219 C 715.941406 414.664062 715.824219 421.617188 720.886719 421.617188 C 723.886719 421.617188 734.441406 394.675781 734.84375 385.984375 C 735.191406 378.410156 738.425781 391.042969 743.957031 421.617188 C 750.011719 455.058594 751.421875 546.9375 746.394531 580.550781 C 740.984375 616.746094 727.597656 656.222656 716.402344 668.996094 C 708.992188 677.445312 707.316406 673.90625 714.355469 664.675781 Z M 679.074219 391.789062 C 695.265625 368.390625 703.277344 315.519531 692.738281 301.628906 C 689.632812 297.539062 689.113281 299.214844 688.777344 314.351562 C 688.226562 339.273438 687.179688 345.445312 679.671875 367.980469 C 672.621094 389.140625 672.503906 381.449219 679.53125 358.855469 C 683.589844 345.804688 683.582031 345.742188 678.316406 350.507812 C 674.183594 354.246094 672.175781 354.621094 669.25 352.195312 C 664.152344 347.960938 662.195312 353.421875 663.949219 366.980469 C 664.6875 372.691406 664.132812 382.4375 662.710938 388.632812 C 661.292969 394.828125 660.792969 400.558594 661.605469 401.367188 C 665.539062 405.304688 672.277344 401.609375 679.074219 391.789062 Z M 649.03125 383.574219 C 652.078125 377.605469 655.042969 370.746094 655.617188 368.339844 C 656.195312 365.929688 657.914062 359.132812 659.441406 353.230469 C 662.878906 339.945312 663.011719 297.5 659.660156 284.851562 C 658.289062 279.691406 655.496094 268.832031 653.449219 260.71875 C 649.660156 245.6875 641.039062 227.011719 640.84375 233.410156 C 640.785156 235.347656 642.160156 239.574219 643.898438 242.792969 C 651.332031 256.550781 653.089844 277.230469 649.519531 308.929688 C 647.605469 325.921875 644.214844 344.453125 641.980469 350.105469 C 637.277344 362.011719 634.015625 387.382812 636.390625 393.574219 C 638.636719 399.429688 642.507812 396.363281 649.03125 383.574219 Z M 643.417969 364.285156 C 643.417969 363.730469 645.351562 358.644531 647.714844 352.988281 C 650.074219 347.332031 653.664062 334.214844 655.683594 323.835938 L 659.359375 304.964844 L 658.308594 321.054688 C 657.195312 338.210938 649.46875 365.300781 645.691406 365.300781 C 644.441406 365.300781 643.417969 364.84375 643.417969 364.285156 Z M 623.890625 379.378906 C 633.117188 365.683594 641.46875 345.863281 642.730469 334.664062 C 643.945312 323.878906 643.75 323.542969 636.390625 323.867188 C 630.320312 324.132812 628.433594 325.765625 626.996094 332.011719 C 623 349.328125 613.980469 381.816406 612.503906 384.207031 C 608.582031 390.546875 619.476562 385.929688 623.890625 379.378906 Z M 624.949219 358.597656 C 624.890625 355.644531 626.5625 350.214844 628.671875 346.527344 C 633.449219 338.171875 633.449219 342.167969 628.671875 354.574219 C 626.304688 360.71875 625.019531 362.109375 624.949219 358.597656 Z M 609.460938 364.554688 C 613.507812 358.328125 618.734375 346.664062 621.074219 338.636719 C 625.679688 322.851562 626.390625 287.179688 622.3125 276.574219 C 619.953125 270.441406 619.730469 270.382812 618.003906 275.46875 C 617.003906 278.417969 614.609375 283.847656 612.679688 287.535156 C 610.75 291.21875 608.289062 299.667969 607.214844 306.304688 C 606.136719 312.941406 602.558594 325.613281 599.265625 334.460938 C 591.085938 356.4375 588.773438 370.222656 592.515625 374.730469 C 596.867188 379.972656 601.085938 377.441406 609.460938 364.554688 Z M 607.265625 347.199219 C 610.417969 339.640625 616.410156 310.96875 616.511719 302.953125 C 616.566406 298.898438 617.699219 295.578125 619.035156 295.578125 C 620.367188 295.578125 620.914062 300.707031 620.25 306.976562 C 618.375 324.6875 610.941406 351.890625 607.980469 351.890625 C 606.480469 351.890625 606.167969 349.835938 607.265625 347.199219 Z M 680.882812 596.765625 C 695.691406 571.667969 704.414062 525.945312 705.226562 469.195312 C 705.453125 453.332031 706.808594 439.632812 708.238281 438.75 C 711.503906 436.730469 709.039062 510.695312 705.148438 531.558594 C 697.867188 570.574219 684.648438 606.640625 677.625 606.640625 C 676.214844 606.640625 677.679688 602.199219 680.882812 596.769531 Z M 660.203125 512.113281 C 663.265625 505.84375 668.488281 492.269531 671.804688 481.945312 C 675.121094 471.621094 677.933594 465.148438 678.050781 467.5625 C 678.277344 472.125 666.046875 510.609375 661.765625 518.816406 C 656.4375 529.023438 654.980469 522.785156 660.199219 512.113281 Z M 139.140625 510.773438 C 123.421875 493.261719 101.003906 453.789062 106.777344 453.789062 C 107.90625 453.789062 110.457031 458.3125 112.449219 463.84375 C 117.34375 477.429688 126.914062 492.230469 139.960938 506.386719 C 145.921875 512.855469 149.664062 518.144531 148.277344 518.144531 C 146.890625 518.144531 142.78125 514.828125 139.140625 510.773438 Z M 622.753906 477.496094 C 625.855469 468.414062 628.855469 462.375 629.421875 464.078125 C 630.8125 468.242188 622.121094 494.011719 619.328125 494.011719 C 618.109375 494.011719 619.652344 486.582031 622.753906 477.496094 Z M 572.617188 451.777344 C 573.546875 447.722656 575.875 439.539062 577.796875 433.597656 C 579.722656 427.652344 582.136719 418.289062 583.171875 412.785156 C 584.203125 407.28125 586.097656 402.128906 587.382812 401.335938 C 590.167969 399.613281 587.726562 413.453125 582.683594 427.980469 C 580.699219 433.695312 579.078125 441.140625 579.078125 444.519531 C 579.078125 452.476562 576.476562 459.152344 573.378906 459.152344 C 572.03125 459.152344 571.691406 455.835938 572.617188 451.777344 Z M 631.558594 448.425781 C 632.339844 441.789062 634.078125 429.117188 635.417969 420.269531 C 637.632812 405.625 637.738281 406.3125 636.574219 427.953125 C 635.871094 441.027344 634.136719 453.695312 632.714844 456.109375 C 630.910156 459.171875 630.5625 456.863281 631.558594 448.425781 Z M 550.679688 439.710938 C 551.625 436.390625 554.109375 427.363281 556.195312 419.644531 C 561.054688 401.691406 566.339844 391.964844 563.871094 405.519531 C 562.929688 410.683594 560.539062 419.582031 558.554688 425.296875 C 556.570312 431.015625 554.949219 437.953125 554.949219 440.71875 C 554.949219 443.484375 553.601562 445.742188 551.953125 445.742188 C 550.128906 445.742188 549.628906 443.390625 550.679688 439.710938 Z M 530.941406 436.222656 C 531.007812 433.347656 532.703125 427.375 534.710938 422.949219 L 538.355469 414.90625 L 536.921875 425.632812 C 535.394531 437.011719 530.730469 445.273438 530.941406 436.222656 Z M 539.089844 410.882812 C 539.011719 408.671875 540.113281 405.050781 541.542969 402.839844 C 544.710938 397.9375 544.710938 402.171875 541.542969 409.542969 C 540.023438 413.078125 539.1875 413.535156 539.089844 410.882812 Z M 706.402344 389.328125 C 707.359375 384.109375 709.710938 369.027344 711.632812 355.808594 C 714.949219 332.988281 715.140625 332.53125 715.460938 346.703125 C 715.855469 364.027344 711.214844 392.238281 707.332031 396.132812 C 705.554688 397.917969 705.242188 395.636719 706.402344 389.328125 Z M 340.46875 359.085938 C 340.46875 354.023438 342.277344 344.75 344.488281 338.480469 C 349.148438 325.273438 349.433594 322.390625 346.078125 322.390625 C 344.738281 322.390625 342.097656 328.425781 340.207031 335.796875 C 338.320312 343.171875 335.664062 349.207031 334.308594 349.207031 C 332.953125 349.207031 332.636719 346.046875 333.605469 342.1875 C 339.214844 319.828125 339.480469 320.660156 324.179688 312.902344 C 312.058594 306.761719 308.679688 306.105469 301.09375 308.433594 C 290.820312 311.589844 289.554688 308.9375 298.242188 302.457031 C 302.5 299.28125 302.894531 298.371094 299.582031 299.363281 C 293.871094 301.078125 293.265625 296.773438 298.910156 294.605469 C 304.992188 292.273438 311.503906 295.699219 309.738281 300.304688 C 308.484375 303.570312 309.933594 304.054688 317.367188 302.847656 C 324.867188 301.632812 326.792969 302.296875 327.886719 306.480469 C 329.671875 313.304688 340.320312 317.027344 358.066406 317.027344 C 366.082031 317.027344 372.636719 318.234375 372.636719 319.710938 C 372.636719 321.183594 369.261719 322.390625 365.128906 322.390625 C 358.878906 322.390625 356.632812 324.425781 351.726562 334.53125 C 348.484375 341.207031 345.828125 350.789062 345.828125 355.824219 C 345.828125 360.859375 344.621094 365.726562 343.148438 366.636719 C 341.558594 367.617188 340.46875 364.542969 340.46875 359.089844 Z M 528.21875 353.070312 C 528.171875 351.507812 529.90625 347.890625 532.070312 345.027344 C 534.234375 342.164062 536.046875 341.097656 536.09375 342.660156 C 536.140625 344.222656 534.40625 347.84375 532.242188 350.707031 C 530.078125 353.566406 528.265625 354.632812 528.21875 353.070312 Z M 588.074219 327.648438 C 591.609375 309.980469 595.90625 296.972656 597.105469 300.324219 C 597.777344 302.199219 597.007812 307.507812 595.402344 312.121094 C 593.792969 316.734375 592.476562 323.273438 592.476562 326.65625 C 592.476562 330.035156 591.082031 333.664062 589.378906 334.714844 C 587.144531 336.097656 586.78125 334.117188 588.074219 327.648438 Z M 693.597656 283.015625 C 690.5625 277.875 688.769531 263.253906 690.792969 260.109375 C 692.171875 257.960938 693.597656 261.675781 694.625 270.101562 C 696.265625 283.585938 695.992188 287.066406 693.597656 283.015625 Z M 575.355469 279.199219 C 574.710938 277.144531 572.875 271.363281 571.269531 266.347656 C 567.90625 255.835938 567.519531 250.941406 570.269531 253.695312 C 572.671875 256.097656 578.972656 280.453125 577.5625 281.882812 C 576.988281 282.460938 575.996094 281.253906 575.355469 279.199219 Z M 541.542969 241.632812 C 541.542969 239.886719 543.949219 239.265625 547.304688 240.144531 C 555.507812 242.289062 568.351562 239.222656 568.351562 235.117188 C 568.351562 233.207031 564.746094 230.851562 560.339844 229.882812 C 549.929688 227.597656 547.257812 223.171875 556.289062 223.171875 C 560.148438 223.171875 562.675781 222.15625 561.910156 220.910156 C 561.140625 219.664062 564.6875 217.367188 569.792969 215.796875 C 575.035156 214.1875 579.074219 214.007812 579.074219 215.378906 C 579.074219 216.714844 577.667969 217.808594 575.949219 217.808594 C 574.230469 217.808594 570.832031 219.90625 568.398438 222.472656 C 564.277344 226.8125 564.351562 227.457031 569.515625 231.855469 C 574.980469 236.515625 574.988281 236.628906 569.851562 240.601562 C 563.78125 245.292969 541.542969 246.101562 541.542969 241.628906 Z M 583.429688 208.320312 C 582.183594 205.074219 579.859375 204.296875 575.03125 205.507812 C 565.101562 208 567.113281 203.726562 578.351562 198.449219 C 588.15625 193.84375 594.511719 194.382812 587.042969 199.183594 C 583.578125 201.414062 583.585938 202.03125 587.097656 204.289062 C 590.023438 206.171875 590.300781 207.65625 588.125 209.832031 C 585.945312 212.011719 584.691406 211.605469 583.429688 208.320312 Z M 525.628906 208.425781 C 525.628906 206.949219 527.398438 203.402344 529.5625 200.539062 C 531.730469 197.675781 533.5 196.539062 533.5 198.015625 C 533.5 199.488281 531.730469 203.039062 529.5625 205.902344 C 527.398438 208.765625 525.628906 209.898438 525.628906 208.425781 Z M 335.105469 204.558594 C 335.105469 201.300781 350.601562 190.320312 353.601562 191.453125 C 354.882812 191.9375 351.246094 195.640625 345.519531 199.683594 C 339.792969 203.726562 335.105469 205.917969 335.105469 204.558594 Z M 456.417969 194.359375 C 451.625 191.972656 447.703125 189.054688 447.703125 187.871094 C 447.703125 186.6875 451.925781 187.730469 457.085938 190.195312 C 462.246094 192.65625 466.46875 195.652344 466.46875 196.855469 C 466.46875 199.507812 467.050781 199.652344 456.417969 194.359375 Z M 579.695312 185.402344 C 584.511719 180.851562 586.945312 177.90625 585.101562 178.855469 C 580.207031 181.378906 581.007812 176.589844 586.703125 169.234375 C 595.878906 157.386719 596.675781 142.277344 587.648438 151.308594 C 585.878906 153.078125 584.34375 153.980469 584.238281 153.316406 C 582.085938 139.707031 582.191406 132.042969 584.554688 130.582031 C 586.167969 129.585938 587.203125 130.394531 586.867188 132.402344 C 585.84375 138.554688 590.042969 145.144531 594.011719 143.617188 C 600.199219 141.246094 600.757812 148.476562 595.652344 164.800781 C 590.492188 181.285156 581.640625 193.675781 575.023438 193.675781 C 572.378906 193.675781 574.023438 190.761719 579.695312 185.402344 Z M 592.472656 191.152344 C 592.472656 189.589844 593.679688 188.3125 595.15625 188.3125 C 596.628906 188.3125 597.835938 188.84375 597.835938 189.496094 C 597.835938 190.144531 596.628906 191.421875 595.15625 192.335938 C 593.679688 193.246094 592.472656 192.714844 592.472656 191.152344 Z M 467.808594 176.089844 C 457.085938 172.320312 457.085938 172.320312 466.386719 173.664062 C 471.5 174.402344 476.867188 176.191406 478.316406 177.636719 C 481.519531 180.84375 481.214844 180.796875 467.808594 176.089844 Z M 315.738281 162.210938 C 322.042969 161.644531 331.695312 161.652344 337.183594 162.230469 C 342.675781 162.804688 337.515625 163.269531 325.722656 163.257812 C 313.925781 163.25 309.433594 162.777344 315.738281 162.210938 Z M 457.085938 156.132812 C 455.089844 152.898438 465.644531 152.898438 473.171875 156.132812 C 477.496094 157.992188 476.613281 158.476562 468.640625 158.628906 C 463.195312 158.730469 458 157.609375 457.085938 156.132812 Z M 624.652344 139.824219 L 617.949219 134.359375 L 626.664062 138.609375 C 631.457031 140.949219 635.375 143.4375 635.375 144.136719 C 635.375 146.800781 631.105469 145.085938 624.652344 139.824219 Z M 461.113281 135.167969 C 463.324219 133.832031 469.355469 131.988281 474.515625 131.074219 C 480.355469 130.039062 482.382812 130.289062 479.878906 131.738281 C 474.308594 134.960938 455.875 138.328125 461.113281 135.167969 Z M 330.441406 128.320312 C 312.90625 121.195312 312.042969 118.007812 329.070312 123.242188 C 336.074219 125.394531 343.3125 127.605469 345.15625 128.152344 C 348.699219 129.207031 349.933594 134.914062 346.496094 134.351562 C 345.390625 134.171875 338.167969 131.457031 330.441406 128.320312 Z M 604.976562 130.339844 C 600.789062 128.074219 597.964844 125.617188 598.695312 124.886719 C 600.125 123.457031 616.605469 131.296875 616.605469 133.410156 C 616.605469 135.601562 612.855469 134.613281 604.976562 130.339844 Z M 453.433594 120.011719 C 455.804688 117.640625 485.132812 102.503906 487.199219 102.585938 C 490.015625 102.695312 457.714844 121.199219 454.632812 121.238281 C 453.28125 121.257812 452.742188 120.707031 453.433594 120.011719 Z M 355.335938 105.316406 C 346.652344 96.246094 348.996094 94.371094 358.804688 102.546875 C 362.253906 105.417969 364.644531 109.058594 364.121094 110.632812 C 363.597656 112.203125 359.644531 109.8125 355.335938 105.316406 Z M 431.621094 105.652344 C 431.621094 103.402344 439.3125 96.039062 449.046875 88.96875 C 451.996094 86.824219 450.183594 90.097656 445.023438 96.242188 C 435.867188 107.144531 431.621094 110.125 431.621094 105.652344 Z M 387.96875 97.988281 C 384.851562 92.710938 382.90625 77.769531 385.550781 79.40625 C 388.644531 81.316406 392.652344 96.789062 390.589844 98.851562 C 389.859375 99.582031 388.679688 99.191406 387.96875 97.988281 Z M 412.851562 97.515625 C 412.851562 92.945312 416.027344 86.414062 418.25 86.414062 C 420.945312 86.414062 418.390625 96.714844 415.210938 98.679688 C 413.914062 99.480469 412.851562 98.957031 412.851562 97.515625 Z M 412.851562 97.515625"/></g></svg>