<svg xmlns="http://www.w3.org/2000/svg" xmlns:xlink="http://www.w3.org/1999/xlink" width="810" height="810" contentScriptType="text/ecmascript" contentStyleType="text/css" preserveAspectRatio="xMidYMid meet" version="1.0" viewBox="0 0 810 810" zoomAndPan="magnify"><defs><clipPath id="clip-0"><path d="M 59 9.378906 L 750 9.378906 L 750 800.628906 L 59 800.628906 Z M 59 9.378906" clip-rule="nonzero"/></clipPath></defs><g clip-path="url(#clip-0)"><path fill="#A37D4F" fill-opacity="1" fill-rule="nonzero" d="M 737.976562 675.507812 C 722.695312 667.632812 705.4375 655.488281 702.640625 650.859375 C 679.292969 598.386719 667.003906 417.480469 664.210938 351.542969 C 664.039062 228.832031 598.195312 129.203125 494.910156 92.738281 C 491.363281 46.171875 452.351562 9.378906 404.902344 9.378906 C 357.453125 9.378906 318.441406 46.171875 314.90625 92.738281 C 211.476562 129.242188 145.609375 229.058594 145.609375 351.320312 C 143.617188 415.621094 133.675781 593.957031 112.171875 645.925781 C 108.945312 651.609375 89.46875 665.828125 71.34375 675.785156 C 62.46875 680.648438 58.011719 690.910156 60.53125 700.722656 C 63.050781 710.53125 71.855469 717.378906 81.980469 717.378906 L 301.894531 717.378906 C 312.097656 764.878906 354.378906 800.628906 404.902344 800.628906 C 455.425781 800.628906 497.71875 764.878906 507.925781 717.363281 L 727.824219 717.363281 C 738.042969 717.363281 746.953125 710.375 749.367188 700.429688 C 751.765625 690.476562 747.058594 680.175781 737.976562 675.507812 Z M 404.902344 756.320312 C 379.035156 756.320312 356.910156 740.125 348.027344 717.363281 L 461.792969 717.363281 C 452.894531 740.125 430.769531 756.320312 404.902344 756.320312 Z M 147.125 673.039062 C 149.578125 669.835938 151.554688 666.566406 152.898438 663.308594 C 182.117188 592.769531 189.578125 362.476562 189.90625 352.019531 C 189.90625 243.089844 250.144531 156.023438 343.398438 130.203125 C 354.0625 127.25 360.90625 116.871094 359.445312 105.898438 C 359.113281 103.394531 358.941406 101.414062 358.941406 99.675781 C 358.941406 74.328125 379.5625 53.703125 404.902344 53.703125 C 430.253906 53.703125 450.863281 74.328125 450.863281 99.675781 C 450.863281 101.414062 450.703125 103.394531 450.375 105.898438 C 448.898438 116.871094 455.742188 127.261719 466.421875 130.203125 C 559.660156 156.023438 619.910156 243.089844 619.910156 352.019531 C 619.910156 352.320312 619.910156 352.636719 619.925781 352.941406 C 620.347656 362.910156 630.550781 597.847656 662.179688 668.898438 C 662.8125 670.285156 663.539062 671.683594 664.355469 673.039062 Z M 147.125 673.039062"/></g></svg>