<svg xmlns="http://www.w3.org/2000/svg" xmlns:xlink="http://www.w3.org/1999/xlink" width="810" height="810" contentScriptType="text/ecmascript" contentStyleType="text/css" preserveAspectRatio="xMidYMid meet" version="1.0" viewBox="0 0 810 810" zoomAndPan="magnify"><defs><clipPath id="clip-0"><path d="M 18.125 18.125 L 792.125 18.125 L 792.125 792.125 L 18.125 792.125 Z M 18.125 18.125" clip-rule="nonzero"/></clipPath></defs><g clip-path="url(#clip-0)"><path fill="#A37D4F" fill-opacity="1" fill-rule="nonzero" d="M 761.234375 634.789062 L 757.449219 643.734375 L 747.730469 643.734375 C 660.722656 643.734375 581.035156 591.808594 539.152344 518.449219 C 537.140625 514.921875 535.207031 511.34375 533.371094 507.71875 C 528.4375 497.984375 524.191406 487.90625 520.640625 477.574219 C 519.382812 473.914062 518.21875 470.222656 517.140625 466.496094 C 511.441406 446.734375 508.320312 426.125 508.320312 405.074219 C 508.320312 384.0625 511.414062 363.492188 517.070312 343.765625 C 525.035156 342.789062 533.132812 342.230469 541.363281 342.230469 C 543.621094 342.230469 545.847656 342.324219 548.082031 342.398438 C 541.355469 362.378906 537.636719 383.457031 537.636719 405.074219 C 537.636719 426.605469 541.5625 447.742188 548.613281 467.839844 C 549.847656 471.359375 551.175781 474.84375 552.601562 478.296875 C 556.625 488.03125 561.375 497.476562 566.8125 506.550781 C 568.808594 509.890625 570.867188 513.191406 573.042969 516.425781 C 609.96875 571.3125 671.621094 610.570312 737.875 614.152344 C 746.535156 590.691406 751.082031 565.726562 751.082031 541.363281 C 751.082031 504.070312 741.25 469.050781 724.113281 438.671875 C 731.1875 431.070312 737.773438 423.019531 743.863281 414.578125 C 766.976562 451.359375 780.398438 494.808594 780.398438 541.363281 C 780.398438 572.839844 773.773438 605.140625 761.234375 634.789062 Z M 644.25 747.496094 L 644.25 757.160156 L 635.363281 760.96875 C 605.28125 773.863281 573.652344 780.402344 541.363281 780.402344 C 494.808594 780.402344 451.359375 766.976562 414.578125 743.867188 C 411.375 741.855469 408.226562 739.769531 405.125 737.613281 C 396.679688 731.730469 388.605469 725.359375 381 718.46875 C 378.308594 716.027344 375.683594 713.519531 373.105469 710.960938 C 337.867188 676 313.4375 630.164062 305.308594 578.964844 C 314.164062 573.308594 323.386719 568.316406 332.898438 564.09375 C 338.394531 614.816406 362.058594 660.136719 397.210938 693.472656 C 399.789062 695.914062 402.425781 698.296875 405.125 700.609375 C 412.71875 707.113281 420.777344 713.082031 429.253906 718.46875 C 432.339844 720.429688 435.480469 722.316406 438.671875 724.117188 C 469.050781 741.253906 504.070312 751.085938 541.363281 751.085938 C 566.414062 751.085938 591.03125 746.578125 614.679688 737.695312 C 611.214844 669.953125 572.109375 608.277344 516.582031 571.824219 C 517.800781 561.828125 518.503906 551.683594 518.503906 541.363281 C 518.503906 540.542969 518.453125 539.734375 518.445312 538.914062 C 592.089844 580.71875 644.25 660.441406 644.25 747.496094 Z M 294.769531 586.613281 C 303.714844 635.609375 326.765625 680.175781 361.757812 716.105469 C 333.242188 731.316406 301.242188 739.355469 268.886719 739.355469 C 248.910156 739.355469 228.203125 736.039062 208.484375 729.726562 C 214.296875 674.960938 246.613281 621.292969 294.769531 586.613281 Z M 175.445312 761.207031 L 166.492188 757.421875 L 166.492188 747.707031 C 166.492188 662.589844 218.980469 582.6875 291.777344 540.148438 C 295.3125 538.085938 298.886719 536.101562 302.507812 534.222656 C 312.257812 529.152344 322.328125 524.769531 332.644531 521.101562 C 336.304688 519.800781 339.992188 518.59375 343.710938 517.476562 C 363.554688 511.542969 384.171875 508.261719 405.125 508.261719 C 426.15625 508.261719 446.734375 511.367188 466.480469 517.027344 C 467.457031 525.007812 468.023438 533.121094 468.023438 541.363281 C 468.023438 543.605469 467.925781 545.824219 467.855469 548.046875 C 447.859375 541.308594 426.757812 537.582031 405.125 537.582031 C 383.609375 537.582031 362.488281 541.5 342.414062 548.542969 C 338.890625 549.777344 335.402344 551.105469 331.949219 552.535156 C 322.214844 556.558594 312.765625 561.304688 303.6875 566.738281 C 300.351562 568.738281 297.050781 570.800781 293.820312 572.972656 C 238.921875 609.898438 199.652344 671.574219 196.074219 737.847656 C 219.574219 746.527344 244.546875 751.085938 268.886719 751.085938 C 306.179688 751.085938 341.203125 741.253906 371.578125 724.117188 C 379.183594 731.1875 387.234375 737.777344 395.671875 743.867188 C 358.890625 766.976562 315.441406 780.402344 268.886719 780.402344 C 237.449219 780.402344 205.136719 773.765625 175.445312 761.207031 Z M 53.042969 644.1875 L 49.242188 635.296875 C 36.378906 605.25 29.851562 573.644531 29.851562 541.363281 C 29.851562 494.808594 43.277344 451.359375 66.390625 414.578125 C 68.402344 411.375 70.484375 408.226562 72.644531 405.125 C 78.523438 396.679688 84.894531 388.605469 91.789062 381 C 94.226562 378.308594 96.734375 375.683594 99.289062 373.105469 C 134.480469 337.632812 180.679688 313.097656 232.28125 305.136719 C 237.808594 314.007812 242.6875 323.253906 246.789062 332.820312 C 195.808594 338.183594 150.257812 361.910156 116.78125 397.210938 C 114.335938 399.789062 111.960938 402.425781 109.644531 405.125 C 103.136719 412.71875 97.171875 420.777344 91.789062 429.253906 C 89.824219 432.339844 87.941406 435.480469 86.136719 438.671875 C 69 469.050781 59.171875 504.070312 59.171875 541.363281 C 59.171875 566.398438 63.65625 590.984375 72.511719 614.589844 C 137.402344 610.90625 199.078125 571.089844 236.375 516.316406 C 247.023438 517.710938 257.863281 518.503906 268.886719 518.503906 C 269.324219 518.503906 269.746094 518.472656 270.183594 518.46875 C 227.707031 591.503906 147.816406 644.1875 62.71875 644.1875 Z M 94.148438 361.757812 C 78.9375 333.246094 70.898438 301.242188 70.898438 268.886719 C 70.898438 248.152344 74.160156 227.695312 80.601562 207.953125 C 135.441406 213.761719 189.152344 246.253906 223.8125 294.710938 C 174.765625 303.625 130.152344 326.691406 94.148438 361.757812 Z M 29.851562 268.886719 C 29.851562 236.53125 36.382812 204.894531 49.257812 174.847656 L 53.066406 165.964844 L 62.734375 165.964844 C 149.792969 165.964844 229.523438 218.136719 271.316406 291.808594 C 273.316406 295.339844 275.238281 298.914062 277.066406 302.535156 C 281.964844 312.273438 286.179688 322.351562 289.707031 332.683594 C 290.960938 336.347656 292.117188 340.039062 293.1875 343.765625 C 298.835938 363.492188 301.933594 384.0625 301.933594 405.074219 C 301.933594 426.042969 298.664062 446.683594 292.746094 466.542969 C 284.917969 467.484375 276.964844 468.023438 268.886719 468.023438 C 266.328125 468.023438 263.789062 467.925781 261.253906 467.828125 C 268.539062 447.636719 272.613281 426.476562 272.613281 405.074219 C 272.613281 383.578125 268.726562 362.476562 261.734375 342.410156 C 260.507812 338.890625 259.1875 335.398438 257.769531 331.945312 C 253.773438 322.207031 249.046875 312.753906 243.648438 303.671875 C 241.65625 300.332031 239.613281 297.03125 237.445312 293.796875 C 200.578125 238.613281 138.863281 199.117188 72.53125 195.546875 C 63.660156 219.160156 59.171875 243.789062 59.171875 268.886719 C 59.171875 306.179688 69 341.203125 86.136719 371.578125 C 79.0625 379.183594 72.480469 387.234375 66.390625 395.671875 C 43.277344 358.890625 29.851562 315.4375 29.851562 268.886719 Z M 166.023438 53.023438 L 174.910156 49.214844 C 204.921875 36.367188 236.535156 29.847656 268.886719 29.847656 C 315.441406 29.847656 358.890625 43.273438 395.671875 66.386719 C 398.875 68.398438 402.027344 70.484375 405.125 72.640625 C 413.570312 78.519531 421.648438 84.890625 429.253906 91.785156 C 431.945312 94.222656 434.570312 96.730469 437.148438 99.289062 C 472.566406 134.429688 497.074219 180.535156 505.074219 232.042969 C 496.214844 237.601562 486.972656 242.5 477.414062 246.625 C 472.015625 195.714844 448.304688 150.21875 413.039062 116.78125 C 410.460938 114.332031 407.824219 111.957031 405.125 109.640625 C 397.53125 103.136719 389.472656 97.167969 381 91.785156 C 377.910156 89.820312 374.773438 87.9375 371.578125 86.132812 C 341.203125 68.996094 306.179688 59.167969 268.886719 59.167969 C 243.789062 59.167969 219.1875 63.644531 195.605469 72.496094 C 199.179688 138.800781 238.652344 200.492188 293.808594 237.363281 C 292.5 247.695312 291.746094 258.203125 291.746094 268.886719 C 291.746094 269.316406 291.777344 269.734375 291.78125 270.160156 C 218.726562 227.703125 166.023438 147.800781 166.023438 62.691406 Z M 515.484375 223.535156 C 506.53125 174.59375 483.488281 130.078125 448.492188 94.144531 C 477.003906 78.933594 509.007812 70.894531 541.363281 70.894531 C 561.386719 70.894531 582.097656 74.191406 601.761719 80.476562 C 595.949219 135.222656 563.636719 188.871094 515.484375 223.535156 Z M 634.808594 48.988281 L 643.761719 52.773438 L 643.761719 62.492188 C 643.761719 149.507812 591.820312 229.199219 518.453125 271.066406 C 514.921875 273.082031 511.347656 275.015625 507.71875 276.851562 C 497.984375 281.78125 487.910156 286.019531 477.574219 289.570312 C 473.917969 290.828125 470.226562 291.992188 466.503906 293.0625 C 446.753906 298.753906 426.164062 301.878906 405.125 301.878906 C 384.171875 301.878906 363.550781 298.617188 343.703125 292.707031 C 342.765625 284.890625 342.230469 276.953125 342.230469 268.886719 C 342.230469 266.464844 342.324219 264.0625 342.414062 261.660156 C 362.496094 268.664062 383.609375 272.558594 405.125 272.558594 C 426.640625 272.558594 447.757812 268.644531 467.839844 261.605469 C 471.355469 260.367188 474.84375 259.042969 478.292969 257.613281 C 488.027344 253.59375 497.472656 248.851562 506.546875 243.417969 C 509.886719 241.417969 513.1875 239.359375 516.421875 237.1875 C 571.324219 200.273438 610.597656 138.613281 614.171875 72.34375 C 590.742188 63.707031 565.769531 59.167969 541.363281 59.167969 C 504.070312 59.167969 469.050781 68.996094 438.671875 86.132812 C 431.070312 79.0625 423.019531 72.476562 414.578125 66.386719 C 451.359375 43.273438 494.808594 29.847656 541.363281 29.847656 C 572.882812 29.847656 605.199219 36.46875 634.808594 48.988281 Z M 716.105469 361.757812 C 679.847656 326.445312 634.886719 303.320312 585.441406 294.542969 C 619.980469 245.3125 672.964844 213.507812 729.628906 207.898438 C 736.085938 227.652344 739.351562 248.125 739.351562 268.886719 C 739.351562 301.246094 731.3125 333.246094 716.105469 361.757812 Z M 509.828125 334.023438 C 509.515625 334.066406 509.207031 334.121094 508.890625 334.171875 C 509.902344 331.003906 510.988281 327.859375 512.125 324.738281 C 513.714844 317.820312 515.03125 310.804688 516.027344 303.683594 C 517.726562 303.503906 519.441406 303.390625 521.144531 303.246094 C 525.136719 302.910156 529.148438 302.671875 533.1875 302.535156 C 535.90625 302.445312 538.621094 302.328125 541.363281 302.328125 C 549.59375 302.328125 557.734375 302.75 565.753906 303.5625 C 569.566406 303.953125 573.355469 304.445312 577.113281 305.011719 C 629.0625 312.835938 675.574219 337.4375 710.960938 373.105469 C 705.734375 381.582031 699.871094 389.632812 693.472656 397.210938 C 659.875 361.78125 614.113281 338 562.910156 332.746094 C 559.277344 332.375 555.621094 332.097656 551.9375 331.914062 C 548.433594 331.738281 544.910156 331.648438 541.363281 331.648438 C 534.335938 331.648438 527.390625 332.011719 520.542969 332.683594 C 516.945312 333.039062 513.371094 333.484375 509.828125 334.023438 Z M 516.027344 506.566406 C 512.390625 506.183594 508.773438 505.730469 505.1875 505.1875 C 494.582031 503.566406 484.222656 501.195312 474.121094 498.230469 C 470.167969 497.066406 466.257812 495.8125 462.390625 494.453125 C 445.507812 488.527344 429.496094 480.761719 414.578125 471.386719 C 423.019531 465.296875 431.070312 458.710938 438.671875 451.640625 C 442.175781 453.617188 445.722656 455.511719 449.339844 457.289062 C 453.992188 459.566406 458.757812 461.65625 463.589844 463.589844 C 474.707031 468.050781 486.273438 471.609375 498.230469 474.121094 C 501.78125 474.867188 505.359375 475.53125 508.980469 476.097656 C 509.261719 476.136719 509.546875 476.1875 509.828125 476.230469 C 510.597656 479.070312 511.296875 481.9375 511.964844 484.8125 C 514.710938 492.371094 517.847656 499.773438 521.308594 507.019531 C 519.546875 506.867188 517.777344 506.75 516.027344 506.566406 Z M 401.910156 481.316406 C 402.976562 480.648438 404.027344 479.957031 405.082031 479.273438 L 408.335938 481.320312 C 419.710938 488.460938 431.664062 494.671875 444.015625 499.898438 C 431.0625 497.675781 418.054688 496.535156 405.125 496.535156 C 392.019531 496.535156 378.789062 497.769531 365.570312 500.183594 C 378.15625 494.90625 390.335938 488.589844 401.910156 481.316406 Z M 303.683594 516.027344 C 304.070312 512.390625 304.519531 508.773438 305.066406 505.1875 C 306.683594 494.582031 309.054688 484.222656 312.023438 474.121094 C 313.1875 470.167969 314.4375 466.253906 315.796875 462.386719 C 321.726562 445.507812 329.492188 429.496094 338.867188 414.578125 C 344.953125 423.019531 351.539062 431.070312 358.609375 438.671875 C 356.636719 442.175781 354.738281 445.722656 352.964844 449.339844 C 350.679688 453.992188 348.597656 458.753906 346.660156 463.589844 C 342.203125 474.707031 338.640625 486.273438 336.128906 498.230469 C 335.351562 501.9375 334.652344 505.675781 334.070312 509.449219 C 334.050781 509.574219 334.039062 509.707031 334.023438 509.828125 C 332.515625 510.234375 331.015625 510.644531 329.5 511.023438 C 320.53125 514.210938 311.738281 517.933594 303.167969 522.144531 C 303.332031 520.101562 303.46875 518.054688 303.683594 516.027344 Z M 280.316406 524.367188 L 283.351562 519.152344 C 285.277344 519.042969 287.195312 518.921875 289.097656 518.769531 L 290.722656 518.636719 C 291.046875 518.617188 291.371094 518.582031 291.699219 518.554688 C 291.667969 518.9375 291.625 519.316406 291.597656 519.695312 L 291.007812 527.097656 C 289.296875 528.046875 287.578125 529.023438 285.859375 530.027344 C 280.722656 533.027344 275.710938 536.195312 270.8125 539.511719 C 274.136719 534.582031 277.3125 529.539062 280.316406 524.367188 Z M 294.222656 303.683594 C 297.863281 304.070312 301.476562 304.519531 305.066406 305.066406 C 315.671875 306.679688 326.027344 309.054688 336.128906 312.023438 C 340.082031 313.183594 343.996094 314.4375 347.859375 315.796875 C 364.746094 321.722656 380.753906 329.492188 395.671875 338.863281 C 387.234375 344.953125 379.183594 351.539062 371.578125 358.609375 C 368.078125 356.636719 364.53125 354.738281 360.90625 352.964844 C 356.257812 350.679688 351.496094 348.597656 346.660156 346.65625 C 335.542969 342.203125 323.976562 338.636719 312.023438 336.128906 C 308.496094 335.386719 304.949219 334.730469 301.359375 334.171875 C 300.351562 331.007812 299.261719 327.878906 298.128906 324.765625 C 295.464844 317.445312 292.441406 310.273438 289.109375 303.246094 C 290.816406 303.390625 292.53125 303.503906 294.222656 303.683594 Z M 408.335938 328.933594 C 407.273438 329.601562 406.222656 330.296875 405.167969 330.980469 L 401.910156 328.933594 C 390.230469 321.59375 377.9375 315.226562 365.230469 309.917969 C 378.558594 312.359375 391.90625 313.605469 405.125 313.605469 C 418.210938 313.605469 431.375 312.4375 444.480469 310.152344 C 431.964844 315.414062 419.855469 321.699219 408.335938 328.933594 Z M 506.566406 294.222656 C 506.183594 297.859375 505.730469 301.476562 505.1875 305.066406 C 503.566406 315.671875 501.195312 326.023438 498.230469 336.128906 C 497.066406 340.078125 495.8125 343.992188 494.453125 347.859375 C 488.527344 364.746094 480.761719 380.753906 471.390625 395.671875 C 465.296875 387.234375 458.710938 379.183594 451.640625 371.578125 C 453.617188 368.078125 455.511719 364.53125 457.289062 360.90625 C 459.570312 356.257812 461.65625 351.496094 463.589844 346.65625 C 468.050781 335.539062 471.609375 323.976562 474.121094 312.023438 C 474.871094 308.457031 475.539062 304.859375 476.105469 301.234375 C 478.945312 300.320312 481.773438 299.355469 484.578125 298.339844 C 492.21875 295.574219 499.695312 292.402344 507.023438 288.90625 C 506.871094 290.683594 506.753906 292.460938 506.566406 294.222656 Z M 481.320312 408.339844 C 480.652344 407.273438 479.957031 406.222656 479.273438 405.167969 L 481.320312 401.910156 C 488.496094 390.484375 494.734375 378.476562 499.972656 366.066406 C 497.738281 379.054688 496.59375 392.101562 496.59375 405.074219 C 496.59375 418.121094 497.753906 431.246094 500.023438 444.3125 C 494.773438 431.859375 488.523438 419.804688 481.320312 408.339844 Z M 397.917969 405.125 C 400.25 402.671875 402.671875 400.25 405.125 397.917969 C 407.582031 400.25 410 402.671875 412.332031 405.125 C 410 407.578125 407.582031 410 405.125 412.328125 C 402.671875 410 400.25 407.578125 397.917969 405.125 Z M 405.125 345.117188 C 408.226562 342.957031 411.375 340.878906 414.578125 338.863281 C 429.496094 329.492188 445.507812 321.722656 462.390625 315.796875 C 459.257812 328.71875 454.867188 341.152344 449.339844 352.964844 C 445.722656 354.738281 442.175781 356.636719 438.671875 358.609375 C 435.480469 360.410156 432.339844 362.300781 429.253906 364.261719 C 420.777344 369.644531 412.71875 375.613281 405.125 382.121094 C 402.425781 384.429688 399.789062 386.8125 397.210938 389.257812 C 394.492188 391.835938 391.839844 394.492188 389.261719 397.210938 C 382.855469 389.632812 377 381.582031 371.765625 373.105469 C 372.210938 372.65625 372.660156 372.210938 373.105469 371.765625 C 375.683594 369.207031 378.308594 366.703125 381 364.261719 C 388.605469 357.371094 396.679688 350.996094 405.125 345.117188 Z M 330.980469 405.082031 L 328.933594 408.335938 C 321.625 419.96875 315.285156 432.207031 309.988281 444.859375 C 312.421875 431.5625 313.660156 418.253906 313.660156 405.074219 C 313.660156 392.101562 312.515625 379.054688 310.28125 366.070312 C 315.523438 378.480469 321.757812 390.488281 328.933594 401.910156 C 329.605469 402.976562 330.296875 404.03125 330.980469 405.082031 Z M 315.796875 347.859375 C 328.722656 350.992188 341.15625 355.382812 352.964844 360.90625 C 354.738281 364.53125 356.636719 368.078125 358.609375 371.578125 C 360.414062 374.769531 362.300781 377.910156 364.261719 381 C 369.644531 389.46875 375.617188 397.53125 382.121094 405.125 C 384.433594 407.824219 386.8125 410.460938 389.261719 413.039062 C 391.839844 415.761719 394.492188 418.414062 397.210938 420.992188 C 389.632812 427.398438 381.585938 433.253906 373.105469 438.488281 C 372.660156 438.039062 372.210938 437.59375 371.765625 437.148438 C 369.207031 434.570312 366.703125 431.945312 364.261719 429.253906 C 357.371094 421.648438 350.996094 413.570312 345.117188 405.125 C 342.957031 402.027344 340.878906 398.875 338.867188 395.671875 C 329.492188 380.753906 321.726562 364.746094 315.796875 347.859375 Z M 405.125 465.132812 C 402.027344 467.289062 398.875 469.375 395.671875 471.386719 C 380.753906 480.761719 364.746094 488.527344 347.859375 494.453125 C 350.992188 481.527344 355.382812 469.09375 360.90625 457.289062 C 364.53125 455.511719 368.078125 453.617188 371.578125 451.640625 C 374.773438 449.835938 377.910156 447.949219 381 445.988281 C 389.472656 440.605469 397.53125 434.636719 405.125 428.128906 C 407.824219 425.816406 410.460938 423.4375 413.039062 420.992188 C 415.761719 418.414062 418.410156 415.761719 420.992188 413.039062 C 427.398438 420.617188 433.253906 428.664062 438.488281 437.148438 C 438.039062 437.59375 437.59375 438.039062 437.148438 438.488281 C 434.570312 441.042969 431.945312 443.546875 429.253906 445.988281 C 421.648438 452.878906 413.570312 459.253906 405.125 465.132812 Z M 494.453125 462.386719 C 481.527344 459.253906 469.09375 454.863281 457.289062 449.339844 C 455.511719 445.722656 453.617188 442.175781 451.640625 438.671875 C 449.835938 435.480469 447.949219 432.339844 445.988281 429.253906 C 440.605469 420.777344 434.636719 412.71875 428.128906 405.125 C 425.816406 402.425781 423.4375 399.789062 420.992188 397.210938 C 418.410156 394.492188 415.761719 391.835938 413.039062 389.257812 C 420.617188 382.855469 428.664062 376.996094 437.148438 371.765625 C 437.59375 372.210938 438.039062 372.65625 438.488281 373.105469 C 441.042969 375.683594 443.546875 378.308594 445.988281 381 C 452.882812 388.605469 459.253906 396.679688 465.132812 405.125 C 467.289062 408.226562 469.375 411.375 471.390625 414.578125 C 480.761719 429.496094 488.527344 445.507812 494.453125 462.386719 Z M 528.734375 286.019531 L 525.824219 291.15625 C 523.925781 291.269531 522.035156 291.402344 520.160156 291.558594 L 518.621094 291.6875 C 518.597656 291.6875 518.582031 291.691406 518.558594 291.691406 C 518.570312 291.589844 518.582031 291.492188 518.589844 291.386719 L 519.191406 284.066406 C 520.875 283.152344 522.566406 282.21875 524.261719 281.253906 C 528.234375 278.984375 532.121094 276.585938 535.949219 274.125 C 533.453125 278.023438 531.03125 281.972656 528.734375 286.019531 Z M 465.746094 247.859375 L 465.953125 249.804688 C 465.289062 250.046875 464.628906 250.300781 463.957031 250.539062 C 444.46875 257.371094 424.675781 260.832031 405.125 260.832031 C 385.570312 260.832031 365.773438 257.386719 346.273438 250.585938 L 344.308594 249.902344 C 344.375 249.246094 344.425781 248.601562 344.492188 247.941406 C 349.402344 201.425781 370.9375 157.933594 405.125 125.441406 C 439.292969 157.910156 460.824219 201.375 465.746094 247.859375 Z M 303.242188 289.023438 C 302.878906 284.734375 302.640625 280.410156 302.511719 276.058594 C 302.441406 273.671875 302.328125 271.292969 302.328125 268.886719 C 302.328125 260.332031 302.800781 251.890625 303.683594 243.5625 C 304.085938 239.75 304.566406 235.957031 305.144531 232.199219 C 313.125 180.628906 337.652344 134.464844 373.105469 99.289062 C 381.585938 104.519531 389.632812 110.375 397.210938 116.78125 C 361.925781 150.238281 338.210938 195.765625 332.832031 246.710938 C 332.445312 250.347656 332.148438 254.007812 331.953125 257.695312 C 331.757812 261.402344 331.648438 265.132812 331.648438 268.886719 C 331.648438 275.710938 332.003906 282.449219 332.640625 289.105469 C 333.007812 292.90625 333.457031 296.683594 334.023438 300.421875 C 334.066406 300.710938 334.113281 300.996094 334.160156 301.28125 C 331.171875 300.328125 328.207031 299.3125 325.265625 298.246094 C 318.175781 296.601562 310.988281 295.246094 303.683594 294.222656 C 303.5 292.5 303.386719 290.757812 303.242188 289.023438 Z M 208.011719 80.566406 C 227.726562 74.148438 248.164062 70.894531 268.886719 70.894531 C 301.246094 70.894531 333.246094 78.933594 361.757812 94.144531 C 326.714844 130.125 303.65625 174.710938 294.726562 223.726562 C 246.304688 189.074219 213.824219 135.382812 208.011719 80.566406 Z M 281.515625 286.019531 C 278.886719 281.390625 276.109375 276.863281 273.222656 272.425781 C 277.363281 275.152344 281.574219 277.792969 285.886719 280.296875 L 291.085938 283.320312 C 291.210938 285.578125 291.367188 287.8125 291.550781 290.011719 L 291.679688 291.554688 C 291.683594 291.601562 291.6875 291.648438 291.691406 291.691406 C 291.671875 291.691406 291.652344 291.6875 291.628906 291.6875 L 284.300781 291.066406 C 283.398438 289.394531 282.472656 287.714844 281.515625 286.019531 Z M 248.015625 344.480469 L 249.9375 344.277344 C 250.179688 344.945312 250.429688 345.605469 250.660156 346.269531 C 257.445312 365.75 260.886719 385.535156 260.886719 405.074219 C 260.886719 424.457031 257.296875 444.234375 250.21875 463.847656 L 249.492188 465.890625 C 248.808594 465.824219 248.128906 465.769531 247.4375 465.695312 C 201.113281 460.679688 157.800781 439.175781 125.445312 405.125 C 157.957031 370.914062 201.472656 349.378906 248.015625 344.480469 Z M 99.289062 437.148438 C 104.519531 428.664062 110.378906 420.617188 116.78125 413.039062 C 150.121094 448.199219 195.449219 471.863281 246.175781 477.351562 C 249.816406 477.75 253.476562 478.054688 257.171875 478.261719 C 261.050781 478.476562 264.957031 478.605469 268.886719 478.605469 C 275.722656 478.605469 282.46875 478.25 289.140625 477.609375 C 292.929688 477.242188 296.695312 476.796875 300.425781 476.230469 C 300.542969 476.210938 300.664062 476.203125 300.78125 476.183594 C 300.285156 477.683594 299.769531 479.183594 299.246094 480.675781 C 297.117188 489.144531 295.453125 497.785156 294.222656 506.566406 C 292.210938 506.78125 290.179688 506.914062 288.152344 507.078125 C 284.152344 507.398438 280.132812 507.621094 276.082031 507.738281 C 273.6875 507.8125 271.300781 507.921875 268.886719 507.921875 C 260.042969 507.921875 251.316406 507.398438 242.714844 506.460938 C 238.910156 506.042969 235.121094 505.546875 231.371094 504.953125 C 180.140625 496.84375 134.277344 472.410156 99.289062 437.148438 Z M 94.148438 448.492188 C 129.855469 483.269531 174.089844 506.253906 222.722656 515.320312 C 187.5625 563.683594 134.265625 596.195312 80.574219 602.148438 C 74.152344 582.433594 70.898438 562.023438 70.898438 541.363281 C 70.898438 509.007812 78.9375 477.007812 94.148438 448.492188 Z M 344.558594 562.828125 L 344.289062 560.34375 C 344.957031 560.101562 345.617188 559.847656 346.292969 559.609375 C 365.78125 552.773438 385.578125 549.308594 405.125 549.308594 C 424.863281 549.308594 444.707031 552.625 464.109375 559.160156 L 465.996094 559.796875 C 465.917969 560.605469 465.859375 561.398438 465.773438 562.210938 C 460.878906 608.765625 439.34375 652.292969 405.125 684.804688 C 371.082031 652.460938 349.574219 609.152344 344.558594 562.828125 Z M 507.003906 521.117188 C 507.34375 525.105469 507.578125 529.121094 507.714844 533.160156 C 507.808594 535.890625 507.921875 538.613281 507.921875 541.363281 C 507.921875 549.585938 507.503906 557.714844 506.691406 565.726562 C 506.269531 569.835938 505.746094 573.910156 505.121094 577.953125 C 497.160156 629.5625 472.621094 675.765625 437.148438 710.960938 C 428.667969 705.734375 420.617188 699.871094 413.039062 693.472656 C 448.347656 659.992188 472.078125 614.421875 477.4375 563.4375 C 477.835938 559.617188 478.144531 555.773438 478.335938 551.902344 C 478.511719 548.410156 478.605469 544.898438 478.605469 541.363281 C 478.605469 534.324219 478.242188 527.367188 477.5625 520.503906 C 477.207031 516.921875 476.765625 513.359375 476.230469 509.828125 C 476.179688 509.503906 476.125 509.179688 476.074219 508.851562 C 479.320312 509.890625 482.539062 511.007812 485.734375 512.179688 C 492.582031 513.746094 499.523438 515.039062 506.566406 516.027344 C 506.746094 517.714844 506.863281 519.421875 507.003906 521.117188 Z M 602.3125 729.609375 C 582.535156 736.082031 562.074219 739.355469 541.363281 739.355469 C 509.011719 739.355469 477.007812 731.316406 448.492188 716.105469 C 483.804688 679.851562 506.9375 634.867188 515.71875 585.425781 C 564.925781 619.96875 596.714844 672.957031 602.3125 729.609375 Z M 528.972656 524.261719 C 531.226562 528.214844 533.613281 532.082031 536.066406 535.898438 C 532.1875 533.410156 528.253906 531 524.230469 528.714844 L 519.09375 525.800781 C 518.976562 523.902344 518.847656 522.007812 518.6875 520.140625 L 518.578125 518.707031 C 518.574219 518.660156 518.566406 518.613281 518.5625 518.5625 C 518.640625 518.566406 518.726562 518.578125 518.804688 518.585938 L 526.15625 519.195312 C 527.066406 520.875 528 522.566406 528.972656 524.261719 Z M 559.675781 463.953125 C 552.835938 444.449219 549.363281 424.640625 549.363281 405.074219 C 549.363281 385.351562 552.675781 365.523438 559.199219 346.140625 L 559.835938 344.25 C 560.457031 344.304688 561.097656 344.351562 561.714844 344.417969 C 608.453125 349.207031 652.15625 370.769531 684.804688 405.125 C 652.328125 439.300781 608.855469 460.832031 562.363281 465.75 L 560.414062 465.957031 C 560.167969 465.289062 559.917969 464.628906 559.675781 463.953125 Z M 716.105469 448.488281 C 731.3125 477.003906 739.351562 509.007812 739.351562 541.363281 C 739.351562 561.355469 736.046875 582.054688 729.753906 601.738281 C 675.011719 595.921875 621.371094 563.625 586.695312 515.488281 C 635.648438 506.535156 680.171875 483.492188 716.105469 448.488281 Z M 747.519531 165.964844 L 757.183594 165.964844 L 760.996094 174.847656 C 773.871094 204.894531 780.398438 236.53125 780.398438 268.886719 C 780.398438 315.4375 766.976562 358.890625 743.863281 395.671875 C 741.851562 398.875 739.769531 402.027344 737.609375 405.125 C 731.730469 413.570312 725.359375 421.648438 718.464844 429.253906 C 716.023438 431.945312 713.515625 434.570312 710.960938 437.148438 C 675.820312 472.570312 629.699219 497.082031 578.1875 505.078125 C 572.625 496.21875 567.722656 486.976562 563.597656 477.414062 C 614.519531 472.023438 660.027344 448.308594 693.472656 413.039062 C 695.914062 410.460938 698.292969 407.824219 700.605469 405.125 C 707.113281 397.53125 713.082031 389.46875 718.464844 381 C 720.425781 377.910156 722.3125 374.769531 724.113281 371.578125 C 741.25 341.203125 751.082031 306.179688 751.082031 268.886719 C 751.082031 243.78125 746.589844 219.148438 737.714844 195.535156 C 669.972656 199.003906 608.292969 238.125 571.847656 293.675781 C 561.84375 292.449219 551.691406 291.746094 541.363281 291.746094 C 540.550781 291.746094 539.75 291.800781 538.9375 291.808594 C 580.730469 218.136719 660.457031 165.964844 747.519531 165.964844 Z M 751.75 405.082031 C 752.433594 404.027344 753.125 402.972656 753.789062 401.910156 C 778.871094 362.003906 792.125 316.003906 792.125 268.886719 C 792.125 234.929688 785.277344 201.738281 771.769531 170.230469 L 764.914062 154.238281 L 747.519531 154.238281 C 701.15625 154.238281 655.25 168.765625 615.574219 194.335938 C 641.027344 154.667969 655.488281 108.796875 655.488281 62.492188 L 655.488281 45 L 639.378906 38.1875 C 608.332031 25.0625 574.441406 18.121094 541.363281 18.121094 C 494.246094 18.121094 448.246094 31.375 408.335938 56.457031 L 405.082031 58.5 C 404.03125 57.816406 402.976562 57.125 401.914062 56.457031 C 362.003906 31.375 316.007812 18.121094 268.886719 18.121094 C 234.945312 18.121094 201.773438 24.957031 170.289062 38.433594 L 154.296875 45.289062 L 154.296875 62.691406 C 154.296875 108.910156 169.328125 155.019531 195.6875 195 C 155.78125 169.023438 109.488281 154.238281 62.734375 154.238281 L 45.335938 154.238281 L 38.480469 170.230469 C 24.972656 201.738281 18.125 234.929688 18.125 268.886719 C 18.125 316.003906 31.378906 362.003906 56.460938 401.910156 L 58.503906 405.167969 C 57.820312 406.222656 57.128906 407.273438 56.460938 408.335938 C 31.378906 448.246094 18.125 494.25 18.125 541.363281 C 18.125 575.242188 24.964844 608.402344 38.460938 639.90625 L 45.304688 655.914062 L 62.71875 655.914062 C 110.019531 655.914062 157.21875 640.160156 197.847656 612.632812 C 170.445312 653.261719 154.765625 700.4375 154.765625 747.707031 L 154.765625 765.195312 L 170.875 772.007812 C 202.003906 785.175781 235.902344 792.128906 268.886719 792.128906 C 316.003906 792.128906 362 778.871094 401.914062 753.792969 L 405.167969 751.75 C 406.222656 752.4375 407.277344 753.128906 408.335938 753.792969 C 448.25 778.871094 494.25 792.128906 541.363281 792.128906 C 575.253906 792.128906 608.433594 785.269531 639.976562 771.75 L 655.976562 764.894531 L 655.976562 747.496094 C 655.976562 701.136719 641.441406 655.222656 615.878906 615.542969 C 655.546875 640.996094 701.421875 655.460938 747.730469 655.460938 L 765.21875 655.460938 L 772.035156 639.359375 C 785.179688 608.285156 792.125 574.398438 792.125 541.363281 C 792.125 494.25 778.871094 448.246094 753.789062 408.335938 L 751.75 405.082031"/></g></svg>