<svg xmlns="http://www.w3.org/2000/svg" xmlns:xlink="http://www.w3.org/1999/xlink" width="810" height="810" contentScriptType="text/ecmascript" contentStyleType="text/css" preserveAspectRatio="xMidYMid meet" version="1.0" viewBox="0 0 810 810" zoomAndPan="magnify"><defs><clipPath id="clip-0"><path d="M 130.605469 19.023438 L 679.605469 19.023438 L 679.605469 790.773438 L 130.605469 790.773438 Z M 130.605469 19.023438" clip-rule="nonzero"/></clipPath></defs><path fill="#A37D4F" fill-opacity="1" fill-rule="nonzero" d="M 407.699219 432.453125 C 328.277344 432.453125 263.894531 368.117188 263.894531 288.746094 C 263.894531 209.375 328.277344 145.027344 407.699219 145.027344 C 487.132812 145.027344 551.515625 209.375 551.515625 288.746094 C 551.515625 368.117188 487.132812 432.453125 407.699219 432.453125 Z M 409.136719 90.957031 C 299.039062 90.957031 209.789062 180.140625 209.789062 290.167969 C 209.792969 400.179688 299.039062 489.371094 409.136719 489.371094 C 519.21875 489.371094 608.46875 400.179688 608.46875 290.167969 C 608.46875 180.144531 519.21875 90.957031 409.136719 90.957031"/><g clip-path="url(#clip-0)"><path fill="#A37D4F" fill-opacity="1" fill-rule="nonzero" d="M 371.621094 274.957031 C 369.367188 274.957031 353.324219 274.78125 353.324219 274.78125 C 353.324219 274.78125 327.089844 231.339844 319.59375 226.839844 C 312.097656 222.351562 164.445312 205.125 147.199219 205.863281 C 129.960938 206.621094 130.710938 220.855469 130.710938 231.339844 C 130.710938 241.824219 130.710938 353.425781 130.710938 353.425781 C 130.710938 353.425781 131.464844 369.902344 147.953125 369.902344 C 164.445312 369.902344 308.351562 358.671875 311.34375 356.429688 C 314.339844 354.183594 343.648438 316.695312 350.324219 306.242188 C 356.023438 297.296875 366.011719 299.632812 366.011719 299.632812 C 366.011719 299.632812 366.929688 319.179688 386.546875 325.746094 L 387.429688 344.65625 C 387.429688 344.65625 371.304688 357.925781 359.316406 361.664062 C 347.320312 365.414062 337.578125 380.386719 336.828125 407.351562 C 336.078125 434.324219 297.847656 723.433594 297.847656 732.410156 C 297.847656 741.398438 276.867188 788.59375 315.835938 789.339844 C 354.816406 790.089844 481.484375 790.089844 488.980469 790.089844 C 496.476562 790.089844 518.964844 799.074219 514.464844 751.894531 C 509.972656 704.699219 472.492188 387.121094 472.492188 381.875 C 472.492188 376.625 453.753906 363.152344 447.757812 361.644531 C 441.765625 360.148438 423.78125 347.410156 423.78125 347.410156 L 424.113281 328.964844 C 424.113281 328.964844 438.199219 311.957031 441.007812 303.976562 C 441.007812 303.976562 456 300.226562 460.492188 306.222656 C 464.996094 312.21875 475.484375 355.660156 509.960938 359.410156 C 544.441406 363.152344 640.375 378.132812 661.367188 375.128906 C 682.347656 372.136719 679.355469 359.410156 679.355469 348.167969 C 679.355469 336.9375 678.605469 230.570312 679.355469 228.324219 C 680.101562 226.082031 677.109375 210.351562 660.617188 210.351562 C 644.117188 210.351562 518.957031 223.828125 506.96875 226.082031 C 494.96875 228.324219 476.578125 241.28125 472.835938 248.015625 C 469.089844 254.757812 460.316406 276.015625 455.8125 276.765625 C 451.3125 277.511719 440.261719 276.910156 440.261719 276.910156 C 440.261719 276.910156 427.824219 254.695312 418.070312 253.949219 C 418.070312 253.949219 417.886719 240.886719 420.890625 238.632812 C 423.882812 236.390625 467.988281 220.59375 469.484375 200.613281 C 470.441406 187.824219 489.730469 46.320312 488.980469 37.339844 C 488.222656 28.351562 479.226562 19.359375 468.738281 19.359375 C 458.246094 19.359375 348.828125 20.117188 344.324219 19.363281 C 339.832031 18.613281 326.335938 17.117188 326.335938 39.589844 C 326.335938 62.058594 337.578125 185.644531 339.824219 195.382812 C 342.078125 205.128906 374.976562 229.210938 386.546875 237.460938 C 391.796875 241.214844 390.042969 253.058594 390.042969 253.058594 C 390.042969 253.058594 370.121094 262.980469 371.617188 274.960938"/></g><path fill="#A37D4F" fill-opacity="1" fill-rule="nonzero" d="M 444.964844 291.167969 C 444.964844 313.359375 426.894531 331.347656 404.601562 331.347656 C 382.308594 331.347656 364.238281 313.359375 364.238281 291.167969 C 364.238281 268.984375 382.308594 250.988281 404.601562 250.988281 C 426.894531 250.988281 444.964844 268.984375 444.964844 291.167969"/><path fill="#FFF" fill-opacity="1" fill-rule="nonzero" d="M 653.425781 335.417969 C 653.425781 339.523438 652.835938 344.21875 643.445312 344.21875 C 634.058594 344.21875 509.625 335.417969 506.097656 332.488281 C 502.574219 329.546875 475.574219 305.496094 475.574219 290.832031 C 475.574219 276.171875 494.359375 249.78125 503.75 246.839844 C 513.136719 243.910156 619.386719 234.527344 636.40625 235.109375 C 641.6875 235.109375 653.425781 232.179688 654.007812 246.839844 C 654.601562 261.511719 653.425781 331.304688 653.425781 335.417969 Z M 447.988281 389.375 C 453.863281 399.941406 483.214844 736.628906 484.378906 748.359375 C 485.554688 760.089844 480.863281 762.4375 473.816406 762.4375 C 466.777344 762.4375 424.511719 764.789062 408.074219 764.789062 C 391.636719 764.789062 336.46875 771.820312 323.554688 757.742188 C 310.640625 743.664062 358.769531 395.246094 362.296875 387.039062 C 365.820312 378.820312 404.339844 355.410156 407.824219 355.910156 C 416.039062 357.082031 442.125 378.820312 447.988281 389.375 Z M 361.714844 191.710938 C 360.539062 179.980469 346.449219 72.628906 347.03125 55.617188 C 347.34375 46.753906 347.613281 35.097656 357.011719 35.097656 C 366.402344 35.097656 446.230469 36.851562 450.921875 36.851562 C 455.621094 36.851562 457.96875 40.957031 457.96875 50.34375 C 457.96875 59.730469 449.164062 182.324219 443.289062 192.296875 C 437.425781 202.273438 415.125 217.523438 406.316406 217.523438 C 397.511719 217.523438 362.878906 203.445312 361.714844 191.714844 Z M 303.601562 330.722656 C 291.863281 330.722656 163.3125 344.800781 156.273438 340.695312 C 149.226562 336.59375 149.816406 338.347656 149.816406 324.863281 C 149.816406 311.363281 149.226562 239.214844 149.226562 239.214844 C 149.226562 239.214844 149.234375 229.832031 158.039062 229.242188 C 168.039062 228.574219 293.035156 238.632812 305.367188 245.667969 C 317.695312 252.710938 328.261719 279.695312 329.433594 287.3125 C 330.597656 294.9375 315.335938 330.722656 303.609375 330.722656 Z M 669.191406 351.523438 C 669.191406 340.71875 668.460938 238.457031 669.191406 236.296875 C 669.90625 234.132812 667.027344 219.003906 651.171875 219.003906 C 635.316406 219.003906 514.96875 231.972656 503.4375 234.132812 C 491.90625 236.296875 477.414062 252.097656 473.816406 258.570312 C 470.21875 265.054688 462.359375 283.105469 458.03125 283.832031 C 453.707031 284.546875 437.425781 286.148438 437.425781 286.148438 C 437.425781 286.148438 427.621094 258.882812 411.039062 259.414062 C 411.039062 259.414062 411.070312 239.039062 413.949219 236.867188 C 416.839844 234.714844 461.808594 213.925781 463.253906 201.675781 C 464.699219 189.433594 478.066406 60.160156 477.339844 51.515625 C 476.621094 42.871094 475.6875 29.226562 465.601562 29.226562 C 455.507812 29.226562 353.75 27.945312 345.855469 28.054688 C 341.480469 28.113281 335.292969 33.433594 335.292969 55.035156 C 335.292969 76.640625 347.21875 186.453125 349.382812 195.816406 C 351.542969 205.175781 382.859375 228.929688 393.996094 236.867188 C 399.039062 240.472656 397.78125 259.414062 397.78125 259.414062 C 397.78125 259.414062 377.195312 270.230469 378.640625 281.753906 C 376.476562 281.753906 347.105469 282.042969 347.105469 282.042969 C 347.105469 282.042969 324.898438 241.191406 317.691406 236.867188 C 310.476562 232.554688 174.09375 213.976562 157.523438 214.695312 C 140.949219 215.421875 141.671875 229.105469 141.671875 239.183594 L 141.671875 356.585938 C 141.671875 356.585938 141.007812 364.742188 156.859375 364.742188 C 172.714844 364.742188 306.589844 351.660156 309.46875 349.488281 C 312.347656 347.335938 340.816406 313.371094 345.859375 302.566406 C 350.914062 291.769531 370.511719 295.53125 370.511719 295.53125 C 370.511719 295.53125 378.984375 318.660156 397.003906 323.699219 L 396.222656 348.636719 C 396.222656 348.636719 381.011719 360.324219 369.347656 367.089844 C 358.886719 373.144531 346.578125 382.21875 345.859375 408.152344 C 345.140625 434.074219 309.46875 712.734375 309.46875 721.378906 C 309.46875 730.023438 296.234375 774.285156 319.679688 775.707031 C 357.089844 777.984375 478.945312 776.425781 486.148438 776.425781 C 493.355469 776.425781 502.792969 778.480469 498.46875 733.109375 C 494.144531 687.734375 462.078125 392.078125 462.078125 387.039062 C 462.078125 381.988281 452.761719 375.128906 445.640625 370.609375 C 440.640625 367.429688 415.324219 348.25 415.324219 348.25 L 414.160156 323.3125 C 414.160156 323.3125 436.84375 307.5625 436.84375 299.636719 C 436.84375 299.636719 457.628906 296.890625 463.253906 301.390625 C 474.992188 310.785156 484.390625 350.660156 507.867188 354.183594 C 540.839844 359.128906 632.074219 374.664062 652.253906 371.785156 C 672.433594 368.898438 669.191406 362.328125 669.191406 351.523438"/><path fill="#FFF" fill-opacity="1" fill-rule="nonzero" d="M 213.109375 253.085938 C 220.996094 252.753906 286.09375 252.753906 299.570312 259 C 313.054688 265.230469 320.933594 281.660156 320.601562 290.855469 C 320.28125 300.058594 306.796875 321.082031 299.902344 322.066406 C 293 323.054688 222.644531 330.285156 212.128906 326.335938 C 201.605469 322.398438 188.78125 309.921875 187.796875 306.628906 C 186.808594 303.34375 192.074219 300.714844 194.046875 302.6875 C 196.015625 304.664062 209.496094 318.460938 215.082031 319.117188 C 220.671875 319.769531 292.53125 317.070312 296.9375 315.5 C 304.488281 312.820312 313.710938 301.371094 311.734375 289.546875 C 309.757812 277.722656 302.28125 269.140625 295.628906 266.882812 C 288.714844 264.535156 216.394531 261.625 213.4375 260.972656 C 210.484375 260.308594 213.109375 253.085938 213.109375 253.085938"/><path fill="#FFF" fill-opacity="1" fill-rule="nonzero" d="M 171.6875 278.054688 C 169.71875 274.761719 158.203125 258.332031 173.988281 249.46875 C 189.769531 240.597656 198.316406 252.097656 205.546875 260.308594 C 212.78125 268.527344 231.191406 287.582031 215.082031 307.945312 C 215.082031 307.945312 206.207031 304.984375 209.496094 301.703125 C 212.78125 298.417969 217.386719 293.160156 213.769531 285.273438 C 210.148438 277.390625 189.117188 250.445312 180.238281 253.742188 C 171.359375 257.023438 173.332031 268.847656 175.632812 273.773438 C 177.933594 278.707031 171.6875 278.054688 171.6875 278.054688"/><path fill="#FFF" fill-opacity="1" fill-rule="nonzero" d="M 189.113281 271.808594 C 186.242188 276.265625 166.429688 304.332031 165.769531 315.832031 C 165.117188 327.324219 181.710938 343.292969 197.003906 327.988281 C 198.644531 326.335938 198.644531 319.769531 190.757812 323.386719 C 183.828125 326.554688 172.332031 329.195312 174.320312 314.511719 C 175.964844 302.367188 191.410156 278.707031 194.042969 277.722656 C 196.671875 276.734375 192.066406 267.207031 189.113281 271.808594"/><path fill="#FFF" fill-opacity="1" fill-rule="nonzero" d="M 266.039062 292.175781 C 266.039062 288.238281 273.265625 281.992188 286.417969 281.660156 C 299.570312 281.335938 304.507812 285.273438 304.507812 291.199219 C 304.507812 297.109375 294.308594 302.035156 288.058594 302.035156 C 281.820312 302.035156 266.691406 301.378906 266.039062 292.175781"/><path fill="#FFF" fill-opacity="1" fill-rule="nonzero" d="M 356.972656 570.375 C 353.675781 561.136719 360.277344 514.941406 360.945312 502.402344 C 361.597656 489.859375 371.019531 399.328125 372.828125 393.519531 C 376.726562 380.992188 397.917969 375.035156 405.839844 375.035156 C 413.773438 375.035156 433.652344 386.050781 436.21875 394.175781 C 439.097656 403.289062 456.628906 557.71875 455.371094 568.390625 C 454.3125 577.367188 444.808594 592.808594 440.847656 592.808594 C 436.886719 592.808594 431.59375 587.527344 435.566406 584.890625 C 439.527344 582.25 446.78125 580.265625 445.460938 555.847656 C 444.140625 531.433594 434.734375 409.398438 430.273438 397.480469 C 427.027344 388.773438 411.785156 383.621094 403.863281 383.621094 C 395.941406 383.621094 384.734375 387.328125 381.40625 396.824219 C 379.449219 402.414062 363.585938 559.152344 364.238281 569.054688 C 364.90625 578.945312 356.972656 570.375 356.972656 570.375"/><path fill="#FFF" fill-opacity="1" fill-rule="nonzero" d="M 393.953125 571.695312 C 381.40625 571.695312 343.777344 580.929688 349.714844 608.640625 C 355.660156 636.363281 386.03125 656.820312 390.660156 656.820312 C 395.273438 656.820312 400.558594 651.53125 393.300781 648.238281 C 386.03125 644.933594 359.300781 629.746094 360.277344 601.390625 C 360.945312 582.25 393.300781 579.613281 393.300781 579.613281 L 393.953125 571.695312"/><path fill="#FFF" fill-opacity="1" fill-rule="nonzero" d="M 389.339844 586.875 C 390.960938 581.980469 413.773438 573.015625 430.9375 574.988281 C 433.566406 575.300781 433.578125 581.585938 429.617188 581.585938 C 425.65625 581.585938 397.261719 586.875 395.273438 590.824219 C 393.300781 594.792969 388.671875 588.847656 389.339844 586.875"/><path fill="#FFF" fill-opacity="1" fill-rule="nonzero" d="M 425 589.503906 C 428.546875 593.066406 448.769531 611.945312 437.539062 623.820312 C 426.3125 635.699219 421.695312 629.765625 419.707031 628.445312 C 417.734375 627.117188 420.3125 625.378906 426.976562 622.503906 C 434.035156 619.457031 434.242188 610.625 431.59375 606.667969 C 428.960938 602.710938 421.695312 594.125 419.707031 593.460938 C 417.734375 592.808594 421.027344 585.542969 425 589.503906"/><path fill="#FFF" fill-opacity="1" fill-rule="nonzero" d="M 372.164062 593.460938 C 373.484375 597.429688 391.980469 612.601562 391.980469 612.601562 L 399.238281 607.988281 L 376.789062 589.503906 L 372.164062 593.460938"/><path fill="#FFF" fill-opacity="1" fill-rule="nonzero" d="M 368.199219 607.988281 C 368.199219 613.265625 370.53125 628.894531 383.746094 629.546875 C 396.949219 630.210938 419.054688 613.265625 421.695312 609.960938 C 424.335938 606.667969 419.71875 601.390625 414.425781 606.003906 C 409.144531 610.625 389.992188 625.140625 383.390625 621.183594 C 376.789062 617.222656 376.125 609.960938 376.125 609.960938 L 368.199219 607.988281"/><path fill="#FFF" fill-opacity="1" fill-rule="nonzero" d="M 457.347656 595.445312 C 456.160156 602.605469 457.046875 623.34375 450.089844 633.722656 C 444.371094 642.246094 406.503906 672.65625 393.300781 670.683594 C 380.09375 668.699219 401.222656 659.460938 405.839844 657.476562 C 410.464844 655.503906 444.234375 632.882812 446.523438 626.441406 C 451.203125 613.222656 450.746094 598.085938 450.746094 595.445312 C 450.746094 592.808594 458.667969 587.527344 457.347656 595.445312"/><path fill="#FFF" fill-opacity="1" fill-rule="nonzero" d="M 342.445312 693.117188 C 341.792969 688.492188 339.152344 669.351562 354.339844 664.074219 C 369.519531 658.796875 385.855469 665.320312 398.582031 686.515625 C 400.558594 689.8125 397.261719 699.046875 391.3125 689.8125 C 385.378906 680.574219 370.84375 665.394531 360.945312 670.015625 C 351.035156 674.628906 349.714844 690.476562 349.714844 693.113281 C 349.714844 695.753906 342.445312 693.113281 342.445312 693.113281"/><path fill="#FFF" fill-opacity="1" fill-rule="nonzero" d="M 434.242188 663.417969 C 436.886719 663.417969 468.667969 660.84375 466.589844 689.8125 C 465.933594 699.046875 447.449219 725.449219 444.140625 725.449219 C 440.847656 725.449219 436.21875 720.824219 440.179688 716.867188 C 444.140625 712.910156 461.316406 691.796875 459.332031 683.878906 C 457.347656 675.960938 447.449219 669.363281 434.898438 669.363281 L 434.242188 663.417969"/><path fill="#FFF" fill-opacity="1" fill-rule="nonzero" d="M 370.1875 680.574219 C 366.878906 683.214844 342.445312 707.628906 337.832031 722.144531 C 333.203125 736.660156 341.792969 752.507812 362.265625 745.910156 C 382.726562 739.308594 374.148438 737.324219 378.109375 737.324219 C 382.070312 737.324219 395.828125 757.367188 424.335938 743.269531 C 431.03125 739.953125 419.054688 735.339844 416.414062 739.308594 C 413.773438 743.269531 382.726562 741.949219 387.351562 731.394531 C 391.980469 720.824219 417.066406 688.492188 419.054688 688.492188 C 421.027344 688.492188 415.09375 679.253906 409.800781 686.515625 C 404.527344 693.769531 383.027344 726.851562 379.066406 726.1875 C 375.105469 725.53125 364.238281 710.925781 364.238281 710.925781 C 364.238281 710.925781 354.339844 712.253906 360.945312 718.1875 C 367.546875 724.128906 372.164062 728.742188 370.1875 734.023438 C 368.199219 739.308594 350.992188 743.714844 345.753906 738.644531 C 338.515625 731.640625 347.480469 719.175781 353.675781 710.269531 C 362.472656 697.625 375.46875 685.851562 375.46875 685.851562 L 370.1875 680.574219"/><path fill="#FFF" fill-opacity="1" fill-rule="nonzero" d="M 411.121094 716.210938 C 414.09375 720.960938 442.820312 753.160156 456.691406 749.203125 C 470.5625 745.242188 479.804688 734.6875 469.242188 714.894531 C 466.570312 709.886719 462.640625 714.226562 463.292969 720.171875 C 463.960938 726.105469 467.253906 742.605469 458.667969 742.605469 C 445.460938 742.605469 423.015625 720.824219 420.375 712.910156 C 417.734375 704.992188 407.8125 710.925781 411.121094 716.210938"/><path fill="#FFF" fill-opacity="1" fill-rule="nonzero" d="M 421.027344 668.042969 C 425.65625 668.042969 448.769531 691.128906 448.769531 691.128906 L 443.488281 695.101562 C 443.488281 695.101562 418.386719 672.003906 416.414062 672.65625 C 414.425781 673.3125 421.027344 668.042969 421.027344 668.042969"/><path fill="#FFF" fill-opacity="1" fill-rule="nonzero" d="M 405.839844 464.132812 C 401.878906 464.132812 393.300781 439.714844 392.632812 427.828125 C 391.980469 415.953125 395.273438 404.742188 407.824219 404.078125 C 420.375 403.421875 419.707031 426.511719 419.707031 430.480469 C 419.707031 434.429688 411.785156 464.132812 405.839844 464.132812"/><path fill="#FFF" fill-opacity="1" fill-rule="nonzero" d="M 600.640625 260.222656 C 597.335938 254.945312 589.410156 254.945312 582.15625 255.609375 C 574.886719 256.265625 516.777344 258.238281 510.175781 261.542969 C 503.574219 264.847656 490.359375 285.960938 491.6875 292.558594 C 493.007812 299.15625 504.226562 322.253906 514.136719 323.574219 C 524.042969 324.894531 585.449219 334.128906 596.015625 329.507812 C 606.589844 324.894531 622.433594 313.671875 623.753906 310.378906 C 625.074219 307.074219 623.089844 301.796875 615.164062 307.074219 C 607.242188 312.351562 594.695312 324.894531 589.410156 324.894531 C 584.128906 324.894531 525.363281 320.933594 518.097656 315.65625 C 510.839844 310.378906 498.945312 299.820312 499.609375 290.585938 C 500.265625 281.335938 511.808594 270.023438 517.433594 268.140625 C 523.378906 266.167969 593.375 264.183594 596.679688 264.183594 C 599.984375 264.183594 600.640625 260.222656 600.640625 260.222656"/><path fill="#FFF" fill-opacity="1" fill-rule="nonzero" d="M 643.558594 279.363281 C 645.765625 274.386719 647.523438 253.625 631.675781 251.640625 C 615.832031 249.667969 605.226562 264.535156 603.261719 266.851562 C 601.304688 269.160156 589.902344 280.558594 588.652344 288.390625 C 587.40625 296.238281 591.492188 311.550781 597.199219 312.613281 C 602.90625 313.683594 604.507812 309.765625 602.191406 305.847656 C 599.871094 301.929688 597.023438 290.179688 598.800781 285.191406 C 600.589844 280.203125 614.488281 262.574219 621.257812 259.546875 C 628.027344 256.515625 633.546875 258.125 636.582031 263.464844 C 639.609375 268.804688 636.582031 280.203125 636.230469 281.273438 C 635.867188 282.34375 641.8125 283.332031 643.558594 279.363281"/><path fill="#FFF" fill-opacity="1" fill-rule="nonzero" d="M 620.542969 275.21875 C 622.910156 276.839844 641.210938 305.316406 643.175781 310.835938 C 645.128906 316.351562 651.015625 338.796875 624.105469 337.371094 C 617.722656 337.027344 614.65625 333.984375 611.453125 330.597656 C 608.25 327.222656 614.300781 322.585938 620.363281 325.796875 C 626.425781 328.996094 631.238281 330.421875 635.160156 326.328125 C 641.003906 320.21875 638.539062 314.574219 631.945312 306.023438 C 625.355469 297.472656 614.3125 280.382812 613.949219 279.3125 C 613.597656 278.242188 617.160156 272.898438 620.542969 275.21875"/><path fill="#FFF" fill-opacity="1" fill-rule="nonzero" d="M 390.023438 75.710938 C 386.90625 77.394531 372.070312 86 368.898438 99.46875 C 366.496094 109.664062 373.296875 185.695312 375.5 188.769531 C 377.703125 191.855469 396.191406 208.574219 406.753906 208.574219 C 417.316406 208.574219 435.367188 194.929688 436.25 186.132812 C 437.132812 177.332031 444.171875 106.066406 443.738281 103.867188 C 443.289062 101.667969 434.492188 99.910156 434.492188 106.066406 C 434.492188 112.222656 430.761719 180.625 428.992188 184.582031 C 427.234375 188.542969 417.296875 200.167969 404.558594 199.773438 C 394.859375 199.460938 386.105469 190.421875 382.984375 183.492188 C 381.539062 180.28125 374.023438 108.605469 376.820312 101.230469 C 380.675781 91.078125 390.910156 83.191406 393.996094 80.550781 C 397.074219 77.910156 395.753906 72.632812 390.023438 75.710938"/><path fill="#FFF" fill-opacity="1" fill-rule="nonzero" d="M 424.367188 78.351562 C 420.40625 75.710938 393.902344 54.046875 385.625 54.15625 C 379.835938 54.234375 359.65625 54.15625 362.730469 72.191406 C 365.820312 90.230469 371.539062 84.949219 372.859375 84.511719 C 374.179688 84.070312 369.78125 73.949219 370.664062 68.230469 C 371.539062 62.511719 379.460938 58.992188 387.832031 62.074219 C 396.191406 65.15625 413.8125 81.40625 416.878906 82.3125 C 424.367188 84.511719 424.367188 78.351562 424.367188 78.351562"/><path fill="#FFF" fill-opacity="1" fill-rule="nonzero" d="M 416.878906 62.074219 C 417.316406 58.113281 427.445312 52.394531 440.660156 55.914062 C 453.863281 59.433594 448.882812 77.816406 442.851562 86.269531 C 440.304688 89.851562 417.765625 108.703125 406.753906 108.265625 C 395.753906 107.828125 391.34375 103.429688 388.269531 101.667969 C 385.191406 99.910156 391.792969 91.988281 395.316406 95.066406 C 398.832031 98.148438 406.316406 101.667969 412.917969 99.027344 C 419.523438 96.386719 438.351562 84.441406 439.773438 74.390625 C 440.824219 66.972656 442.8125 59.050781 424.316406 63.011719 L 416.878906 62.074219"/><path fill="#FFF" fill-opacity="1" fill-rule="nonzero" d="M 505.808594 292.601562 C 505.246094 298.730469 512.847656 301.835938 522.972656 301.835938 C 533.101562 301.835938 548.0625 298.316406 547.625 294.355469 C 547.1875 290.398438 534.421875 282.917969 524.292969 282.917969 C 514.167969 282.917969 506.679688 282.917969 505.808594 292.601562"/><path fill="#FFF" fill-opacity="1" fill-rule="nonzero" d="M 405.433594 194.046875 C 401.917969 194.203125 394.433594 187.015625 395.753906 174.253906 C 397.074219 161.496094 400.152344 149.621094 405.878906 149.621094 C 411.597656 149.621094 416.878906 161.941406 416.445312 172.933594 C 415.996094 183.929688 415.558594 193.613281 405.433594 194.046875"/><path fill="#FFF" fill-opacity="1" fill-rule="nonzero" d="M 439.503906 292.144531 C 439.503906 310.867188 423.878906 326.035156 404.601562 326.035156 C 385.324219 326.035156 369.699219 310.867188 369.699219 292.144531 C 369.699219 273.417969 385.324219 258.238281 404.601562 258.238281 C 423.878906 258.238281 439.503906 273.417969 439.503906 292.144531"/></svg>