<svg xmlns="http://www.w3.org/2000/svg" xmlns:xlink="http://www.w3.org/1999/xlink" width="810" height="810" contentScriptType="text/ecmascript" contentStyleType="text/css" preserveAspectRatio="xMidYMid meet" version="1.0" viewBox="0 0 810 810" zoomAndPan="magnify"><defs><clipPath id="clip-0"><path d="M 23 46.492188 L 790 46.492188 L 790 763.492188 L 23 763.492188 Z M 23 46.492188" clip-rule="nonzero"/></clipPath></defs><g clip-path="url(#clip-0)"><path fill="#A37D4F" fill-opacity="1" fill-rule="nonzero" d="M 317.554688 187.777344 L 315.964844 186.625 C 300.523438 175.46875 282.242188 169.566406 263.089844 169.566406 C 239.019531 169.566406 216.414062 178.917969 199.433594 195.898438 C 182.449219 212.871094 173.097656 235.515625 173.097656 259.652344 C 173.097656 278.269531 178.714844 296.125 189.347656 311.296875 C 189.816406 311.96875 190.296875 312.632812 190.785156 313.289062 L 189.3125 315.171875 C 161.242188 351.003906 164.34375 402.289062 196.523438 434.460938 C 213.542969 451.46875 236.1875 460.835938 260.300781 460.835938 C 280.304688 460.835938 300.007812 454.050781 315.78125 441.726562 C 316.160156 441.429688 316.53125 441.132812 316.898438 440.839844 L 317.296875 441.242188 L 399.589844 523.515625 L 407.820312 531.742188 L 416.050781 523.515625 L 497.953125 441.632812 L 499.246094 442.613281 C 514.984375 454.507812 533.757812 460.796875 553.527344 460.796875 C 577.671875 460.796875 600.324219 451.449219 617.3125 434.460938 C 648.910156 402.863281 652.410156 352.125 625.457031 316.4375 C 624.949219 315.769531 624.453125 315.125 623.960938 314.5 L 625.429688 312.472656 C 636.628906 297.027344 642.546875 278.765625 642.546875 259.652344 C 642.546875 235.515625 633.195312 212.875 616.207031 195.894531 C 599.226562 178.910156 576.574219 169.558594 552.429688 169.558594 C 533.3125 169.558594 515.042969 175.476562 499.59375 186.675781 C 499.089844 187.042969 498.59375 187.40625 498.105469 187.773438 L 497.46875 187.140625 L 446.707031 136.394531 C 479.046875 111.863281 517.253906 98.90625 557.300781 98.90625 C 603.917969 98.90625 648.316406 116.921875 682.304688 149.628906 L 682.941406 150.242188 C 717.46875 183.792969 736.730469 229.359375 737.195312 278.660156 C 737.679688 329.351562 717.542969 378.84375 681.941406 414.441406 L 406.914062 689.386719 L 128.960938 411.507812 C 58.789062 341.355469 57.664062 226.152344 126.449219 154.703125 C 160.515625 119.320312 206.609375 99.570312 256.242188 99.09375 C 256.992188 99.085938 257.71875 99.082031 258.445312 99.082031 C 299.078125 99.082031 337.5625 111.9375 369.859375 136.277344 Z M 255.808594 305.722656 L 236.464844 286.386719 C 236.050781 285.972656 235.6875 285.527344 235.296875 285.097656 L 378.988281 143.625 C 382.714844 146.808594 386.363281 150.101562 389.863281 153.605469 L 400.007812 163.75 Z M 407.390625 277.132812 L 355.097656 224.300781 L 408.175781 172.035156 L 408.238281 171.976562 L 460.410156 224.132812 Z M 616.003906 305.644531 L 595.027344 284.667969 C 599.421875 277.179688 601.8125 268.621094 601.8125 259.652344 C 601.8125 246.394531 596.699219 233.976562 587.40625 224.6875 C 578.113281 215.398438 565.695312 210.28125 552.429688 210.28125 C 543.460938 210.28125 534.898438 212.675781 527.40625 217.066406 C 524.046875 219.035156 520.894531 221.394531 518.042969 224.160156 C 517.851562 224.34375 517.644531 224.5 517.460938 224.6875 L 436.023438 306.09375 L 415.566406 285.414062 L 496.886719 204.121094 C 497.070312 203.933594 497.277344 203.777344 497.46875 203.59375 C 500.277344 200.835938 503.292969 198.367188 506.429688 196.09375 C 519.707031 186.464844 535.628906 181.195312 552.429688 181.195312 C 573.464844 181.195312 593.191406 189.332031 607.980469 204.121094 C 622.765625 218.90625 630.90625 238.621094 630.90625 259.652344 C 630.90625 276.449219 625.636719 292.367188 616.003906 305.644531 Z M 536 225.660156 C 541.105469 223.203125 546.730469 221.917969 552.429688 221.917969 C 562.578125 221.917969 572.082031 225.820312 579.175781 232.914062 C 586.269531 240.003906 590.175781 249.503906 590.175781 259.652344 C 590.175781 265.355469 588.890625 270.96875 586.429688 276.074219 Z M 527.128906 412.46875 C 534.9375 417.398438 544.003906 420.078125 553.527344 420.078125 C 566.789062 420.078125 579.210938 414.957031 588.507812 405.667969 C 605.144531 389.03125 607.390625 363.40625 595.3125 344.300781 C 593.394531 341.265625 591.148438 338.378906 588.503906 335.734375 L 587.957031 335.195312 L 505.671875 252.921875 L 525.6875 232.914062 C 525.875 232.726562 526.078125 232.566406 526.273438 232.382812 L 609.078125 315.167969 C 611.691406 317.78125 614 320.582031 616.167969 323.453125 C 639.398438 354.199219 637.089844 398.226562 609.078125 426.234375 C 594.292969 441.023438 574.5625 449.164062 553.527344 449.164062 C 536.191406 449.164062 519.789062 443.554688 506.261719 433.328125 Z M 586.808594 352.800781 C 594.59375 367.3125 592.027344 385.695312 580.277344 397.441406 C 573.179688 404.535156 563.679688 408.441406 553.527344 408.441406 C 547.238281 408.441406 541.101562 406.898438 535.628906 403.964844 Z M 346.097656 412.449219 L 407.820312 474.15625 L 559.164062 322.855469 L 579.734375 343.417969 L 407.820312 515.289062 L 325.527344 433.015625 Z M 199.433594 323.40625 L 219.214844 343.179688 C 206.339844 362.34375 208.347656 388.691406 225.328125 405.667969 C 234.964844 415.304688 247.621094 420.121094 260.28125 420.121094 C 269.902344 420.121094 279.523438 417.339844 287.824219 411.777344 C 290.453125 410.011719 292.957031 407.992188 295.28125 405.667969 L 378.53125 322.441406 L 398.992188 343.117188 L 315.851562 426.234375 C 313.550781 428.535156 311.113281 430.605469 308.613281 432.558594 C 294.460938 443.617188 277.398438 449.203125 260.300781 449.203125 C 240.1875 449.203125 220.070312 441.546875 204.757812 426.234375 C 176.410156 397.894531 174.355469 353.136719 198.472656 322.347656 C 198.804688 322.691406 199.09375 323.070312 199.433594 323.40625 Z M 279.386719 403.339844 C 273.617188 406.714844 267.0625 408.488281 260.28125 408.488281 C 250.171875 408.488281 240.683594 404.5625 233.558594 397.441406 C 221.34375 385.230469 219.023438 366.269531 227.679688 351.5625 C 240.695312 364.601562 257.945312 381.875 279.386719 403.339844 Z M 370.359375 314.15625 L 317.296875 367.199219 C 302.777344 352.664062 281.371094 331.238281 264.070312 313.917969 L 317.785156 261.035156 L 317.800781 261.054688 Z M 460.410156 405.128906 L 407.820312 457.699219 L 354.332031 404.222656 L 354.328125 404.222656 L 407.199219 351.371094 L 460.363281 405.082031 Z M 444.226562 314.347656 L 444.253906 314.320312 L 497.441406 261.152344 L 550.929688 314.628906 L 497.441406 368.105469 Z M 489.210938 376.328125 L 468.632812 396.898438 L 326.078125 252.871094 L 346.804688 232.464844 Z M 279.265625 225.472656 L 228.773438 275.1875 C 226.605469 270.335938 225.46875 265.023438 225.46875 259.652344 C 225.46875 249.503906 229.375 240.003906 236.464844 232.914062 C 243.5625 225.820312 253.0625 221.917969 263.210938 221.917969 C 268.777344 221.917969 274.265625 223.140625 279.265625 225.472656 Z M 263.210938 210.28125 C 249.953125 210.28125 237.53125 215.398438 228.238281 224.6875 C 218.945312 233.976562 213.828125 246.394531 213.828125 259.652344 C 213.828125 268.253906 216.015625 276.488281 220.070312 283.761719 C 221.96875 287.167969 224.300781 290.347656 227.003906 293.257812 C 227.421875 293.707031 309.070312 375.425781 309.070312 375.425781 L 288.5 395.992188 C 288.5 395.992188 206.761719 314.160156 206.285156 313.660156 C 203.578125 310.808594 201.101562 307.796875 198.878906 304.625 C 189.71875 291.554688 184.734375 276.019531 184.734375 259.652344 C 184.734375 238.621094 192.875 218.90625 207.664062 204.121094 C 222.957031 188.828125 243.015625 181.203125 263.089844 181.203125 C 279.265625 181.203125 295.453125 186.160156 309.148438 196.054688 L 287.976562 216.902344 C 280.554688 212.617188 272.085938 210.28125 263.210938 210.28125 Z M 710.742188 443.234375 L 406.914062 746.972656 L 100.160156 440.300781 C 14.40625 354.574219 13.035156 213.792969 97.105469 126.464844 C 138.816406 83.136719 195.191406 58.960938 255.851562 58.378906 C 256.597656 58.367188 257.355469 58.367188 258.101562 58.367188 C 310.109375 58.367188 359.3125 75.6875 399.335938 107.609375 C 402.402344 110.050781 405.414062 112.578125 408.363281 115.191406 C 411.871094 118.292969 415.324219 121.472656 418.664062 124.816406 L 489.238281 195.367188 C 489.050781 195.550781 488.84375 195.707031 488.65625 195.898438 L 468.636719 215.90625 L 398.09375 145.378906 C 394.613281 141.898438 390.996094 138.617188 387.308594 135.429688 C 384.347656 132.871094 381.324219 130.402344 378.234375 128.03125 C 343.988281 101.757812 302.375 87.449219 258.445312 87.449219 C 257.675781 87.449219 256.898438 87.453125 256.132812 87.460938 C 203.347656 87.96875 154.316406 108.980469 118.066406 146.632812 C 44.910156 222.621094 46.109375 345.132812 120.734375 419.734375 L 406.914062 705.84375 L 690.167969 422.667969 C 727.96875 384.875 749.347656 332.347656 748.832031 278.550781 C 748.332031 225.796875 727.574219 177.035156 690.378906 141.25 C 690.378906 141.246094 690.378906 141.246094 690.378906 141.246094 L 690.375 141.246094 C 652.921875 105.203125 605.183594 87.269531 557.300781 87.269531 C 515.539062 87.269531 473.660156 100.917969 438.402344 128.089844 L 426.898438 116.589844 C 423.796875 113.488281 420.613281 110.503906 417.375 107.597656 C 458.511719 74.636719 507.933594 58.09375 557.265625 58.09375 C 612.386719 58.09375 667.398438 78.765625 710.550781 120.289062 L 710.554688 120.292969 C 753.421875 161.539062 777.351562 217.644531 777.929688 278.273438 C 778.519531 339.832031 754.03125 399.960938 710.742188 443.234375 Z M 718.625 111.90625 L 715.792969 109.183594 L 715.734375 109.175781 C 672.261719 68.699219 616.144531 46.457031 557.265625 46.457031 C 504.265625 46.457031 452 64.949219 410.097656 98.519531 L 408.34375 99.921875 C 407.761719 99.449219 407.179688 98.980469 406.59375 98.515625 C 364.117188 64.636719 312.769531 46.734375 258.101562 46.734375 C 257.292969 46.734375 256.480469 46.734375 255.671875 46.746094 C 191.929688 47.355469 132.613281 72.800781 88.71875 118.398438 C 0.285156 210.253906 1.726562 358.347656 91.929688 448.527344 L 406.914062 763.425781 L 415.144531 755.199219 L 718.96875 451.460938 C 764.453125 405.992188 790.1875 342.828125 789.566406 278.160156 C 788.957031 214.382812 763.761719 155.335938 718.625 111.90625"/></g></svg>