<svg xmlns="http://www.w3.org/2000/svg" width="810" viewBox="0 0 810 810" height="810" version="1.0"><defs><clipPath id="a"><path d="M 190.191406 563.699219 L 245.398438 563.699219 L 245.398438 795.519531 L 190.191406 795.519531 Z M 190.191406 563.699219"/></clipPath><clipPath id="b"><path d="M 705.207031 122.53125 L 784.394531 122.53125 L 784.394531 281.0625 L 705.207031 281.0625 Z M 705.207031 122.53125"/></clipPath></defs><path fill="#A37D4F" d="M 330.316406 82.324219 C 337.421875 95.921875 346.351562 105.015625 360.941406 110.910156 C 374.230469 116.277344 394.746094 121.878906 407.855469 114.804688 C 414.832031 111.042969 413.832031 101.496094 407.855469 97.5 C 397.636719 90.679688 384.246094 93.925781 372.457031 92.121094 C 360.207031 90.25 346.164062 86.234375 337.382812 76.867188 C 333.777344 73.023438 328.011719 77.910156 330.316406 82.324219"/><path fill="#A37D4F" d="M 363.621094 120.683594 C 372.6875 123.996094 381.300781 127.828125 390.621094 130.503906 C 395.015625 131.765625 398.761719 129.542969 401.289062 126.160156 C 401.5 125.878906 401.710938 125.597656 401.917969 125.316406 C 403.511719 123.1875 403.046875 120.015625 401.917969 117.839844 C 401.710938 117.433594 401.5 117.027344 401.289062 116.621094 C 399.890625 113.925781 396.226562 111.625 393.132812 111.9375 C 383.671875 112.890625 374.089844 113.996094 364.625 113.265625 C 360.125 112.917969 359.871094 119.3125 363.621094 120.683594"/><path fill="#A37D4F" d="M 406.800781 111.023438 C 392.707031 116.757812 388.714844 138.429688 389.4375 151.785156 C 389.929688 160.875 404.800781 164.203125 406.351562 154.074219 C 408.535156 139.796875 408.691406 125.363281 411.320312 111.164062 C 412.695312 103.738281 401.425781 100.507812 399.910156 108.015625 C 397.175781 121.558594 396.484375 134.488281 396.179688 148.257812 C 398.917969 146.171875 401.65625 144.085938 404.390625 142 C 394.738281 137.953125 384.570312 138.382812 374.582031 135.871094 C 365.679688 133.632812 360.566406 124.464844 353.523438 119.003906 C 348.5 115.109375 340.5625 119.882812 344.179688 126.21875 C 349.140625 134.921875 355.703125 144.753906 365.171875 148.957031 C 375.625 153.597656 391.324219 155.605469 402.667969 154.75 C 406.035156 154.492188 409.328125 151.980469 409.152344 148.257812 C 408.550781 135.472656 409.871094 122.269531 411.53125 109.589844 C 407.589844 109.589844 403.644531 109.589844 399.699219 109.589844 C 398.390625 123.476562 394.351562 136.386719 389.746094 149.492188 C 395.382812 150.257812 401.023438 151.019531 406.660156 151.785156 C 406.976562 143.835938 406.808594 135.847656 407.785156 127.949219 C 408.492188 122.25 409.257812 117 407.515625 111.429688 C 407.429688 111.152344 407.101562 110.902344 406.800781 111.023438"/><path fill="#A37D4F" d="M 393.335938 67.320312 C 413.835938 72.605469 443.175781 76.070312 457.019531 55.53125 C 458.679688 53.058594 456.503906 49.1875 453.507812 49.410156 C 443.785156 50.128906 435.746094 54.824219 426.640625 57.855469 C 415.992188 61.394531 404.683594 65.566406 393.453125 66.464844 C 392.984375 66.5 392.835938 67.191406 393.335938 67.320312"/><path fill="#A37D4F" d="M 510.789062 43.867188 C 513.585938 75.59375 531.574219 96.609375 556.503906 114.859375 C 570.242188 124.914062 585.089844 133.796875 598.007812 144.933594 C 613.277344 158.113281 620.386719 171.878906 624.515625 191.304688 C 625.191406 194.460938 629.785156 193.558594 629.9375 190.566406 C 631.257812 164.429688 608.570312 138.074219 589.574219 122.707031 C 559.730469 98.574219 527.183594 82.3125 513.929688 43.441406 C 513.382812 41.84375 510.625 41.96875 510.789062 43.867188"/><path fill="#A37D4F" d="M 517.015625 540.800781 C 539.5 540.25 564.1875 522.484375 580.917969 508.445312 C 589.238281 501.464844 596.21875 492.90625 602.628906 484.132812 C 610.027344 474.019531 615.769531 458.183594 625.324219 450.449219 C 625.964844 449.929688 625.132812 448.859375 624.445312 449.304688 C 616.078125 454.769531 608.597656 458.425781 602.105469 466.09375 C 592.859375 477.023438 585.359375 486.113281 573.496094 494.5 C 554.855469 507.683594 527.527344 518.523438 516.261719 539.488281 C 515.960938 540.054688 516.335938 540.816406 517.015625 540.800781"/><path fill="#A37D4F" d="M 521.707031 539.902344 C 546.683594 537.632812 571.339844 532.722656 596.378906 530.570312 C 621.539062 528.40625 646.882812 527.714844 672.136719 528.035156 C 673.097656 528.042969 673.34375 526.523438 672.363281 526.320312 C 623.738281 516.257812 566.960938 516.351562 520.976562 537.195312 C 519.679688 537.785156 520.304688 540.03125 521.707031 539.902344"/><path fill="#A37D4F" d="M 307.644531 485.839844 C 314.074219 520.222656 344.789062 538 376.84375 545.808594 C 379.089844 546.351562 380.378906 543.324219 378.410156 542.089844 C 365.949219 534.277344 351.160156 530.925781 338.652344 523.0625 C 324.734375 514.3125 314.128906 501.035156 308.761719 485.535156 C 308.519531 484.824219 307.507812 485.105469 307.644531 485.839844"/><path fill="#A37D4F" d="M 419.160156 379.066406 C 423.117188 377.160156 426.917969 372.441406 430.015625 369.316406 C 433.386719 365.902344 437.695312 360.898438 439.800781 356.59375 C 442.207031 351.683594 436.835938 344.316406 431.460938 348.25 C 427.09375 351.445312 422.867188 357.042969 420.527344 361.9375 C 418.53125 366.121094 415.773438 372.773438 416.324219 377.4375 C 416.496094 378.898438 417.78125 379.734375 419.160156 379.066406"/><path fill="#A37D4F" d="M 440.238281 415.441406 C 439.164062 418.097656 438.433594 420.511719 437.929688 423.328125 C 437.488281 425.808594 436.59375 428.359375 437.382812 430.816406 C 438.027344 432.828125 441.082031 433.542969 442.15625 431.441406 C 443.4375 428.933594 442.988281 426.210938 442.953125 423.453125 C 442.910156 420.628906 442.542969 418.199219 441.914062 415.441406 C 441.707031 414.523438 440.53125 414.71875 440.238281 415.441406"/><path fill="#A37D4F" d="M 445.222656 420.597656 C 441.316406 422.53125 437.800781 426.488281 435.5 430.105469 C 438.234375 431.703125 440.964844 433.300781 443.695312 434.898438 C 445.761719 431.503906 448.023438 428.265625 450.632812 425.269531 C 452.199219 423.464844 454.238281 421.828125 454.238281 419.222656 C 454.238281 417.460938 453.59375 415.558594 452.0625 414.578125 C 447.558594 411.699219 444.082031 416.554688 441.792969 419.71875 C 439.414062 423.007812 437.339844 426.488281 435.5 430.105469 C 432.75 435.523438 440.8125 440.316406 443.695312 434.898438 C 445.71875 431.105469 447.429688 426.089844 447.1875 421.726562 C 447.128906 420.699219 446.132812 420.144531 445.222656 420.597656"/><path fill="#A37D4F" d="M 338.320312 248.351562 C 336.785156 257.679688 332.554688 267.71875 327.105469 275.441406 C 326.164062 276.777344 328.332031 278.46875 329.386719 277.199219 C 336.648438 268.484375 339.484375 259.707031 338.605469 248.386719 C 338.59375 248.242188 338.347656 248.179688 338.320312 248.351562"/><path fill="#A37D4F" d="M 409.039062 208.382812 C 419.324219 213.699219 428.148438 210.191406 437.515625 204.460938 C 451.828125 195.707031 462.226562 185.464844 479.386719 182.421875 C 482.3125 181.910156 483.074219 177.011719 480.253906 175.789062 C 468.515625 170.707031 457.386719 174.78125 446.445312 180.613281 C 433.824219 187.335938 421.386719 195.507812 409.039062 202.863281 C 407.066406 204.039062 406.863281 207.253906 409.039062 208.382812"/><path fill="#A37D4F" d="M 298.519531 183.1875 C 300.167969 233.722656 292.769531 280.300781 270.917969 326.125 C 251.1875 367.511719 223.558594 404.601562 197.304688 441.957031 C 171.632812 478.488281 146.769531 516.21875 129.246094 557.441406 C 111.691406 598.746094 104.789062 644.539062 106.199219 689.296875 C 106.273438 691.722656 109.910156 691.730469 109.972656 689.296875 C 111.269531 638.878906 125.890625 592.105469 150.082031 548.019531 C 172.128906 507.84375 200.722656 471.917969 226.527344 434.199219 C 251.203125 398.128906 274.222656 360.679688 288.285156 319.023438 C 303.320312 274.488281 301.382812 229.378906 298.828125 183.1875 C 298.816406 182.988281 298.511719 182.988281 298.519531 183.1875"/><path fill="#A37D4F" d="M 302.035156 345.445312 C 287.046875 375.554688 266.121094 403.394531 247.886719 431.621094 C 228.292969 461.949219 208.054688 491.847656 188.023438 521.890625 C 169.992188 548.9375 147.84375 574.8125 133.628906 604.15625 C 120.800781 630.644531 110.265625 663.945312 109.234375 693.464844 C 109.132812 696.355469 113.222656 696.675781 114.082031 694.125 C 119.234375 678.851562 120.628906 662.363281 124.507812 646.703125 C 128.738281 629.632812 135.03125 612.984375 144.089844 597.863281 C 161.09375 569.457031 186.539062 545.679688 206.394531 519.128906 C 226.804688 491.832031 244.207031 462.125 261.589844 432.851562 C 277.820312 405.511719 297.554688 377.78125 303.097656 345.894531 C 303.203125 345.292969 302.351562 344.8125 302.035156 345.445312"/><path fill="#A37D4F" d="M 596.675781 271.023438 C 588.925781 288.144531 577.609375 304.332031 566.234375 319.230469 C 565.835938 319.75 566.726562 320.441406 567.144531 319.9375 C 579.597656 304.816406 588.335938 288.6875 596.945312 271.179688 C 597.035156 271 596.761719 270.84375 596.675781 271.023438"/><path fill="#A37D4F" d="M 719.984375 180.421875 C 721.835938 166.609375 735.90625 151.996094 750.230469 161.527344 C 764.433594 170.964844 754.046875 191.925781 749.148438 203.523438 C 747.828125 206.644531 751.59375 208.847656 753.664062 206.164062 C 764.839844 191.636719 775.820312 162.320312 751.878906 152.851562 C 733.152344 145.453125 716.941406 161.824219 718.265625 180.191406 C 718.339844 181.097656 719.84375 181.457031 719.984375 180.421875"/><path fill="#A37D4F" d="M 565.992188 522.601562 C 579.0625 519.550781 588.484375 513.855469 596.363281 502.90625 C 598.605469 499.789062 593.929688 496.820312 591.347656 499.035156 C 582.683594 506.472656 574.300781 514.460938 565.429688 521.628906 C 564.945312 522.019531 565.472656 522.722656 565.992188 522.601562"/><path fill="#A37D4F" d="M 571.398438 519.644531 C 590.203125 510.75 611.402344 493.902344 617.191406 472.917969 C 617.859375 470.488281 614.535156 469.199219 613.207031 471.242188 C 607.3125 480.324219 602.964844 489.84375 595.730469 498.121094 C 588.570312 506.316406 580.101562 513.007812 570.664062 518.386719 C 569.84375 518.855469 570.566406 520.039062 571.398438 519.644531"/><path fill="#A37D4F" d="M 596.167969 498.636719 C 610.269531 484.082031 627.363281 471.769531 638.578125 454.640625 C 639.730469 452.882812 637.378906 450.378906 635.597656 451.664062 C 618.792969 463.765625 608.128906 482.160156 595.9375 498.460938 C 595.839844 498.59375 596.050781 498.753906 596.167969 498.636719"/><path fill="#A37D4F" d="M 595.828125 502.347656 C 608.5 487.539062 621.363281 473.183594 633.183594 457.667969 C 634.410156 456.054688 631.824219 454.230469 630.449219 455.554688 C 616.113281 469.339844 605.050781 484.515625 594.460938 501.292969 C 593.9375 502.113281 595.175781 503.109375 595.828125 502.347656"/><path fill="#A37D4F" d="M 589.746094 504.667969 C 598.414062 497.863281 607.273438 491.703125 615.144531 483.945312 C 621.984375 477.207031 629.246094 470.945312 632.835938 461.875 C 634.476562 457.738281 629.148438 454.65625 625.804688 456.464844 C 617.109375 461.160156 611.453125 470.097656 605.5625 477.792969 C 599.214844 486.082031 594.445312 495.230469 589.0625 504.136719 C 588.785156 504.59375 589.378906 504.953125 589.746094 504.667969"/><path fill="#A37D4F" d="M 599.566406 490.765625 C 607.832031 482.015625 616.8125 474 625.347656 465.523438 C 633.246094 457.671875 642.039062 450.726562 648.109375 441.28125 C 649.667969 438.855469 646.652344 436.265625 644.335938 437.503906 C 624.269531 448.253906 610.339844 471.078125 597.511719 489.183594 C 596.652344 490.398438 598.5625 491.832031 599.566406 490.765625"/><path fill="#A37D4F" d="M 609.933594 480.4375 C 621.890625 466.832031 636.132812 454.824219 647.152344 440.488281 C 648.484375 438.746094 645.898438 436.335938 644.167969 437.503906 C 629.054688 447.71875 617.992188 464.019531 608.339844 479.207031 C 607.726562 480.167969 609.167969 481.3125 609.933594 480.4375"/><path fill="#A37D4F" d="M 626.011719 460.390625 C 642.683594 447.175781 658.648438 432.5 671.597656 415.496094 C 672.957031 413.707031 670.148438 411.867188 668.632812 413.207031 C 652.804688 427.214844 638.660156 443.304688 624.988281 459.359375 C 624.371094 460.082031 625.285156 460.964844 626.011719 460.390625"/><path fill="#A37D4F" d="M 656.652344 428.152344 C 656.773438 428.152344 656.773438 427.960938 656.652344 427.960938 C 656.53125 427.960938 656.53125 428.152344 656.652344 428.152344"/><path fill="#A37D4F" d="M 662.921875 420.90625 C 669.773438 414.222656 676.046875 407.03125 681.738281 399.335938 C 681.960938 399.039062 681.457031 398.746094 681.238281 399.046875 C 675.644531 406.761719 669.46875 413.976562 662.71875 420.699219 C 662.585938 420.835938 662.789062 421.039062 662.921875 420.90625"/><path fill="#A37D4F" d="M 682.65625 397.136719 C 683.003906 396.101562 683.355469 395.074219 683.707031 394.046875 C 683.765625 393.867188 683.488281 393.789062 683.429688 393.964844 C 683.074219 395 682.722656 396.027344 682.375 397.058594 C 682.308594 397.234375 682.59375 397.308594 682.65625 397.136719"/><path fill="#A37D4F" d="M 688.644531 387.875 C 688.765625 387.875 688.765625 387.691406 688.644531 387.691406 C 688.519531 387.691406 688.519531 387.875 688.644531 387.875"/><path fill="#A37D4F" d="M 691.78125 382.695312 C 693.523438 381.480469 694.324219 379.511719 693.941406 377.421875 C 693.90625 377.234375 693.625 377.316406 693.660156 377.496094 C 694.019531 379.445312 693.257812 381.316406 691.640625 382.445312 C 691.480469 382.554688 691.628906 382.804688 691.78125 382.695312"/><path fill="#A37D4F" d="M 661.847656 423.957031 C 672.355469 415.589844 681.394531 405.5625 687.472656 393.472656 C 687.988281 392.449219 686.636719 391.714844 685.972656 392.59375 C 678.019531 403.101562 670.253906 413.757812 661.640625 423.753906 C 661.519531 423.898438 661.703125 424.074219 661.847656 423.957031"/><path fill="#A37D4F" d="M 677.507812 402.609375 C 685.574219 396.535156 696.421875 387.664062 698.015625 377.027344 C 698.324219 374.96875 696.074219 373.28125 694.378906 374.90625 C 690.542969 378.578125 688.476562 383.488281 685.839844 388.007812 C 683.050781 392.785156 680.136719 397.523438 676.910156 402.011719 C 676.664062 402.355469 677.164062 402.871094 677.507812 402.609375"/><path fill="#A37D4F" d="M 673.371094 405.445312 C 682.867188 394.273438 693.898438 383.609375 699.570312 369.84375 C 705.0625 356.488281 706.824219 340.066406 705.640625 325.765625 C 705.464844 323.664062 702.039062 322.800781 701.65625 325.226562 C 699.59375 338.125 700.054688 351.261719 696.242188 363.925781 C 691.71875 378.949219 681.199219 391.929688 672.6875 404.914062 C 672.421875 405.324219 673.046875 405.824219 673.371094 405.445312"/><path fill="#A37D4F" d="M 436.46875 213.757812 C 436.277344 213.78125 436.082031 213.808594 435.882812 213.835938 C 435.164062 213.929688 434.605469 214.675781 434.410156 215.3125 C 432.839844 220.335938 432.097656 226.113281 433.828125 231.183594 C 435.34375 235.632812 438.265625 242.167969 443.75 241.96875 C 445.171875 241.914062 447.027344 240.882812 447.246094 239.300781 C 447.710938 235.9375 446.714844 234.648438 444.855469 231.933594 C 443.15625 229.433594 441.828125 226.519531 440.609375 223.75 C 439.988281 222.335938 439.492188 220.875 439.128906 219.371094 C 438.828125 218.140625 439.050781 216.382812 438.480469 215.3125 C 438.085938 214.5625 437.480469 213.621094 436.46875 213.757812"/><path fill="#A37D4F" d="M 341.507812 256.839844 C 337.664062 262.226562 333.976562 267.34375 331.019531 273.269531 C 329.996094 275.316406 332.699219 276.800781 334.027344 275.027344 C 337.996094 269.730469 340.921875 264.152344 344.015625 258.308594 C 344.902344 256.632812 342.582031 255.339844 341.507812 256.839844"/><path fill="#A37D4F" d="M 346.492188 326.644531 C 350.011719 324.453125 353.402344 322.105469 356.585938 319.453125 C 360.484375 316.203125 363.777344 311.121094 367.988281 308.40625 C 366.332031 306.746094 364.675781 305.085938 363.019531 303.429688 C 356.007812 315.648438 340.636719 318.464844 329.75 326.039062 C 328.140625 327.160156 328.777344 329.492188 330.730469 329.652344 C 344.46875 330.757812 357.675781 327.492188 366.96875 316.84375 C 369.675781 313.742188 365.550781 309.601562 362.453125 312.328125 C 353.601562 320.105469 342.777344 326.007812 330.730469 325.773438 C 330.902344 327.042969 331.074219 328.3125 331.246094 329.582031 C 345.238281 324.054688 361.433594 321.472656 369.292969 307.097656 C 371.90625 302.320312 363.746094 299.246094 362.652344 304.296875 C 360.941406 312.1875 351.347656 320.238281 345.4375 325.277344 C 344.683594 325.917969 345.664062 327.164062 346.492188 326.644531"/><path fill="#A37D4F" d="M 445.667969 254.273438 C 452.25 256.152344 462.101562 253.347656 468.253906 250.792969 C 474.183594 248.324219 484.035156 243.457031 485.164062 236.527344 C 485.507812 234.378906 484.289062 232.355469 481.941406 232.300781 C 475.734375 232.148438 469.882812 237.992188 464.652344 240.964844 C 461.601562 242.699219 458.671875 244.632812 455.511719 246.179688 C 452.066406 247.871094 448.304688 248.757812 445.253906 251.089844 C 444.113281 251.964844 444.105469 253.828125 445.667969 254.273438"/><path fill="#A37D4F" d="M 592.121094 266.527344 C 588.097656 278.253906 583.851562 289.949219 579.589844 301.589844 C 578.917969 303.429688 581.941406 304.730469 582.773438 302.933594 C 588.164062 291.285156 592.117188 279.847656 595.199219 267.378906 C 595.699219 265.367188 592.785156 264.59375 592.121094 266.527344"/><path fill="#A37D4F" d="M 643.375 122.394531 C 650.460938 139.394531 646.878906 155.960938 641.195312 172.71875 C 639.976562 176.308594 644.976562 179.070312 647.5 176.390625 C 662.445312 160.515625 658.984375 136.820312 646.042969 120.839844 C 645.066406 119.636719 642.769531 120.9375 643.375 122.394531"/><path fill="#A37D4F" d="M 483.660156 16.378906 C 474.035156 45.136719 450.847656 69.773438 421.941406 79.480469 C 420.171875 80.074219 420.882812 82.6875 422.714844 82.28125 C 455.679688 75.035156 480.445312 50.65625 486.175781 17.074219 C 486.457031 15.433594 484.199219 14.757812 483.660156 16.378906"/><path fill="#A37D4F" d="M 391.109375 86.535156 C 377.835938 92.246094 363.003906 84.90625 356.320312 72.726562 C 350.167969 61.523438 349.472656 48.015625 349.4375 35.503906 C 349.4375 34.191406 347.460938 34.199219 347.40625 35.503906 C 346.769531 51.261719 347.75 68.988281 359.976562 80.585938 C 368.472656 88.644531 380.480469 91.980469 391.257812 86.785156 C 391.429688 86.703125 391.277344 86.460938 391.109375 86.535156"/><path fill="#A37D4F" d="M 320.40625 62.347656 C 332.695312 88.957031 359.207031 107.054688 388.84375 106.675781 C 391.144531 106.648438 391.011719 103.453125 388.84375 103.191406 C 361.046875 99.84375 336.921875 85.417969 322.410156 61.175781 C 321.628906 59.871094 319.789062 61.011719 320.40625 62.347656"/><path fill="#A37D4F" d="M 412.398438 115.132812 C 406.894531 146.316406 405.320312 178.101562 402.785156 209.625 C 401.882812 220.84375 401.042969 228.742188 405.429688 238.957031 C 413.050781 256.6875 407.421875 267.992188 400.886719 284.824219 C 399.519531 288.347656 405.070312 289.734375 406.484375 286.371094 C 410.882812 275.914062 415.160156 262.289062 414.785156 250.839844 C 414.683594 247.804688 413.976562 245.488281 412.707031 242.773438 C 408.441406 233.652344 405.113281 229.445312 405.539062 218.765625 C 406.917969 184.148438 413.007812 149.941406 412.824219 115.1875 C 412.824219 114.953125 412.441406 114.882812 412.398438 115.132812"/><path fill="#A37D4F" d="M 414.085938 214.855469 C 420.433594 218.734375 425.949219 214.0625 430.613281 209.507812 C 443.492188 196.917969 453.261719 185.152344 472.429688 183.257812 C 473.703125 183.132812 473.765625 181.238281 472.429688 181.222656 C 462.339844 181.128906 453.472656 185.472656 445.351562 191.207031 C 436.589844 197.386719 425.472656 213.375 414.414062 213.636719 C 413.765625 213.648438 413.527344 214.511719 414.085938 214.855469"/><path fill="#A37D4F" d="M 442.207031 215.042969 C 431.921875 231.339844 443.261719 246.566406 456.980469 255.875 C 457.804688 256.4375 458.945312 255.3125 458.367188 254.484375 C 453.902344 248.070312 446.855469 245.597656 443.855469 237.632812 C 441.183594 230.53125 440.992188 222.683594 443 215.378906 C 443.132812 214.894531 442.46875 214.625 442.207031 215.042969"/><path fill="#A37D4F" d="M 449.449219 258.859375 C 462.425781 253.042969 482.902344 245.160156 488.742188 230.769531 C 489.1875 229.679688 487.648438 229.0625 486.925781 229.710938 C 475.078125 240.308594 461.574219 248.535156 449.359375 258.746094 C 449.292969 258.804688 449.378906 258.890625 449.449219 258.859375"/><path fill="#A37D4F" d="M 453.050781 256.773438 C 450.144531 258.703125 447.234375 260.625 444.308594 262.519531 C 442.921875 263.421875 444.128906 265.445312 445.597656 264.726562 C 454.8125 260.21875 463.40625 254.132812 471.78125 248.246094 C 471.046875 247.511719 470.308594 246.777344 469.570312 246.039062 C 467.09375 251.5625 463.375 255.191406 457.808594 257.554688 C 458.542969 258.503906 459.273438 259.457031 460.011719 260.410156 C 467.945312 254.269531 474.96875 247.664062 480.90625 239.546875 C 481.421875 238.835938 480.351562 238.164062 479.765625 238.664062 C 472.308594 245.03125 465.054688 251.664062 457.441406 257.839844 C 455.714844 259.234375 457.917969 261.472656 459.640625 260.691406 C 465.59375 258.003906 469.820312 253.6875 472.363281 247.667969 C 472.902344 246.386719 471.632812 244.382812 470.152344 245.457031 C 461.78125 251.566406 452.878906 256.742188 444.308594 262.519531 C 444.824219 263.191406 445.339844 263.859375 445.855469 264.523438 C 448.382812 262.117188 450.933594 259.722656 453.488281 257.34375 C 453.789062 257.0625 453.394531 256.542969 453.050781 256.773438"/><path fill="#A37D4F" d="M 313.625 181.1875 C 326.074219 191.523438 335.390625 205.046875 341.335938 220.046875 C 346.703125 233.585938 349.097656 248.195312 355.40625 261.386719 C 366.089844 283.726562 389.605469 297.945312 411.070312 308.453125 C 412.648438 309.226562 413.996094 307 412.460938 306.070312 C 400.195312 298.667969 387.359375 291.726562 377.101562 281.535156 C 364.152344 268.671875 358.210938 253.070312 352.644531 236.046875 C 344.988281 212.640625 333.808594 195.476562 313.886719 180.847656 C 313.6875 180.703125 313.433594 181.03125 313.625 181.1875"/><path fill="#A37D4F" d="M 424.1875 313.1875 C 432.898438 317.917969 438.65625 325.464844 442.324219 334.535156 C 442.699219 335.460938 444.132812 335.128906 443.863281 334.109375 C 441.242188 324.273438 433.542969 316.710938 424.296875 312.921875 C 424.148438 312.859375 424.046875 313.109375 424.1875 313.1875"/><path fill="#A37D4F" d="M 441.257812 354.269531 C 432.777344 359.296875 427.519531 370.527344 426.699219 379.996094 C 426.578125 381.402344 428.8125 382.027344 429.40625 380.730469 C 431.535156 376.082031 433.320312 371.332031 435.382812 366.667969 C 437.226562 362.492188 439.832031 358.648438 441.363281 354.347656 C 441.386719 354.289062 441.3125 354.238281 441.257812 354.269531"/><path fill="#A37D4F" d="M 433.941406 360.207031 C 426.4375 367.644531 423.9375 377.558594 425.265625 387.929688 C 426.269531 395.78125 429.660156 407.46875 438.589844 409.261719 C 441.019531 409.746094 442.90625 406.917969 441.0625 405.015625 C 428.707031 392.238281 429.511719 376.601562 434.425781 360.488281 C 434.511719 360.207031 434.140625 360.003906 433.941406 360.207031"/><path fill="#A37D4F" d="M 440.371094 423.308594 C 438.980469 427.074219 436.796875 430.796875 434.722656 434.226562 C 432.769531 437.460938 429.992188 438.933594 427.359375 441.542969 C 423.96875 444.902344 428.476562 451.210938 432.601562 448.335938 C 437.226562 445.113281 440.371094 446.734375 445.28125 447.878906 C 447.636719 448.433594 450.304688 447.378906 449.527344 444.390625 C 448.667969 441.101562 443.714844 439.359375 440.84375 438.789062 C 436.449219 437.90625 432.136719 438.746094 428.238281 440.863281 C 430.207031 442.839844 432.183594 444.8125 434.152344 446.785156 C 436.363281 443.441406 437.335938 439.183594 438.863281 435.472656 C 440.5 431.488281 440.917969 427.679688 441.371094 423.445312 C 441.433594 422.835938 440.558594 422.808594 440.371094 423.308594"/><path fill="#A37D4F" d="M 449.570312 458.101562 C 447.65625 466.257812 444.757812 476.839844 449.21875 484.6875 C 454.609375 494.183594 468.652344 492.195312 473.613281 502.097656 C 474.03125 502.929688 475.28125 502.335938 475.074219 501.480469 C 473.511719 495.074219 468.992188 492.472656 463.214844 489.996094 C 455.410156 486.648438 451.183594 483.015625 450.816406 473.976562 C 450.601562 468.777344 450.515625 463.433594 450.570312 458.234375 C 450.574219 457.671875 449.703125 457.535156 449.570312 458.101562"/><path fill="#A37D4F" d="M 441.359375 402.695312 C 452.246094 405.46875 465.257812 406.90625 475.519531 401.449219 C 476.496094 400.933594 476.09375 399.175781 474.933594 399.285156 C 463.546875 400.363281 453.050781 403.273438 441.4375 402.125 C 441.109375 402.09375 441.050781 402.617188 441.359375 402.695312"/><path fill="#A37D4F" d="M 447.855469 441.894531 C 456.417969 432.730469 462.765625 421.996094 470.230469 411.960938 C 470.695312 411.335938 469.726562 410.699219 469.207031 411.167969 C 459.773438 419.632812 455.835938 432.269531 447.746094 441.785156 C 447.679688 441.859375 447.789062 441.96875 447.855469 441.894531"/><path fill="#A37D4F" d="M 441.878906 422.222656 C 446.25 417.28125 451.496094 414.894531 457.304688 412.121094 C 458.089844 411.742188 457.503906 410.648438 456.746094 410.792969 C 450.511719 411.980469 445.09375 416.910156 441.417969 421.871094 C 441.222656 422.136719 441.65625 422.46875 441.878906 422.222656"/><path fill="#A37D4F" d="M 469.066406 483.621094 C 480.582031 497.21875 480.734375 511.167969 482.503906 527.875 C 483.179688 534.28125 484.363281 539.847656 489.3125 544.386719 C 503.082031 557.019531 529.710938 552.683594 545.910156 550.675781 C 575.453125 547.023438 601.292969 539.722656 630.914062 549.242188 C 657.691406 557.847656 683.769531 571.316406 707.546875 586.203125 C 708.777344 586.976562 710.289062 585.117188 709.132812 584.152344 C 691.316406 569.328125 668.839844 559.285156 647.460938 550.640625 C 625.53125 541.765625 603.832031 537.691406 580.269531 541.367188 C 565.289062 543.703125 550.285156 549.1875 535.152344 550.113281 C 523.167969 550.851562 505.382812 550.078125 494.910156 543.550781 C 482.003906 535.496094 486.925781 517.898438 483.609375 505.410156 C 481.199219 496.328125 476.582031 489.25 469.472656 483.207031 C 469.191406 482.964844 468.820312 483.332031 469.066406 483.621094"/><path fill="#A37D4F" d="M 644.832031 433.269531 C 672.71875 405.242188 712.050781 363.296875 700.066406 319.984375 C 699.859375 319.25 698.832031 319.574219 698.949219 320.292969 C 705.65625 363.671875 673.726562 404.25 644.722656 433.160156 C 644.652344 433.234375 644.757812 433.34375 644.832031 433.269531"/><path fill="#A37D4F" d="M 701.941406 337.695312 C 701.03125 357.359375 684.628906 381.074219 674.257812 397.527344 C 663.914062 413.9375 651.34375 428.355469 636.734375 441.070312 C 610.964844 463.488281 580.484375 480.027344 555.703125 503.585938 C 555.003906 504.25 555.949219 505.546875 556.757812 504.957031 C 587.496094 482.433594 620.46875 460.949219 647.507812 433.917969 C 660.984375 420.445312 671.890625 405.230469 681.1875 388.609375 C 689.675781 373.445312 701.882812 355.574219 702.085938 337.695312 C 702.085938 337.597656 701.945312 337.601562 701.941406 337.695312"/><path fill="#A37D4F" d="M 338.09375 273.972656 C 327.480469 286.535156 314.609375 297.613281 312 314.730469 C 311.960938 315.003906 312.371094 315.125 312.421875 314.84375 C 315.445312 298.226562 328.578125 287.148438 338.707031 274.585938 C 339.054688 274.160156 338.457031 273.539062 338.09375 273.972656"/><path fill="#A37D4F" d="M 344.285156 255.738281 C 338.0625 277.742188 312.867188 288.121094 309.867188 311.460938 C 309.761719 312.261719 311.15625 312.460938 311.292969 311.65625 C 315.257812 288.285156 343.867188 280.210938 345 255.835938 C 345.019531 255.421875 344.394531 255.355469 344.285156 255.738281"/><path fill="#A37D4F" d="M 319.957031 286.851562 C 315.878906 293.265625 312.5625 300.640625 311.617188 308.246094 C 311.554688 308.734375 312.367188 308.835938 312.472656 308.359375 C 314.160156 300.726562 316.195312 293.800781 320.203125 286.996094 C 320.300781 286.835938 320.054688 286.691406 319.957031 286.851562"/><path fill="#A37D4F" d="M 321.226562 286.570312 C 317.210938 295.054688 313.203125 304.375 311.851562 313.714844 C 311.707031 314.703125 313.113281 315.160156 313.390625 314.140625 C 315.925781 304.820312 317.765625 295.660156 321.359375 286.625 C 321.390625 286.550781 321.261719 286.496094 321.226562 286.570312"/><path fill="#A37D4F" d="M 316.066406 293.550781 C 313.28125 302.898438 311.777344 311.949219 312.523438 321.691406 C 312.59375 322.613281 313.96875 322.636719 313.976562 321.691406 C 314.058594 312.292969 314.453125 302.839844 316.207031 293.585938 C 316.226562 293.496094 316.09375 293.460938 316.066406 293.550781"/><path fill="#A37D4F" d="M 363.953125 291.535156 C 365.328125 293.359375 366.578125 295.316406 367.667969 297.324219 C 367.847656 297.65625 368.332031 297.363281 368.171875 297.03125 C 367.125 294.894531 365.875 293.050781 364.292969 291.273438 C 364.132812 291.09375 363.800781 291.339844 363.953125 291.535156"/><path fill="#A37D4F" d="M 347.5 323.859375 C 352.007812 320.78125 357.402344 319.628906 362.050781 316.789062 C 365.210938 314.851562 369.796875 311.714844 369.875 307.683594 C 369.890625 306.785156 368.871094 305.839844 367.945312 306.21875 C 365.929688 307.039062 365.515625 308.011719 363.96875 309.6875 C 362.128906 311.675781 359.996094 313.277344 357.703125 314.707031 C 353.800781 317.140625 349.996094 319.664062 346.972656 323.175781 C 346.667969 323.527344 347.0625 324.15625 347.5 323.859375"/><path fill="#A37D4F" d="M 362.554688 289.660156 C 364.460938 292.917969 365.8125 296.964844 367.207031 300.476562 C 367.515625 301.253906 368.777344 300.914062 368.46875 300.132812 C 367.769531 298.367188 367.078125 296.558594 366.160156 294.898438 C 365.128906 293.046875 363.757812 291.402344 362.6875 289.582031 C 362.636719 289.496094 362.503906 289.570312 362.554688 289.660156"/><path fill="#A37D4F" d="M 354.660156 322.179688 C 361.746094 321.082031 374.0625 318.285156 376.804688 310.554688 C 377.34375 309.035156 375.714844 307.699219 374.304688 308.050781 C 370.703125 308.960938 367.664062 312.511719 364.757812 314.714844 C 361.425781 317.238281 358.101562 319.582031 354.382812 321.515625 C 353.988281 321.71875 354.285156 322.238281 354.660156 322.179688"/><path fill="#A37D4F" d="M 266.765625 114.0625 C 306.773438 146.152344 313.542969 213.074219 311.3125 260.707031 C 308.902344 312.09375 291.023438 359.734375 264.730469 403.476562 C 218.660156 480.125 152.925781 543.949219 116.988281 626.789062 C 116.257812 628.46875 118.691406 629.960938 119.492188 628.25 C 161.453125 538.71875 236.628906 470.875 282.242188 383.605469 C 305.804688 338.519531 319.027344 289.042969 317.863281 237.984375 C 316.90625 196.046875 309.386719 134.523438 268.347656 112.011719 C 267.105469 111.332031 265.5625 113.097656 266.765625 114.0625"/><path fill="#A37D4F" d="M 290.820312 407.949219 C 275.859375 474.398438 222.417969 521.601562 178.007812 569.429688 C 138.519531 611.96875 96.246094 666.144531 99.898438 727.6875 C 100.097656 731.058594 104.871094 731.039062 105.121094 727.6875 C 110.476562 655.960938 154.847656 604.851562 201.933594 554.507812 C 241.726562 511.964844 279.738281 466.75 291.382812 408.105469 C 291.453125 407.742188 290.902344 407.585938 290.820312 407.949219"/><g clip-path="url(#a)"><path fill="#A37D4F" d="M 244.898438 563.859375 C 199.183594 631.378906 167.476562 718.289062 211.71875 794.875 C 212.5625 796.335938 214.757812 795.042969 213.976562 793.554688 C 174.199219 717.953125 203.230469 631.703125 245.027344 563.929688 C 245.074219 563.851562 244.953125 563.78125 244.898438 563.859375"/></g><path fill="#A37D4F" d="M 240.335938 242.183594 C 242.816406 331.847656 185.457031 405.140625 132.488281 471.554688 C 86.71875 528.945312 25.457031 599.859375 45.496094 679.042969 C 45.75 680.042969 47.257812 679.617188 47.035156 678.621094 C 26.988281 588.285156 106.425781 509.601562 156.742188 444.546875 C 202.09375 385.914062 244.273438 319.25 240.625 242.183594 C 240.617188 241.996094 240.332031 241.996094 240.335938 242.183594"/><path fill="#A37D4F" d="M 323.621094 94.703125 C 331.226562 129.445312 359.800781 169.503906 400.921875 154.859375 C 403.265625 154.023438 402.285156 150.902344 399.917969 151.222656 C 379.308594 154.003906 360.878906 149.535156 346.152344 134.328125 C 334.96875 122.785156 331.761719 107.988281 323.75 94.648438 C 323.707031 94.574219 323.601562 94.621094 323.621094 94.703125"/><path fill="#A37D4F" d="M 361.550781 172.855469 C 368.636719 176.777344 378.3125 178.742188 386.21875 176.515625 C 388.148438 175.972656 387.824219 172.871094 385.734375 172.949219 C 381.964844 173.085938 378.21875 173.699219 374.445312 173.769531 C 370.1875 173.855469 365.957031 173.023438 361.773438 172.324219 C 361.46875 172.277344 361.242188 172.683594 361.550781 172.855469"/><path fill="#A37D4F" d="M 509.332031 51.15625 C 515.050781 75.039062 523.847656 95.25 541.148438 113 C 542.285156 114.167969 543.859375 112.46875 542.894531 111.257812 C 528.867188 93.65625 516.425781 72.671875 511.148438 50.652344 C 510.867188 49.472656 509.046875 49.972656 509.332031 51.15625"/><path fill="#A37D4F" d="M 523.523438 92.714844 C 538.492188 108.871094 553.730469 120.824219 573.695312 130.355469 C 596.640625 141.308594 621.375 152.558594 628.894531 179.226562 C 629.523438 181.449219 632.554688 180.453125 632.253906 178.296875 C 629.273438 156.914062 612.972656 143.8125 594.644531 134.574219 C 569.660156 121.972656 544.46875 112.082031 523.636719 92.609375 C 523.5625 92.539062 523.457031 92.640625 523.523438 92.714844"/><path fill="#A37D4F" d="M 626.894531 137.503906 C 641.625 166.574219 637.898438 200.835938 619.785156 227.507812 C 618.820312 228.929688 621.0625 230.691406 622.179688 229.355469 C 644.480469 202.660156 646.121094 166.175781 628.648438 136.472656 C 627.980469 135.339844 626.304688 136.339844 626.894531 137.503906"/><path fill="#A37D4F" d="M 606.621094 166.46875 C 615.03125 183.816406 615.53125 199.734375 604.917969 215.976562 C 603.742188 217.773438 606.292969 219.496094 607.769531 218.179688 C 623.183594 204.390625 616.53125 181.226562 606.996094 166.25 C 606.847656 166.011719 606.503906 166.21875 606.621094 166.46875"/><path fill="#A37D4F" d="M 656.75 167.855469 C 655.652344 170.402344 654.5625 172.953125 653.464844 175.496094 C 653.335938 175.785156 653.742188 175.960938 653.859375 175.667969 C 654.867188 173.082031 655.878906 170.496094 656.886719 167.910156 C 656.917969 167.835938 656.785156 167.78125 656.75 167.855469"/><path fill="#A37D4F" d="M 663.410156 153.109375 C 663.128906 160.636719 660.953125 168.851562 657.960938 175.75 C 657.382812 177.085938 659.242188 178.273438 659.96875 176.921875 C 664.203125 169.085938 665.136719 161.78125 663.835938 153.050781 C 663.796875 152.796875 663.417969 152.875 663.410156 153.109375"/><path fill="#A37D4F" d="M 647.363281 153.105469 C 647.847656 157.109375 648.070312 161.082031 647.8125 165.113281 C 647.558594 169.140625 646.4375 173.097656 646.375 177.117188 C 646.339844 179.136719 649.195312 179.402344 649.792969 177.578125 C 652.253906 170.125 650.519531 160.417969 648.933594 152.894531 C 648.746094 152.027344 647.253906 152.203125 647.363281 153.105469"/><path fill="#A37D4F" d="M 672.433594 162.289062 C 670.882812 166.429688 668.585938 170.871094 667.785156 175.21875 C 667.574219 176.347656 669.195312 177.242188 669.777344 176.054688 C 671.761719 172 672.589844 167.007812 673.835938 162.671875 C 674.09375 161.761719 672.757812 161.425781 672.433594 162.289062"/><g clip-path="url(#b)"><path fill="#A37D4F" d="M 707.273438 162.636719 C 702.359375 132.75 737.128906 118.980469 759.808594 132.570312 C 780.121094 144.738281 783.34375 167.679688 775.847656 188.613281 C 764.03125 221.621094 740.792969 250.121094 720.789062 278.363281 C 719.566406 280.089844 722.203125 281.953125 723.636719 280.566406 C 744.082031 260.835938 759.542969 236.128906 771.9375 210.730469 C 782.125 189.863281 791.109375 165.519531 777.425781 144.097656 C 767.5 128.5625 748.703125 119.550781 730.445312 123.960938 C 712.648438 128.265625 702.0625 145.125 706.292969 162.90625 C 706.449219 163.558594 707.371094 163.269531 707.273438 162.636719"/></g><path fill="#A37D4F" d="M 697.710938 293.367188 C 699.535156 293.183594 701.269531 292.78125 702.996094 292.15625 C 703.789062 291.867188 704.636719 291.582031 705.378906 291.164062 C 706.179688 290.703125 706.683594 289.910156 707.234375 289.183594 C 708.113281 288.007812 706.453125 286.695312 705.34375 287.296875 C 704.730469 287.632812 704.078125 287.886719 703.523438 288.308594 C 702.890625 288.785156 702.390625 289.425781 701.75 289.90625 C 700.488281 290.847656 699.011719 291.542969 697.539062 292.082031 C 696.902344 292.320312 696.929688 293.445312 697.710938 293.367188"/><path fill="#A37D4F" d="M 419.597656 355.53125 C 416.652344 357.757812 413.605469 360.058594 411.5 363.148438 C 409.382812 366.253906 409.09375 369.875 409.796875 373.492188 C 410.023438 374.675781 411.609375 374.667969 412.183594 373.804688 C 413.78125 371.394531 415.476562 369.046875 416.617188 366.375 C 417.921875 363.316406 419.167969 360.46875 421.535156 358.039062 C 422.75 356.796875 421.09375 354.40625 419.597656 355.53125"/><path fill="#A37D4F" d="M 736.222656 139.234375 C 744.855469 137.390625 751.242188 144.140625 756.183594 150.183594 C 761.222656 156.347656 764.972656 163.425781 762.828125 171.570312 C 762.582031 172.496094 763.960938 173.148438 764.414062 172.242188 C 768.609375 163.875 764.078125 155.988281 758.277344 149.675781 C 752.636719 143.539062 745.144531 136.507812 736.183594 139.097656 C 736.09375 139.121094 736.128906 139.257812 736.222656 139.234375"/><path fill="#A37D4F" d="M 705.558594 233.253906 C 710.042969 241.089844 718.273438 245.402344 727.199219 243.691406 C 728.480469 243.445312 728.199219 241.320312 726.894531 241.40625 C 719.15625 241.917969 711.308594 238.953125 706.691406 232.589844 C 706.207031 231.925781 705.136719 232.507812 705.558594 233.253906"/><path fill="#A37D4F" d="M 690.609375 271.417969 C 691.226562 273.582031 692.007812 275.683594 692.980469 277.710938 C 693.886719 279.628906 695.070312 282.101562 697.128906 282.976562 C 698.648438 283.617188 700.664062 282.546875 700.109375 280.675781 C 699.53125 278.695312 697.835938 277.320312 696.488281 275.832031 C 695.015625 274.207031 693.746094 272.445312 692.597656 270.574219 C 691.964844 269.539062 690.261719 270.203125 690.609375 271.417969"/><path fill="#A37D4F" d="M 775.863281 289.640625 C 772.988281 312.464844 772.917969 334.957031 775.085938 357.839844 C 775.230469 359.394531 777.605469 359.457031 777.550781 357.839844 C 776.808594 335.125 777.15625 312.351562 778.035156 289.640625 C 778.09375 288.207031 776.035156 288.292969 775.863281 289.640625"/><path fill="#A37D4F" d="M 279.996094 230.820312 C 281.703125 241.835938 283.414062 252.855469 285.121094 263.871094 C 285.136719 263.972656 285.285156 263.925781 285.273438 263.832031 C 283.5625 252.816406 281.855469 241.796875 280.144531 230.78125 C 280.128906 230.683594 279.980469 230.726562 279.996094 230.820312"/><path fill="#A37D4F" d="M 287.171875 295.875 C 287.066406 313.953125 285.320312 331.789062 281.914062 349.550781 C 281.898438 349.640625 282.039062 349.679688 282.054688 349.589844 C 285.460938 331.816406 287.210938 313.976562 287.316406 295.875 C 287.320312 295.78125 287.171875 295.78125 287.171875 295.875"/><path fill="#A37D4F" d="M 229.90625 116.753906 C 290.761719 159.832031 288.519531 239.660156 275.304688 304.84375 C 275.046875 306.113281 276.957031 306.664062 277.261719 305.386719 C 293.167969 238.992188 289.914062 160.070312 229.984375 116.621094 C 229.90625 116.558594 229.828125 116.691406 229.90625 116.753906"/><path fill="#A37D4F" d="M 201.507812 176.355469 C 210.976562 226.820312 204.859375 276.234375 191.046875 325.21875 C 190.195312 328.25 194.574219 329.308594 195.667969 326.492188 C 214.269531 278.558594 214.191406 225.578125 202.910156 175.96875 C 202.699219 175.050781 201.339844 175.445312 201.507812 176.355469"/><path fill="#A37D4F" d="M 243.558594 304.082031 C 225.648438 357.898438 200.542969 409.445312 168.542969 456.292969 C 140.347656 497.566406 103.0625 541.523438 102.777344 594.332031 C 102.761719 596.820312 106.273438 596.683594 106.550781 594.332031 C 113.496094 535.105469 151.015625 493.203125 181.875 444.773438 C 209.664062 401.160156 230.3125 354.046875 244.257812 304.277344 C 244.382812 303.820312 243.707031 303.644531 243.558594 304.082031"/><path fill="#A37D4F" d="M 304.335938 380.03125 C 299.375 427.972656 287.109375 475.335938 266.460938 518.945312 C 250.742188 552.144531 229.207031 586.570312 232.625 624.792969 C 232.78125 626.535156 235.40625 626.597656 235.382812 624.792969 C 234.742188 579.339844 260.546875 542.808594 277.335938 502.34375 C 293.59375 463.160156 302.84375 422.347656 305.203125 380.03125 C 305.238281 379.464844 304.390625 379.484375 304.335938 380.03125"/><path fill="#A37D4F" d="M 249.828125 668.167969 C 253.488281 710.976562 286.09375 746.183594 324.566406 762.625 C 343.601562 770.757812 367.371094 773.542969 384.589844 759.695312 C 397.519531 749.296875 402.070312 732.503906 395.355469 717.378906 C 394.957031 716.484375 393.441406 717.121094 393.761719 718.050781 C 402.332031 742.707031 382.125 762.300781 358.511719 764.488281 C 340.050781 766.199219 321.929688 758.042969 306.597656 748.519531 C 277.675781 730.546875 254.425781 702.703125 249.972656 668.167969 C 249.960938 668.074219 249.820312 668.070312 249.828125 668.167969"/><path fill="#A37D4F" d="M 250 637.417969 C 254.382812 663.25 272.609375 711.03125 308.378906 694.054688 C 317.5 689.722656 327.847656 676.882812 321.351562 666.335938 C 315.765625 657.273438 303.164062 660.164062 295.453125 664.265625 C 294.386719 664.832031 295.125 666.703125 296.292969 666.253906 C 299.441406 665.046875 306.234375 661.898438 309.324219 662.878906 C 312.742188 667.785156 316.164062 672.6875 319.585938 677.585938 C 317.753906 680.464844 315.925781 683.34375 314.09375 686.222656 C 304.625 695.75 288.835938 695.601562 278.015625 688.820312 C 260.15625 677.621094 254.382812 656.738281 250.421875 637.304688 C 250.363281 637.027344 249.953125 637.148438 250 637.417969"/><path fill="#A37D4F" d="M 373.933594 22.777344 C 383.855469 45.699219 412.695312 56.457031 435.570312 48.082031 C 437.140625 47.507812 436.535156 45.214844 434.875 45.5625 C 411.015625 50.523438 389.707031 41.054688 375.4375 21.898438 C 374.761719 20.992188 373.484375 21.742188 373.933594 22.777344"/><path fill="#A37D4F" d="M 388.441406 58.242188 C 393.058594 63.253906 399.058594 65.671875 405.859375 64.84375 C 406.9375 64.710938 407.007812 63.054688 405.859375 63.101562 C 399.863281 63.339844 393.699219 61.476562 389.058594 57.628906 C 388.628906 57.273438 388.054688 57.828125 388.441406 58.242188"/><path fill="#A37D4F" d="M 526.886719 49.269531 C 535.894531 69.523438 550.472656 85.144531 571.226562 93.292969 C 573.3125 94.113281 574.636719 90.777344 572.738281 89.710938 C 554.984375 79.753906 539.058594 65.871094 528.894531 48.097656 C 528.132812 46.773438 526.296875 47.933594 526.886719 49.269531"/><path fill="#A37D4F" d="M 592.347656 271.570312 C 580.78125 305.367188 544.746094 329.398438 546.808594 367.792969 C 546.859375 368.71875 548.238281 368.734375 548.261719 367.792969 C 549.09375 330.113281 582.523438 306.210938 592.90625 271.726562 C 593.015625 271.367188 592.46875 271.21875 592.347656 271.570312"/><path fill="#A37D4F" d="M 463.726562 500.875 C 481.578125 532.753906 440.230469 548.898438 417.78125 555.859375 C 402.285156 560.667969 388.535156 566.898438 376.40625 577.925781 C 354.363281 597.984375 341.992188 626.449219 342.839844 656.214844 C 342.851562 656.679688 343.570312 656.683594 343.566406 656.214844 C 343.269531 635.128906 349.316406 614.785156 361.5625 597.535156 C 376.546875 576.429688 397.628906 566.492188 421.640625 558.949219 C 445.9375 551.316406 485.203125 531.402344 464.851562 500.21875 C 464.394531 499.519531 463.308594 500.140625 463.726562 500.875"/><path fill="#A37D4F" d="M 303.804688 465.167969 C 305.695312 503.976562 338.167969 532.71875 374.554688 541.1875 C 376.507812 541.640625 377.152344 538.960938 375.367188 538.242188 C 341.546875 524.691406 306.367188 506.457031 303.957031 465.167969 C 303.953125 465.0625 303.796875 465.0625 303.804688 465.167969"/><path fill="#A37D4F" d="M 487.578125 394.167969 C 488.714844 395.644531 489.421875 397.289062 489.667969 399.140625 C 489.726562 399.59375 490.445312 399.609375 490.394531 399.140625 C 490.179688 397.136719 489.519531 395.355469 488.332031 393.726562 C 488 393.273438 487.238281 393.726562 487.578125 394.167969"/><path fill="#A37D4F" d="M 569.816406 525.5 C 571.363281 523.953125 572.910156 522.40625 574.460938 520.855469 C 574.527344 520.789062 574.421875 520.6875 574.359375 520.75 C 572.808594 522.296875 571.261719 523.851562 569.714844 525.398438 C 569.648438 525.464844 569.75 525.566406 569.816406 525.5"/><path fill="#A37D4F" d="M 608.71875 482.328125 C 610.472656 480.074219 612.867188 478.132812 614.90625 476.128906 C 614.972656 476.0625 614.867188 475.957031 614.800781 476.027344 C 612.800781 478.0625 610.855469 480.464844 608.609375 482.21875 C 608.527344 482.28125 608.65625 482.40625 608.71875 482.328125"/></svg>