<svg xmlns="http://www.w3.org/2000/svg" xmlns:xlink="http://www.w3.org/1999/xlink" width="810" height="810" contentScriptType="text/ecmascript" contentStyleType="text/css" preserveAspectRatio="xMidYMid meet" version="1.0" viewBox="0 0 810 810" zoomAndPan="magnify"><defs><clipPath id="clip-0"><path d="M 243 261.261719 L 567 261.261719 L 567 548.511719 L 243 548.511719 Z M 243 261.261719" clip-rule="nonzero"/></clipPath></defs><path fill="#A37D4F" fill-opacity="1" fill-rule="nonzero" d="M 343.125 88.648438 C 340.367188 89.140625 337.734375 87.296875 337.25 84.53125 L 325.730469 19.230469 C 325.246094 16.472656 327.089844 13.84375 329.847656 13.359375 C 332.609375 12.867188 335.242188 14.710938 335.726562 17.472656 L 347.246094 82.773438 C 347.730469 85.53125 345.886719 88.164062 343.125 88.648438"/><path fill="#A37D4F" fill-opacity="1" fill-rule="nonzero" d="M 366.484375 221.117188 C 363.726562 221.601562 361.085938 219.757812 360.601562 217 L 349.089844 151.699219 C 348.605469 148.941406 350.449219 146.300781 353.207031 145.816406 C 355.972656 145.332031 358.601562 147.175781 359.085938 149.933594 L 370.597656 215.234375 C 371.082031 218 369.242188 220.632812 366.484375 221.117188"/><path fill="#A37D4F" fill-opacity="1" fill-rule="nonzero" d="M 280.429688 182.886719 C 278.003906 184.28125 274.894531 183.457031 273.496094 181.027344 L 207.171875 66.148438 C 205.765625 63.71875 206.601562 60.617188 209.03125 59.21875 C 211.460938 57.8125 214.558594 58.640625 215.957031 61.070312 L 282.28125 175.949219 C 283.6875 178.378906 282.851562 181.480469 280.429688 182.886719"/><path fill="#A37D4F" fill-opacity="1" fill-rule="nonzero" d="M 41.542969 133.4375 C 39.933594 135.734375 36.769531 136.289062 34.472656 134.679688 L -19.847656 96.652344 C -22.140625 95.042969 -22.695312 91.882812 -21.089844 89.585938 C -19.480469 87.289062 -16.316406 86.726562 -14.019531 88.335938 L 40.292969 126.363281 C 42.589844 127.972656 43.152344 131.144531 41.542969 133.4375"/><path fill="#A37D4F" fill-opacity="1" fill-rule="nonzero" d="M 151.726562 210.585938 C 150.117188 212.882812 146.949219 213.4375 144.652344 211.835938 L 90.339844 173.800781 C 88.042969 172.191406 87.488281 169.03125 89.089844 166.734375 C 90.699219 164.4375 93.863281 163.875 96.164062 165.484375 L 150.476562 203.519531 C 152.773438 205.128906 153.328125 208.292969 151.726562 210.585938"/><path fill="#A37D4F" fill-opacity="1" fill-rule="nonzero" d="M 261.90625 287.738281 C 260.296875 290.03125 257.132812 290.59375 254.835938 288.984375 L 200.523438 250.949219 C 198.230469 249.339844 197.667969 246.179688 199.277344 243.882812 C 200.882812 241.585938 204.046875 241.03125 206.34375 242.640625 L 260.664062 280.667969 C 262.960938 282.277344 263.515625 285.441406 261.90625 287.738281"/><path fill="#A37D4F" fill-opacity="1" fill-rule="nonzero" d="M 174.019531 321.554688 C 173.300781 324.265625 170.511719 325.867188 167.808594 325.140625 L 39.675781 290.8125 C 36.972656 290.085938 35.363281 287.300781 36.089844 284.597656 C 36.816406 281.886719 39.597656 280.277344 42.308594 281.003906 L 170.433594 315.335938 C 173.144531 316.0625 174.742188 318.84375 174.019531 321.554688"/><path fill="#A37D4F" fill-opacity="1" fill-rule="nonzero" d="M 102.601562 432.152344 C 103.09375 434.910156 101.25 437.542969 98.484375 438.027344 L 33.183594 449.546875 C 30.429688 450.03125 27.796875 448.1875 27.3125 445.429688 C 26.820312 442.667969 28.664062 440.035156 31.425781 439.550781 L 96.726562 428.03125 C 99.484375 427.546875 102.117188 429.390625 102.601562 432.152344"/><path fill="#A37D4F" fill-opacity="1" fill-rule="nonzero" d="M 235.070312 408.792969 C 235.554688 411.550781 233.710938 414.191406 230.953125 414.675781 L 165.652344 426.1875 C 162.894531 426.679688 160.257812 424.835938 159.773438 422.070312 C 159.289062 419.304688 161.128906 416.683594 163.886719 416.191406 L 229.1875 404.679688 C 231.953125 404.195312 234.585938 406.027344 235.070312 408.792969"/><path fill="#A37D4F" fill-opacity="1" fill-rule="nonzero" d="M 196.839844 494.847656 C 198.238281 497.273438 197.402344 500.382812 194.980469 501.78125 L 80.101562 568.105469 C 77.671875 569.511719 74.570312 568.675781 73.171875 566.246094 C 71.765625 563.816406 72.59375 560.71875 75.023438 559.320312 L 189.902344 492.996094 C 192.332031 491.589844 195.433594 492.425781 196.839844 494.847656"/><path fill="#A37D4F" fill-opacity="1" fill-rule="nonzero" d="M 147.394531 733.734375 C 149.6875 735.34375 150.242188 738.507812 148.632812 740.804688 L 110.605469 795.117188 C 108.996094 797.410156 105.835938 797.972656 103.539062 796.363281 C 101.242188 794.757812 100.679688 791.59375 102.289062 789.296875 L 140.316406 734.984375 C 141.925781 732.6875 145.097656 732.125 147.394531 733.734375"/><path fill="#A37D4F" fill-opacity="1" fill-rule="nonzero" d="M 224.542969 623.550781 C 226.835938 625.160156 227.390625 628.320312 225.792969 630.625 L 187.753906 684.9375 C 186.148438 687.234375 182.984375 687.789062 180.6875 686.1875 C 178.390625 684.578125 177.828125 681.414062 179.4375 679.113281 L 217.472656 624.800781 C 219.082031 622.503906 222.246094 621.949219 224.542969 623.550781"/><path fill="#A37D4F" fill-opacity="1" fill-rule="nonzero" d="M 301.691406 513.371094 C 303.988281 514.980469 304.546875 518.144531 302.941406 520.441406 L 264.90625 574.753906 C 263.296875 577.046875 260.132812 577.609375 257.835938 576 C 255.539062 574.394531 254.984375 571.230469 256.59375 568.933594 L 294.621094 514.613281 C 296.230469 512.324219 299.394531 511.761719 301.691406 513.371094"/><path fill="#A37D4F" fill-opacity="1" fill-rule="nonzero" d="M 335.507812 601.25 C 338.210938 601.976562 339.820312 604.765625 339.09375 607.46875 L 304.765625 735.601562 C 304.042969 738.3125 301.253906 739.914062 298.550781 739.1875 C 295.839844 738.460938 294.230469 735.679688 294.957031 732.96875 L 329.292969 604.84375 C 330.019531 602.132812 332.796875 600.535156 335.507812 601.25"/><path fill="#A37D4F" fill-opacity="1" fill-rule="nonzero" d="M 469.460938 805.136719 C 472.226562 804.652344 474.855469 806.496094 475.339844 809.253906 L 486.851562 874.550781 C 487.34375 877.316406 485.496094 879.949219 482.738281 880.433594 C 479.980469 880.917969 477.347656 879.074219 476.855469 876.316406 L 465.34375 811.015625 C 464.859375 808.261719 466.703125 805.628906 469.460938 805.136719"/><path fill="#A37D4F" fill-opacity="1" fill-rule="nonzero" d="M 446.109375 672.675781 C 448.863281 672.183594 451.496094 674.035156 451.980469 676.792969 L 463.5 742.09375 C 463.984375 744.847656 462.140625 747.480469 459.386719 747.972656 C 456.621094 748.457031 453.988281 746.613281 453.503906 743.851562 L 441.984375 678.550781 C 441.5 675.792969 443.34375 673.160156 446.109375 672.675781"/><path fill="#A37D4F" fill-opacity="1" fill-rule="nonzero" d="M 422.746094 540.207031 C 425.503906 539.722656 428.144531 541.566406 428.628906 544.324219 L 440.140625 609.625 C 440.632812 612.382812 438.789062 615.019531 436.023438 615.503906 C 433.261719 615.988281 430.636719 614.144531 430.144531 611.390625 L 418.632812 546.089844 C 418.148438 543.324219 419.984375 540.691406 422.746094 540.207031"/><path fill="#A37D4F" fill-opacity="1" fill-rule="nonzero" d="M 508.800781 578.445312 C 511.230469 577.039062 514.335938 577.875 515.734375 580.296875 L 582.058594 695.175781 C 583.457031 697.605469 582.628906 700.707031 580.199219 702.105469 C 577.773438 703.511719 574.671875 702.683594 573.273438 700.253906 L 506.949219 585.375 C 505.542969 582.945312 506.378906 579.84375 508.800781 578.445312"/><path fill="#A37D4F" fill-opacity="1" fill-rule="nonzero" d="M 747.6875 627.882812 C 749.296875 625.589844 752.460938 625.035156 754.757812 626.644531 L 809.070312 664.671875 C 811.367188 666.277344 811.929688 669.441406 810.320312 671.738281 C 808.710938 674.035156 805.546875 674.597656 803.25 672.988281 L 748.9375 634.960938 C 746.644531 633.351562 746.082031 630.1875 747.6875 627.882812"/><path fill="#A37D4F" fill-opacity="1" fill-rule="nonzero" d="M 637.503906 550.734375 C 639.113281 548.441406 642.277344 547.886719 644.578125 549.484375 L 698.890625 587.523438 C 701.1875 589.128906 701.742188 592.292969 700.140625 594.589844 C 698.53125 596.886719 695.367188 597.449219 693.066406 595.839844 L 638.753906 557.804688 C 636.457031 556.195312 635.902344 553.03125 637.503906 550.734375"/><path fill="#A37D4F" fill-opacity="1" fill-rule="nonzero" d="M 527.324219 473.585938 C 528.933594 471.289062 532.097656 470.730469 534.394531 472.335938 L 588.707031 510.371094 C 591 511.980469 591.5625 515.144531 589.957031 517.441406 C 588.347656 519.738281 585.183594 520.292969 582.886719 518.683594 L 528.566406 480.65625 C 526.277344 479.046875 525.71875 475.882812 527.324219 473.585938"/><path fill="#A37D4F" fill-opacity="1" fill-rule="nonzero" d="M 615.207031 439.769531 C 615.933594 437.066406 618.71875 435.457031 621.421875 436.183594 L 749.554688 470.511719 C 752.265625 471.234375 753.867188 474.015625 753.140625 476.726562 C 752.414062 479.4375 749.632812 481.046875 746.925781 480.320312 L 618.796875 445.984375 C 616.089844 445.257812 614.488281 442.480469 615.207031 439.769531"/><path fill="#A37D4F" fill-opacity="1" fill-rule="nonzero" d="M 686.628906 329.167969 C 686.136719 326.414062 687.980469 323.78125 690.746094 323.296875 L 756.046875 311.777344 C 758.804688 311.292969 761.433594 313.136719 761.925781 315.890625 C 762.410156 318.65625 760.566406 321.289062 757.804688 321.773438 L 692.503906 333.292969 C 689.746094 333.777344 687.113281 331.933594 686.628906 329.167969"/><path fill="#A37D4F" fill-opacity="1" fill-rule="nonzero" d="M 554.160156 352.53125 C 553.675781 349.773438 555.519531 347.132812 558.277344 346.648438 L 623.578125 335.136719 C 626.335938 334.652344 628.976562 336.496094 629.460938 339.253906 C 629.945312 342.015625 628.101562 344.648438 625.335938 345.132812 L 560.042969 356.644531 C 557.277344 357.128906 554.644531 355.292969 554.160156 352.53125"/><path fill="#A37D4F" fill-opacity="1" fill-rule="nonzero" d="M 592.398438 266.476562 C 590.992188 264.046875 591.828125 260.941406 594.25 259.542969 L 709.128906 193.21875 C 711.558594 191.8125 714.660156 192.648438 716.058594 195.078125 C 717.464844 197.503906 716.636719 200.605469 714.207031 202.003906 L 599.328125 268.328125 C 596.898438 269.734375 593.796875 268.898438 592.398438 266.476562"/><path fill="#A37D4F" fill-opacity="1" fill-rule="nonzero" d="M 641.839844 27.589844 C 639.542969 25.980469 638.988281 22.816406 640.597656 20.519531 L 678.625 -33.800781 C 680.234375 -36.097656 683.394531 -36.652344 685.691406 -35.042969 C 687.988281 -33.433594 688.550781 -30.269531 686.941406 -27.972656 L 648.914062 26.339844 C 647.304688 28.632812 644.140625 29.195312 641.839844 27.589844"/><path fill="#A37D4F" fill-opacity="1" fill-rule="nonzero" d="M 564.691406 137.773438 C 562.394531 136.164062 561.839844 132.992188 563.441406 130.699219 L 601.476562 76.386719 C 603.085938 74.089844 606.246094 73.535156 608.542969 75.136719 C 610.839844 76.746094 611.402344 79.910156 609.792969 82.210938 L 571.757812 136.523438 C 570.148438 138.820312 566.984375 139.375 564.691406 137.773438"/><path fill="#A37D4F" fill-opacity="1" fill-rule="nonzero" d="M 487.539062 247.953125 C 485.246094 246.34375 484.683594 243.179688 486.292969 240.882812 L 524.328125 186.570312 C 525.933594 184.273438 529.097656 183.714844 531.394531 185.320312 C 533.691406 186.929688 534.246094 190.09375 532.636719 192.390625 L 494.609375 246.710938 C 493 249 489.835938 249.558594 487.539062 247.953125"/><path fill="#A37D4F" fill-opacity="1" fill-rule="nonzero" d="M 453.722656 160.070312 C 451.019531 159.34375 449.410156 156.558594 450.136719 153.855469 L 484.464844 25.722656 C 485.191406 23.019531 487.96875 21.410156 490.679688 22.136719 C 493.390625 22.863281 495 25.644531 494.273438 28.351562 L 459.941406 156.480469 C 459.214844 159.1875 456.433594 160.789062 453.722656 160.070312"/><g clip-path="url(#clip-0)"><path fill="#A37D4F" fill-opacity="1" fill-rule="nonzero" d="M 484.953125 323.273438 L 508.425781 280.59375 L 542.621094 323.273438 Z M 479.03125 338.035156 L 542.695312 338.035156 L 426.734375 494.34375 Z M 332.628906 338.035156 L 383.910156 495.226562 L 267.296875 338.035156 Z M 324.277344 323.273438 L 267.371094 323.273438 L 301.113281 281.160156 Z M 336.921875 315.617188 L 315.179688 276.085938 L 358.660156 276.085938 Z M 404.996094 314.921875 L 383.636719 276.085938 L 426.355469 276.085938 Z M 451.332031 276.085938 L 494.050781 276.085938 L 472.691406 314.921875 Z M 417.257812 323.273438 L 438.84375 284.03125 L 460.425781 323.273438 Z M 412.382812 338.035156 L 463.457031 338.035156 L 412.382812 490.6875 Z M 349.566406 323.273438 L 371.148438 284.03125 L 392.734375 323.273438 Z M 397.609375 338.035156 L 397.609375 489.585938 L 348.167969 338.035156 Z M 511.914062 261.324219 L 298.078125 261.324219 L 243 330.074219 L 404.996094 548.4375 L 566.992188 330.074219 L 511.914062 261.324219"/></g></svg>