<svg xmlns="http://www.w3.org/2000/svg" xmlns:xlink="http://www.w3.org/1999/xlink" width="810" height="810" contentScriptType="text/ecmascript" contentStyleType="text/css" preserveAspectRatio="xMidYMid meet" version="1.0" viewBox="0 0 810 810" zoomAndPan="magnify"><defs><clipPath id="clip-0"><path d="M 7.082031 7.082031 L 801 7.082031 L 801 799 L 7.082031 799 Z M 7.082031 7.082031" clip-rule="nonzero"/></clipPath></defs><g clip-path="url(#clip-0)"><path fill="#A37D4F" fill-opacity="1" fill-rule="evenodd" d="M 589.738281 558.6875 C 601.644531 515.867188 608.753906 468.246094 610.078125 417.652344 L 419.769531 417.652344 L 419.769531 544.636719 C 486.402344 545.460938 542.78125 550.421875 589.738281 558.6875 Z M 580.316406 589.277344 C 536.003906 581.671875 482.765625 577.042969 419.769531 576.378906 L 419.769531 765.695312 C 486.070312 756.269531 546.089844 688.316406 580.316406 589.277344 Z M 218.054688 558.6875 C 265.011719 550.421875 321.390625 545.460938 388.023438 544.636719 L 388.023438 417.652344 L 197.71875 417.652344 C 199.039062 468.246094 206.148438 515.867188 218.054688 558.6875 Z M 227.480469 589.277344 C 261.703125 688.316406 321.722656 756.269531 388.023438 765.695312 L 388.023438 576.378906 C 325.03125 577.042969 271.789062 581.671875 227.480469 589.277344 Z M 95.867188 597.710938 C 107.441406 591.261719 123.316406 584.152344 143.816406 577.207031 C 157.042969 572.742188 171.261719 568.773438 186.804688 565.136719 C 174.570312 519.832031 167.296875 470.066406 165.972656 417.652344 L 39.15625 417.652344 C 41.96875 483.789062 62.46875 545.296875 95.867188 597.710938 Z M 114.222656 624.164062 C 158.035156 680.875 218.054688 724.523438 287.332031 747.839844 C 249.140625 712.125 217.558594 659.214844 196.0625 595.558594 C 180.6875 599.03125 166.800781 603 153.902344 607.300781 C 137.699219 612.753906 124.636719 618.375 114.222656 624.164062 Z M 711.925781 597.710938 C 745.324219 545.296875 765.828125 483.789062 768.636719 417.652344 L 641.820312 417.652344 C 640.5 470.066406 633.222656 519.832031 620.988281 565.136719 C 636.53125 568.773438 650.75 572.742188 663.976562 577.207031 C 684.480469 584.152344 700.351562 591.261719 711.925781 597.710938 Z M 693.574219 624.164062 C 683.15625 618.375 670.09375 612.753906 653.890625 607.300781 C 640.996094 603 627.105469 599.03125 611.730469 595.558594 C 590.234375 659.214844 558.65625 712.125 520.460938 747.839844 C 589.738281 724.523438 649.757812 680.875 693.574219 624.164062 Z M 589.738281 244.871094 C 542.78125 253.140625 486.402344 258.101562 419.769531 258.925781 L 419.769531 385.910156 L 610.078125 385.910156 C 608.753906 335.3125 601.644531 287.695312 589.738281 244.871094 Z M 580.316406 214.285156 C 546.089844 115.246094 486.070312 47.292969 419.769531 37.867188 L 419.769531 227.179688 C 482.765625 226.519531 536.003906 221.890625 580.316406 214.285156 Z M 218.054688 244.871094 C 206.148438 287.695312 199.039062 335.3125 197.71875 385.910156 L 388.023438 385.910156 L 388.023438 258.925781 C 321.390625 258.101562 265.011719 253.140625 218.054688 244.871094 Z M 227.480469 214.285156 C 271.789062 221.890625 325.03125 226.519531 388.023438 227.179688 L 388.023438 37.867188 C 321.722656 47.292969 261.703125 115.246094 227.480469 214.285156 Z M 95.867188 205.851562 C 62.46875 258.265625 41.96875 319.773438 39.15625 385.910156 L 165.972656 385.910156 C 167.296875 333.496094 174.570312 283.726562 186.804688 238.425781 C 171.261719 234.789062 157.042969 230.820312 143.816406 226.355469 C 123.316406 219.410156 107.441406 212.300781 95.867188 205.851562 Z M 114.222656 179.398438 C 124.636719 185.183594 137.699219 190.804688 153.902344 196.261719 C 166.800781 200.5625 180.6875 204.53125 196.0625 208.003906 C 217.558594 144.347656 249.140625 91.4375 287.332031 55.722656 C 218.054688 79.035156 158.035156 122.6875 114.222656 179.398438 Z M 711.925781 205.851562 C 700.351562 212.300781 684.480469 219.410156 663.976562 226.355469 C 650.75 230.820312 636.53125 234.789062 620.988281 238.425781 C 633.222656 283.726562 640.5 333.496094 641.820312 385.910156 L 768.636719 385.910156 C 765.828125 319.773438 745.324219 258.265625 711.925781 205.851562 Z M 693.574219 179.398438 C 649.757812 122.6875 589.738281 79.035156 520.460938 55.722656 C 558.65625 91.4375 590.234375 144.347656 611.730469 208.003906 C 627.105469 204.53125 640.996094 200.5625 653.890625 196.261719 C 670.09375 190.804688 683.15625 185.183594 693.574219 179.398438 Z M 403.898438 798.597656 C 184.820312 798.597656 7.082031 620.855469 7.082031 401.78125 C 7.082031 182.703125 184.820312 4.964844 403.898438 4.964844 C 622.972656 4.964844 800.714844 182.703125 800.714844 401.78125 C 800.714844 620.855469 622.972656 798.597656 403.898438 798.597656 Z M 403.898438 798.597656"/></g></svg>