<?xml version="1.0" encoding="UTF-8"?><svg xmlns="http://www.w3.org/2000/svg" xmlns:xlink="http://www.w3.org/1999/xlink" contentScriptType="text/ecmascript" width="810" zoomAndPan="magnify" contentStyleType="text/css" viewBox="0 0 810 809.999993" height="809.999993" preserveAspectRatio="xMidYMid meet" version="1.0"><defs><clipPath id="clip-0"><path d="M 47 47 L 703 47 L 703 741 L 47 741 Z M 47 47 " clip-rule="nonzero"/></clipPath><clipPath id="clip-1"><path d="M 0 230.671875 L 230.695312 -0.0234375 L 809.816406 579.097656 L 579.121094 809.792969 Z M 0 230.671875 " clip-rule="nonzero"/></clipPath><clipPath id="clip-2"><path d="M 0 230.671875 L 230.695312 -0.0234375 L 809.816406 579.097656 L 579.121094 809.792969 Z M 0 230.671875 " clip-rule="nonzero"/></clipPath></defs><g clip-path="url(#clip-0)"><g clip-path="url(#clip-1)"><g clip-path="url(#clip-2)"><path fill="rgb(63.919067%, 49.01886%, 30.979919%)" d="M 255.078125 51.699219 C 215.066406 38.039062 170.699219 60.058594 151.183594 85.242188 C 143.167969 95.585938 142.8125 106.824219 146.277344 116.132812 C 136.464844 111.359375 126.894531 118.578125 123.3125 121.824219 C 123.246094 121.757812 123.207031 121.722656 123.207031 121.722656 C 123.207031 121.722656 110.035156 133.753906 116.074219 146.167969 C 106.761719 142.707031 95.523438 143.0625 85.183594 151.078125 C 59.996094 170.59375 37.976562 214.957031 51.644531 254.972656 C 65.308594 294.992188 108.988281 335.335938 162.183594 327.820312 C 192.75 323.5 221.574219 303.554688 240.582031 287.359375 C 239.589844 288.605469 238.648438 289.828125 237.785156 291.003906 C 228.667969 303.457031 238.445312 315.90625 246.339844 314.902344 C 254.234375 313.902344 260.238281 302.785156 266.574219 307.5625 C 271.0625 310.945312 271.195312 315.105469 270.898438 317.25 L 269.519531 318.625 C 268.507812 319.636719 268.503906 321.28125 269.515625 322.292969 C 270.535156 323.308594 272.175781 323.304688 273.1875 322.292969 L 275.925781 319.554688 C 280.917969 323.183594 283.675781 329.730469 284.777344 332.929688 L 275.128906 342.578125 C 274.085938 343.625 274.085938 345.316406 275.128906 346.359375 L 280.90625 352.136719 C 281.949219 353.179688 283.644531 353.183594 284.6875 352.136719 L 304.589844 332.234375 L 563.777344 591.421875 L 560.054688 595.144531 C 559.007812 596.1875 559.007812 597.886719 560.050781 598.925781 L 564.941406 603.816406 C 565.984375 604.863281 567.679688 604.859375 568.722656 603.8125 L 572.445312 600.089844 L 575.449219 603.09375 L 555.472656 623.066406 L 581.480469 649.074219 L 570.765625 659.789062 L 544.757812 633.78125 L 523.898438 654.644531 L 564.796875 695.546875 L 616.351562 643.996094 L 620.128906 647.773438 L 568.578125 699.324219 L 609.476562 740.222656 L 630.339844 719.363281 L 604.332031 693.355469 L 615.046875 682.640625 L 641.054688 708.648438 L 661.027344 688.671875 L 666.140625 693.785156 L 669.074219 690.855469 C 667.570312 696.472656 669.265625 701.203125 677.144531 701.898438 C 684.449219 702.542969 691.464844 696.621094 693.625 694.605469 C 693.773438 694.546875 693.917969 694.472656 694.042969 694.378906 C 694.042969 694.378906 702.78125 685.984375 702.003906 677.203125 C 701.308594 669.324219 696.582031 667.632812 690.960938 669.132812 L 693.890625 666.203125 L 600.195312 572.507812 L 603.921875 568.78125 C 604.964844 567.738281 604.964844 566.046875 603.921875 565.003906 L 599.03125 560.113281 C 597.988281 559.070312 596.296875 559.070312 595.25 560.113281 L 591.527344 563.839844 L 332.339844 304.652344 L 352.246094 284.75 C 353.289062 283.707031 353.289062 282.007812 352.246094 280.96875 L 346.46875 275.1875 C 345.421875 274.144531 343.730469 274.144531 342.6875 275.191406 L 333.039062 284.835938 C 329.835938 283.730469 323.292969 280.976562 319.664062 275.984375 L 322.402344 273.246094 C 323.414062 272.234375 323.410156 270.589844 322.398438 269.578125 C 321.386719 268.566406 319.746094 268.566406 318.730469 269.578125 L 317.355469 270.953125 C 315.210938 271.253906 311.054688 271.125 307.667969 266.636719 C 302.890625 260.296875 314.007812 254.292969 315.011719 246.398438 C 316.015625 238.507812 303.566406 228.726562 291.113281 237.847656 C 289.9375 238.707031 288.714844 239.648438 287.464844 240.644531 C 303.660156 221.636719 323.605469 192.808594 327.925781 162.242188 C 335.441406 109.046875 295.097656 65.367188 255.078125 51.699219 Z M 250.921875 248.066406 C 250.808594 247.976562 250.746094 247.925781 250.746094 247.925781 C 250.746094 247.925781 237.226562 262.683594 218.257812 277.796875 C 225.21875 264.121094 225.664062 247.929688 222.015625 234.316406 C 219.675781 225.59375 213.105469 215.285156 205.890625 205.878906 C 215.324219 213.125 225.671875 219.730469 234.421875 222.074219 C 248.035156 225.726562 264.226562 225.28125 277.902344 218.3125 C 266.828125 232.214844 255.945312 243.195312 250.921875 248.066406 Z M 72.152344 259.46875 C 58.597656 229.90625 67.996094 201.941406 88.675781 185.59375 C 109.359375 169.25 119.691406 188.253906 119.691406 188.253906 C 119.691406 188.253906 130.867188 189.421875 135.871094 173.414062 C 137.367188 168.625 135.671875 162.964844 131.910156 157.894531 C 142.074219 160.816406 152.773438 159.734375 152.773438 159.734375 C 152.773438 159.734375 145.210938 164.628906 151.710938 176.910156 C 151.710938 176.910156 198.570312 186.074219 209.730469 227.925781 C 220.894531 269.777344 184.371094 286.289062 170.863281 287.460938 C 157.355469 288.632812 149.855469 276.460938 154.859375 269.121094 C 159.863281 261.785156 166.699219 268.621094 166.699219 268.621094 C 166.699219 268.621094 171.585938 253.441406 152.863281 249.117188 C 135.078125 245.003906 121.730469 270.351562 131.066406 285.25 C 137.921875 296.191406 152.632812 305.890625 170.613281 305.988281 C 132.03125 318.742188 84.601562 286.625 72.152344 259.46875 Z M 306.09375 170.671875 C 306 152.691406 296.296875 137.980469 285.355469 131.125 C 270.460938 121.789062 245.113281 135.136719 249.21875 152.921875 C 253.546875 171.644531 268.730469 166.761719 268.730469 166.761719 C 268.730469 166.761719 261.890625 159.921875 269.230469 154.917969 C 276.570312 149.914062 288.742188 157.417969 287.570312 170.925781 C 286.398438 184.429688 269.882812 220.953125 228.03125 209.792969 C 186.179688 198.628906 177.015625 151.773438 177.015625 151.773438 C 164.734375 145.269531 159.839844 152.832031 159.839844 152.832031 C 159.839844 152.832031 160.921875 142.136719 158 131.972656 C 163.066406 135.730469 168.730469 137.429688 173.519531 135.933594 C 189.527344 130.925781 188.363281 119.753906 188.363281 119.753906 C 188.363281 119.753906 169.355469 109.417969 185.703125 88.738281 C 202.046875 68.054688 230.011719 58.65625 259.578125 72.210938 C 286.730469 84.660156 318.851562 132.089844 306.09375 170.671875 Z M 306.09375 170.671875 " fill-opacity="1" fill-rule="nonzero"/></g></g></g></svg>