<svg xmlns="http://www.w3.org/2000/svg" width="810" viewBox="0 0 810 810" height="810" version="1.0"><defs><clipPath id="a"><path d="M 36 15.402344 L 773 15.402344 L 773 794.652344 L 36 794.652344 Z M 36 15.402344"/></clipPath></defs><g clip-path="url(#a)"><path fill="#A37D4F" d="M 337.660156 327.699219 C 335.640625 346.171875 335.28125 367.359375 346.519531 388.453125 C 336.921875 334.492188 368.738281 314.671875 366.882812 274.207031 C 365.203125 293.484375 354.25 308.089844 338.648438 311.230469 C 323.863281 287.808594 289.976562 319.3125 266.097656 310.410156 C 271.332031 323.667969 282.199219 334 294.507812 338.78125 C 292.660156 336.304688 291.570312 333.222656 291.570312 329.890625 C 291.570312 325.421875 293.542969 321.417969 296.664062 318.683594 C 296.257812 319.839844 296.039062 321.085938 296.039062 322.375 C 296.039062 328.5625 301.054688 333.570312 307.226562 333.570312 C 313.410156 333.570312 318.417969 328.5625 318.417969 322.375 C 318.417969 321.910156 318.390625 321.445312 318.335938 320.988281 C 320.191406 323.476562 321.292969 326.550781 321.292969 329.890625 C 321.292969 334.332031 319.347656 338.316406 316.265625 341.039062 C 323.417969 340.089844 332.285156 335.335938 337.660156 327.699219 Z M 472.085938 327.699219 C 474.109375 346.171875 474.464844 367.359375 463.230469 388.453125 C 472.824219 334.492188 441.019531 314.671875 442.867188 274.207031 C 444.542969 293.484375 455.5 308.089844 471.101562 311.230469 C 485.886719 287.808594 519.773438 319.3125 543.652344 310.410156 C 538.417969 323.667969 527.546875 334 515.238281 338.78125 C 517.085938 336.304688 518.175781 333.222656 518.175781 329.890625 C 518.175781 325.421875 516.207031 321.417969 513.085938 318.683594 C 513.492188 319.839844 513.710938 321.085938 513.710938 322.375 C 513.710938 328.5625 508.703125 333.570312 502.519531 333.570312 C 496.335938 333.570312 491.328125 328.5625 491.328125 322.375 C 491.328125 321.910156 491.355469 321.445312 491.414062 320.988281 C 489.554688 323.476562 488.457031 326.550781 488.457031 329.890625 C 488.457031 334.332031 490.398438 338.316406 493.480469 341.039062 C 486.332031 340.089844 477.464844 335.335938 472.085938 327.699219 Z M 404.875 186.726562 C 389.566406 149.773438 363.402344 118.964844 328.484375 93.105469 C 356.808594 130.234375 375.617188 169.738281 383.488281 211.984375 C 365.496094 195.765625 331.242188 181.023438 301.964844 179.25 C 281.234375 220.390625 248.230469 256.386719 214.304688 281.648438 C 197.804688 341.027344 226.074219 411.355469 280.179688 436.34375 C 292.546875 420.664062 278.792969 401.78125 272.023438 386.355469 C 289.816406 408.640625 302.902344 417.960938 296.167969 440.871094 C 294.796875 445.539062 292.59375 450.769531 289.445312 456.792969 C 281.707031 468.671875 275.949219 482.589844 274.738281 494.648438 C 284.75 501.644531 300.03125 506.015625 315.308594 507.648438 C 301.121094 510.21875 287.351562 510.484375 273.871094 509.035156 C 277.820312 526.9375 293.042969 541.1875 309.429688 549.148438 C 299.753906 547.15625 290.667969 544.234375 282.058594 540.542969 C 299.0625 572.871094 339.832031 587.992188 373.265625 572.5 C 406.164062 557.25 405.328125 517.296875 372.496094 502.429688 C 366.511719 499.714844 360.441406 498.351562 354.578125 496.300781 C 336.402344 489.933594 324.347656 475.550781 335.054688 456.421875 C 332.304688 467.285156 336.78125 476.9375 350.570312 476.5 C 354.742188 476.367188 359.105469 475.703125 363.25 475.113281 C 376.15625 473.285156 381.855469 474.375 392.316406 482.269531 C 399.648438 487.800781 410.101562 487.800781 417.441406 482.269531 C 427.890625 474.375 433.59375 473.285156 446.507812 475.113281 C 450.652344 475.703125 455.003906 476.367188 459.179688 476.5 C 472.96875 476.9375 477.445312 467.285156 474.695312 456.421875 C 485.402344 475.550781 473.347656 489.933594 455.167969 496.300781 C 449.304688 498.351562 443.234375 499.714844 437.261719 502.429688 C 404.417969 517.296875 403.585938 557.25 436.484375 572.5 C 469.914062 587.992188 510.6875 572.871094 527.691406 540.542969 C 519.082031 544.234375 509.996094 547.15625 500.320312 549.148438 C 516.707031 541.1875 531.929688 526.9375 535.875 509.035156 C 522.394531 510.484375 508.628906 510.21875 494.441406 507.648438 C 509.71875 506.015625 524.996094 501.644531 535.011719 494.648438 C 533.796875 482.589844 528.039062 468.671875 520.304688 456.792969 C 517.15625 450.769531 514.953125 445.539062 513.578125 440.871094 C 506.84375 417.960938 519.945312 408.640625 537.722656 386.355469 C 530.949219 401.78125 517.203125 420.664062 529.570312 436.34375 C 583.671875 411.355469 611.941406 341.027344 595.441406 281.648438 C 561.519531 256.386719 528.519531 220.390625 507.792969 179.25 C 478.507812 181.023438 444.25 195.765625 426.261719 211.984375 C 434.132812 169.738281 452.9375 130.234375 481.265625 93.105469 C 446.355469 118.964844 420.191406 149.773438 404.875 186.726562 Z M 404.875 794.652344 C 379.25 753.101562 300.332031 728.832031 299.472656 651.820312 C 288.609375 679.019531 289.765625 702.199219 294.273438 724.269531 C 230.160156 676.660156 201.140625 586.386719 239.484375 512.136719 C 219.957031 488.40625 208.035156 460.433594 206.839844 426.480469 C 203.359375 458.074219 207.800781 485.511719 220.761719 508.472656 C 197.566406 548.929688 189.523438 594.007812 194.332031 625.375 C 157.410156 600.394531 129.480469 561.996094 113.273438 517.789062 C 114.210938 509.316406 114.707031 500.714844 114.707031 491.992188 C 114.707031 443.621094 99.871094 398.71875 74.511719 361.582031 L 40.019531 399.078125 C 31.078125 360.09375 39.480469 295.726562 85.515625 268.582031 C 150.726562 249.347656 216.070312 216.117188 261.136719 160.417969 C 217.890625 136.589844 180.085938 135.5 190.460938 202.289062 C 154.917969 218.359375 116.925781 229.414062 81.816406 234.277344 C 100.566406 166.867188 142.605469 111.457031 193.515625 82.640625 L 279.707031 104.667969 L 221.371094 64.3125 C 276.785156 31.703125 340.828125 15.402344 404.875 15.402344 C 468.917969 15.402344 532.960938 31.703125 588.378906 64.3125 L 530.042969 104.667969 L 616.234375 82.640625 C 667.140625 111.457031 709.183594 166.867188 727.933594 234.277344 C 692.824219 229.414062 654.832031 218.359375 619.292969 202.289062 C 629.660156 135.5 591.859375 136.589844 548.613281 160.417969 C 593.679688 216.117188 659.019531 249.347656 724.234375 268.582031 C 770.265625 295.726562 778.671875 360.09375 769.726562 399.078125 L 735.234375 361.582031 C 709.875 398.71875 695.042969 443.621094 695.042969 491.992188 C 695.042969 500.714844 695.535156 509.316406 696.476562 517.789062 C 680.265625 561.996094 652.335938 600.394531 615.417969 625.375 C 620.222656 594.007812 612.179688 548.929688 588.984375 508.472656 C 601.945312 485.511719 606.390625 458.074219 602.90625 426.480469 C 601.710938 460.433594 589.789062 488.40625 570.265625 512.136719 C 608.605469 586.386719 579.585938 676.660156 515.476562 724.269531 C 519.980469 702.199219 521.132812 679.019531 510.289062 651.820312 C 509.417969 728.832031 430.5 753.101562 404.875 794.652344 Z M 388.761719 583.363281 C 368.273438 590.699219 343.476562 607.558594 321.472656 609.085938 C 352.84375 679.210938 456.902344 679.210938 488.273438 609.085938 C 466.273438 607.558594 441.472656 590.699219 420.988281 583.363281 C 408.707031 578.976562 401.042969 578.976562 388.761719 583.363281" fill-rule="evenodd"/></g></svg>