<svg xmlns="http://www.w3.org/2000/svg" xmlns:xlink="http://www.w3.org/1999/xlink" width="810" height="810" contentScriptType="text/ecmascript" contentStyleType="text/css" preserveAspectRatio="xMidYMid meet" version="1.0" viewBox="0 0 810 810" zoomAndPan="magnify"><defs><clipPath id="clip-0"><path d="M 109 9 L 700.730469 9 L 700.730469 677 L 109 677 Z M 109 9" clip-rule="nonzero"/></clipPath><clipPath id="clip-1"><path d="M 109 117 L 700.730469 117 L 700.730469 561 L 109 561 Z M 109 117" clip-rule="nonzero"/></clipPath><clipPath id="clip-2"><path d="M 360 711 L 449 711 L 449 800.867188 L 360 800.867188 Z M 360 711" clip-rule="nonzero"/></clipPath></defs><g clip-path="url(#clip-0)"><path fill="#A37D4F" fill-opacity="1" fill-rule="nonzero" d="M 700.703125 18.9375 C 700.703125 13.824219 696.554688 9.675781 691.441406 9.675781 C 686.324219 9.675781 682.179688 13.824219 682.179688 18.9375 L 682.179688 235.453125 C 682.179688 347.730469 653.726562 450.082031 607.414062 526.207031 C 561.417969 601.808594 497.945312 651.332031 427.660156 658.351562 C 422.589844 658.847656 418.878906 663.371094 419.378906 668.445312 C 419.875 673.519531 424.398438 677.226562 429.472656 676.730469 C 505.863281 669.101562 574.226562 616.308594 623.183594 535.832031 C 671.199219 456.90625 700.699219 351.144531 700.699219 235.453125 L 700.699219 18.9375 Z M 380.242188 676.730469 C 385.316406 677.230469 389.835938 673.519531 390.335938 668.445312 C 390.832031 663.371094 387.125 658.851562 382.050781 658.351562 C 368.320312 656.984375 354.785156 653.957031 341.535156 649.410156 C 328.015625 644.765625 314.859375 638.539062 302.164062 630.863281 C 250.707031 599.753906 206.644531 544.921875 175.640625 475.101562 C 145.3125 406.816406 127.535156 324.25 127.535156 235.453125 L 127.535156 18.9375 C 127.535156 13.824219 123.386719 9.675781 118.273438 9.675781 C 113.160156 9.675781 109.011719 13.824219 109.011719 18.9375 L 109.011719 235.453125 C 109.011719 326.753906 127.40625 411.90625 158.78125 482.554688 C 191.339844 555.875 237.945312 613.652344 292.613281 646.710938 C 306.4375 655.070312 320.777344 661.855469 335.53125 666.917969 C 349.992188 671.882812 364.925781 675.203125 380.242188 676.730469 Z M 380.242188 676.730469"/></g><g clip-path="url(#clip-1)"><path fill="#A37D4F" fill-opacity="1" fill-rule="nonzero" d="M 700.664062 134.492188 C 700.761719 129.398438 696.714844 125.183594 691.621094 125.085938 C 686.527344 124.988281 682.3125 129.039062 682.214844 134.132812 C 680.875 196.761719 670.609375 256.105469 653.355469 309.242188 C 635.519531 364.160156 610.238281 412.339844 579.65625 450.539062 C 576.460938 454.515625 577.09375 460.332031 581.066406 463.53125 C 585.042969 466.726562 590.859375 466.09375 594.054688 462.117188 C 626.042969 422.160156 652.417969 371.980469 670.9375 314.960938 C 688.710938 260.226562 699.285156 199.074219 700.664062 134.492188 Z M 545.296875 511.433594 C 549.273438 508.238281 549.90625 502.421875 546.710938 498.445312 C 543.511719 494.472656 537.695312 493.839844 533.722656 497.035156 C 530.574219 499.566406 527.257812 502.09375 523.796875 504.605469 C 520.28125 507.152344 516.910156 509.476562 513.695312 511.5625 C 509.421875 514.34375 508.203125 520.0625 510.980469 524.335938 C 513.757812 528.613281 519.476562 529.828125 523.75 527.050781 C 527.605469 524.550781 531.238281 522.058594 534.648438 519.585938 C 538.117188 517.070312 541.671875 514.351562 545.296875 511.433594 Z M 476.632812 550.613281 C 481.449219 548.898438 483.957031 543.597656 482.238281 538.785156 C 480.519531 533.964844 475.222656 531.460938 470.410156 533.175781 C 464.941406 535.132812 459.414062 536.828125 453.847656 538.246094 C 448.117188 539.710938 442.535156 540.871094 437.125 541.710938 C 432.089844 542.488281 428.640625 547.207031 429.417969 552.242188 C 430.195312 557.273438 434.914062 560.726562 439.945312 559.949219 C 446.371094 558.949219 452.527344 557.691406 458.40625 556.191406 C 464.554688 554.625 470.636719 552.757812 476.632812 550.613281 Z M 369.648438 559.929688 C 374.683594 560.710938 379.398438 557.257812 380.175781 552.222656 C 380.957031 547.191406 377.503906 542.472656 372.472656 541.695312 C 367.121094 540.859375 361.601562 539.714844 355.917969 538.265625 C 350.328125 536.84375 344.851562 535.171875 339.511719 533.269531 C 334.699219 531.574219 329.417969 534.097656 327.71875 538.914062 C 326.023438 543.730469 328.546875 549.011719 333.363281 550.707031 C 339.363281 552.847656 345.371094 554.683594 351.363281 556.210938 C 357.183594 557.691406 363.28125 558.9375 369.648438 559.929688 Z M 286.085938 527.148438 C 290.359375 529.925781 296.078125 528.707031 298.855469 524.433594 C 301.632812 520.15625 300.417969 514.4375 296.140625 511.660156 C 293.335938 509.84375 290.253906 507.730469 286.910156 505.332031 L 286.914062 505.328125 C 286.699219 505.171875 286.480469 505.027344 286.253906 504.894531 C 283.636719 503 280.816406 500.859375 277.8125 498.492188 C 273.796875 495.335938 267.984375 496.03125 264.828125 500.046875 C 261.671875 504.066406 262.367188 509.882812 266.382812 513.039062 C 269.160156 515.226562 272.199219 517.515625 275.492188 519.890625 C 275.695312 520.0625 275.902344 520.226562 276.121094 520.382812 L 281.519531 512.855469 L 276.125 520.382812 C 279.117188 522.527344 282.4375 524.785156 286.085938 527.148438 Z M 217.121094 463.917969 C 220.339844 467.871094 226.15625 468.472656 230.109375 465.257812 C 234.066406 462.039062 234.664062 456.222656 231.449219 452.269531 C 199.851562 413.3125 173.851562 363.785156 155.746094 307.191406 C 138.246094 252.484375 128.140625 191.25 127.496094 126.640625 C 127.453125 121.542969 123.292969 117.445312 118.199219 117.484375 C 113.105469 117.527344 109.003906 121.691406 109.046875 126.785156 C 109.710938 193.34375 120.125 256.445312 138.167969 312.835938 C 156.96875 371.609375 184.085938 423.1875 217.121094 463.917969 Z M 217.121094 463.917969"/></g><path fill="#A37D4F" fill-opacity="1" fill-rule="nonzero" d="M 404.796875 509.929688 C 416.6875 509.929688 427.460938 514.753906 435.253906 522.546875 C 443.046875 530.34375 447.867188 541.117188 447.867188 553.011719 C 447.867188 564.90625 443.046875 575.675781 435.253906 583.472656 C 427.460938 591.265625 416.6875 596.089844 404.796875 596.089844 C 392.90625 596.089844 382.132812 591.265625 374.339844 583.472656 C 366.546875 575.675781 361.722656 564.902344 361.722656 553.011719 C 361.722656 541.117188 366.546875 530.34375 374.339844 522.546875 C 382.132812 514.753906 392.90625 509.929688 404.796875 509.929688 Z M 422.15625 535.648438 C 417.71875 531.207031 411.578125 528.457031 404.796875 528.457031 C 398.015625 528.457031 391.875 531.207031 387.4375 535.648438 C 382.996094 540.085938 380.246094 546.230469 380.246094 553.011719 C 380.246094 559.792969 382.996094 565.933594 387.4375 570.375 C 391.875 574.8125 398.015625 577.566406 404.796875 577.566406 C 411.578125 577.566406 417.71875 574.8125 422.15625 570.375 C 426.59375 565.933594 429.347656 559.792969 429.347656 553.011719 C 429.347656 546.230469 426.59375 540.085938 422.15625 535.648438 Z M 422.15625 535.648438"/><path fill="#A37D4F" fill-opacity="1" fill-rule="nonzero" d="M 497.121094 497.972656 C 506.679688 497.972656 515.339844 501.847656 521.597656 508.113281 C 527.863281 514.375 531.738281 523.035156 531.738281 532.59375 C 531.738281 542.15625 527.863281 550.816406 521.597656 557.078125 C 515.339844 563.339844 506.679688 567.21875 497.121094 567.21875 C 487.5625 567.21875 478.902344 563.339844 472.640625 557.078125 C 466.378906 550.816406 462.5 542.15625 462.5 532.59375 C 462.5 523.035156 466.378906 514.375 472.640625 508.113281 C 478.902344 501.847656 487.5625 497.972656 497.121094 497.972656 Z M 508.503906 521.210938 C 505.59375 518.300781 501.566406 516.496094 497.121094 516.496094 C 492.675781 516.496094 488.648438 518.300781 485.738281 521.210938 C 482.828125 524.121094 481.023438 528.148438 481.023438 532.59375 C 481.023438 537.042969 482.828125 541.066406 485.738281 543.980469 C 488.648438 546.890625 492.675781 548.695312 497.121094 548.695312 C 501.566406 548.695312 505.59375 546.890625 508.503906 543.980469 C 511.414062 541.066406 513.21875 537.042969 513.21875 532.59375 C 513.21875 528.148438 511.414062 524.121094 508.503906 521.210938 Z M 508.503906 521.210938"/><path fill="#A37D4F" fill-opacity="1" fill-rule="nonzero" d="M 565.347656 439.34375 C 577.238281 439.34375 588.011719 444.167969 595.804688 451.960938 C 595.992188 452.148438 596.171875 452.34375 596.339844 452.546875 C 603.820312 460.292969 608.421875 470.828125 608.421875 482.421875 C 608.421875 494.316406 603.597656 505.089844 595.804688 512.882812 C 588.011719 520.679688 577.238281 525.5 565.347656 525.5 C 553.457031 525.5 542.683594 520.679688 534.890625 512.882812 C 527.097656 505.089844 522.273438 494.316406 522.273438 482.421875 C 522.273438 470.554688 527.097656 459.792969 534.890625 451.996094 L 541.4375 458.511719 L 534.890625 451.960938 L 535.070312 451.78125 C 542.851562 444.09375 553.546875 439.34375 565.347656 439.34375 Z M 582.710938 465.058594 C 578.269531 460.621094 572.128906 457.871094 565.347656 457.871094 C 558.59375 457.871094 552.46875 460.601562 548.035156 465.011719 L 547.988281 465.058594 L 547.96875 465.042969 C 543.539062 469.484375 540.796875 475.628906 540.796875 482.421875 C 540.796875 489.203125 543.546875 495.347656 547.988281 499.789062 C 552.425781 504.226562 558.570312 506.976562 565.347656 506.976562 C 572.128906 506.976562 578.269531 504.226562 582.710938 499.789062 C 587.148438 495.347656 589.898438 489.203125 589.898438 482.421875 C 589.898438 475.839844 587.328125 469.863281 583.136719 465.460938 C 582.992188 465.332031 582.847656 465.199219 582.710938 465.058594 Z M 582.710938 465.058594"/><path fill="#A37D4F" fill-opacity="1" fill-rule="nonzero" d="M 313.109375 515.925781 C 308.652344 515.925781 304.621094 517.722656 301.707031 520.625 L 301.726562 520.644531 C 298.816406 523.554688 297.011719 527.582031 297.011719 532.027344 C 297.011719 536.472656 298.816406 540.5 301.726562 543.410156 L 302.097656 543.804688 C 304.976562 546.488281 308.84375 548.125 313.109375 548.125 C 317.554688 548.125 321.582031 546.324219 324.496094 543.410156 C 327.40625 540.5 329.207031 536.472656 329.207031 532.027344 C 329.207031 527.582031 327.40625 523.554688 324.496094 520.644531 C 321.582031 517.730469 317.554688 515.925781 313.109375 515.925781 Z M 295.179688 514.09375 L 288.667969 507.542969 C 294.933594 501.28125 303.574219 497.402344 313.109375 497.402344 C 322.671875 497.402344 331.328125 501.28125 337.589844 507.542969 C 343.851562 513.808594 347.730469 522.46875 347.730469 532.027344 C 347.730469 541.585938 343.851562 550.246094 337.589844 556.511719 C 331.328125 562.773438 322.671875 566.652344 313.109375 566.652344 C 303.851562 566.652344 295.441406 562.996094 289.226562 557.054688 C 289.023438 556.882812 288.820312 556.699219 288.628906 556.511719 C 282.367188 550.246094 278.492188 541.585938 278.492188 532.027344 C 278.492188 522.46875 282.367188 513.808594 288.628906 507.542969 L 288.632812 507.542969 Z M 295.179688 514.09375"/><path fill="#A37D4F" fill-opacity="1" fill-rule="nonzero" d="M 246.863281 458.710938 C 240.066406 458.710938 233.925781 461.449219 229.484375 465.882812 L 229.5 465.898438 L 229.5 465.902344 L 229.457031 465.949219 C 225.046875 470.382812 222.3125 476.507812 222.3125 483.261719 C 222.3125 490.042969 225.0625 496.1875 229.5 500.625 C 229.640625 500.765625 229.773438 500.910156 229.902344 501.054688 C 234.308594 505.246094 240.28125 507.820312 246.863281 507.820312 C 253.644531 507.820312 259.785156 505.066406 264.222656 500.625 C 268.664062 496.1875 271.414062 490.042969 271.414062 483.261719 C 271.414062 476.480469 268.664062 470.339844 264.222656 465.898438 C 259.785156 461.460938 253.644531 458.710938 246.863281 458.710938 Z M 222.953125 459.351562 L 216.441406 452.800781 C 224.238281 445.007812 234.992188 440.183594 246.863281 440.183594 C 258.753906 440.183594 269.527344 445.007812 277.320312 452.800781 C 285.113281 460.597656 289.933594 471.371094 289.933594 483.261719 C 289.933594 495.15625 285.113281 505.929688 277.320312 513.726562 C 269.527344 521.519531 258.753906 526.339844 246.863281 526.339844 C 235.269531 526.339844 224.734375 521.742188 216.988281 514.261719 C 216.789062 514.089844 216.59375 513.914062 216.40625 513.726562 C 208.613281 505.929688 203.789062 495.15625 203.789062 483.261719 C 203.789062 471.460938 208.539062 460.761719 216.226562 452.984375 L 216.40625 452.800781 Z M 222.953125 459.351562"/><path fill="#A37D4F" fill-opacity="1" fill-rule="nonzero" d="M 392.828125 630.355469 L 416.878906 630.355469 C 422.613281 630.355469 427.839844 632.707031 431.644531 636.5 L 431.660156 636.519531 L 431.664062 636.523438 L 431.683594 636.503906 C 431.914062 636.734375 432.128906 636.972656 432.332031 637.21875 C 435.738281 640.957031 437.824219 645.910156 437.824219 651.304688 L 437.824219 685.667969 C 437.824219 691.398438 435.472656 696.628906 431.679688 700.433594 L 431.660156 700.453125 L 431.679688 700.472656 C 431.449219 700.703125 431.210938 700.917969 430.960938 701.121094 C 427.226562 704.53125 422.277344 706.617188 416.878906 706.617188 L 392.828125 706.617188 C 387.0625 706.617188 381.820312 704.261719 378.03125 700.46875 C 374.242188 696.683594 371.886719 691.4375 371.886719 685.667969 L 371.886719 651.304688 C 371.886719 645.535156 374.242188 640.292969 378.03125 636.5 C 381.820312 632.710938 387.0625 630.355469 392.828125 630.355469 Z M 416.878906 648.878906 L 392.828125 648.878906 C 392.175781 648.878906 391.570312 649.160156 391.125 649.601562 C 390.683594 650.042969 390.40625 650.648438 390.40625 651.304688 L 390.40625 685.667969 C 390.40625 686.324219 390.683594 686.929688 391.125 687.371094 C 391.570312 687.816406 392.175781 688.089844 392.828125 688.089844 L 416.878906 688.089844 C 417.445312 688.089844 417.957031 687.914062 418.355469 687.609375 L 418.585938 687.371094 L 425.132812 693.921875 L 418.621094 687.371094 C 419.042969 686.949219 419.304688 686.347656 419.304688 685.667969 L 419.304688 651.304688 C 419.304688 650.738281 419.125 650.226562 418.824219 649.832031 L 418.582031 649.597656 L 425.132812 643.050781 L 418.582031 649.566406 C 418.164062 649.144531 417.558594 648.878906 416.878906 648.878906 Z M 416.878906 648.878906"/><path fill="#A37D4F" fill-opacity="1" fill-rule="nonzero" d="M 414.117188 697.355469 C 414.117188 692.242188 409.972656 688.09375 404.859375 688.09375 C 399.746094 688.09375 395.597656 692.242188 395.597656 697.355469 L 395.597656 721.105469 C 395.597656 726.21875 399.746094 730.367188 404.859375 730.367188 C 409.972656 730.367188 414.117188 726.21875 414.117188 721.105469 Z M 414.117188 697.355469"/><g clip-path="url(#clip-2)"><path fill="#A37D4F" fill-opacity="1" fill-rule="nonzero" d="M 404.855469 711.84375 C 417.03125 711.84375 428.0625 716.777344 436.042969 724.761719 C 444.019531 732.738281 448.960938 743.773438 448.960938 755.953125 C 448.960938 768.105469 444.023438 779.125 436.042969 787.105469 L 429.496094 780.59375 L 436.046875 787.140625 C 435.855469 787.332031 435.660156 787.511719 435.460938 787.679688 C 427.527344 795.34375 416.734375 800.058594 404.855469 800.058594 C 392.703125 800.058594 381.6875 795.121094 373.707031 787.140625 L 380.21875 780.59375 L 373.671875 787.144531 C 373.480469 786.953125 373.304688 786.757812 373.132812 786.558594 C 365.46875 778.621094 360.753906 767.828125 360.753906 755.949219 C 360.753906 743.773438 365.691406 732.738281 373.671875 724.761719 C 381.652344 716.777344 392.683594 711.84375 404.855469 711.84375 Z M 422.945312 737.859375 C 418.320312 733.230469 411.921875 730.367188 404.855469 730.367188 C 397.792969 730.367188 391.394531 733.230469 386.769531 737.859375 C 382.140625 742.488281 379.277344 748.886719 379.277344 755.949219 C 379.277344 762.820312 381.964844 769.054688 386.339844 773.644531 C 386.484375 773.773438 386.628906 773.902344 386.769531 774.042969 L 386.75 774.058594 L 386.75 774.0625 C 391.375 778.679688 397.777344 781.535156 404.855469 781.535156 C 411.726562 781.535156 417.957031 778.847656 422.546875 774.46875 C 422.675781 774.324219 422.804688 774.183594 422.945312 774.042969 L 422.964844 774.0625 C 427.582031 769.4375 430.4375 763.03125 430.4375 755.953125 C 430.4375 748.886719 427.574219 742.488281 422.945312 737.863281 Z M 422.945312 737.859375"/></g><path fill="#A37D4F" fill-opacity="1" fill-rule="nonzero" d="M 296.601562 632.378906 C 296.601562 627.265625 292.453125 623.117188 287.339844 623.117188 C 282.226562 623.117188 278.078125 627.265625 278.078125 632.378906 L 278.078125 659.828125 C 278.078125 664.941406 282.226562 669.089844 287.339844 669.089844 C 292.453125 669.089844 296.601562 664.941406 296.601562 659.828125 Z M 296.601562 632.378906"/><path fill="#A37D4F" fill-opacity="1" fill-rule="nonzero" d="M 531.636719 632.378906 C 531.636719 627.265625 527.488281 623.117188 522.375 623.117188 C 517.261719 623.117188 513.113281 627.265625 513.113281 632.378906 L 513.113281 659.828125 C 513.113281 664.941406 517.261719 669.089844 522.375 669.089844 C 527.488281 669.089844 531.636719 664.941406 531.636719 659.828125 Z M 531.636719 632.378906"/><path fill="#A37D4F" fill-opacity="1" fill-rule="nonzero" d="M 287.339844 650.566406 C 295.109375 650.566406 302.15625 653.726562 307.265625 658.832031 L 300.75 665.382812 L 307.296875 658.832031 C 307.5 659.03125 307.6875 659.242188 307.867188 659.453125 C 312.636719 664.511719 315.566406 671.320312 315.566406 678.796875 C 315.566406 686.566406 312.40625 693.613281 307.300781 698.722656 L 300.75 692.210938 L 307.300781 698.757812 C 302.191406 703.867188 295.132812 707.027344 287.339844 707.027344 C 279.546875 707.027344 272.488281 703.867188 267.378906 698.757812 C 262.269531 693.652344 259.113281 686.59375 259.113281 678.796875 C 259.113281 671.003906 262.269531 663.941406 267.378906 658.832031 C 267.582031 658.632812 267.789062 658.441406 268.003906 658.265625 C 273.054688 653.492188 279.863281 650.566406 287.339844 650.566406 Z M 294.222656 671.914062 L 294.203125 671.894531 C 292.453125 670.160156 290.023438 669.089844 287.339844 669.089844 C 284.820312 669.089844 282.53125 670.03125 280.808594 671.582031 L 280.476562 671.933594 C 278.722656 673.6875 277.632812 676.117188 277.632812 678.796875 C 277.632812 681.476562 278.722656 683.90625 280.476562 685.660156 C 282.230469 687.417969 284.660156 688.503906 287.339844 688.503906 C 290.015625 688.503906 292.445312 687.417969 294.203125 685.660156 L 294.222656 685.679688 C 295.964844 683.925781 297.046875 681.488281 297.046875 678.796875 C 297.046875 676.269531 296.097656 673.980469 294.546875 672.257812 L 294.207031 671.933594 Z M 294.222656 671.914062"/><path fill="#A37D4F" fill-opacity="1" fill-rule="nonzero" d="M 522.375 650.566406 C 530.144531 650.566406 537.191406 653.726562 542.296875 658.832031 L 535.785156 665.382812 L 542.332031 658.832031 L 542.335938 658.832031 C 547.441406 663.941406 550.601562 671.003906 550.601562 678.796875 C 550.601562 686.59375 547.441406 693.652344 542.335938 698.757812 C 537.226562 703.867188 530.167969 707.027344 522.375 707.027344 C 514.582031 707.027344 507.523438 703.867188 502.414062 698.757812 C 502.214844 698.558594 502.023438 698.351562 501.84375 698.136719 C 497.074219 693.082031 494.148438 686.273438 494.148438 678.796875 C 494.148438 671.027344 497.308594 663.976562 502.414062 658.871094 L 508.964844 665.382812 L 502.414062 658.835938 C 502.613281 658.636719 502.824219 658.445312 503.035156 658.265625 C 508.089844 653.496094 514.898438 650.566406 522.375 650.566406 Z M 529.257812 671.914062 C 527.503906 670.171875 525.066406 669.089844 522.375 669.089844 C 519.851562 669.089844 517.558594 670.035156 515.835938 671.585938 L 515.511719 671.929688 L 515.496094 671.910156 L 515.476562 671.933594 C 513.742188 673.679688 512.667969 676.109375 512.667969 678.796875 C 512.667969 681.3125 513.613281 683.605469 515.160156 685.328125 L 515.511719 685.664062 C 517.265625 687.417969 519.695312 688.503906 522.375 688.503906 C 525.054688 688.503906 527.484375 687.417969 529.238281 685.664062 C 530.992188 683.90625 532.078125 681.476562 532.078125 678.796875 C 532.078125 676.117188 530.992188 673.6875 529.238281 671.933594 Z M 529.257812 671.914062"/></svg>