<svg xmlns="http://www.w3.org/2000/svg" width="810" viewBox="0 0 810 810" height="810" version="1.0"><defs><clipPath id="a"><path d="M 130 10 L 685.632812 10 L 685.632812 802 L 130 802 Z M 130 10"/></clipPath></defs><g clip-path="url(#a)"><path fill="#A37D4F" d="M 275.476562 11 C 301.277344 7.617188 325 30.367188 333.210938 53.40625 C 338.691406 98.363281 282.6875 123.699219 292.683594 169.835938 C 299.527344 205.765625 302.605469 247.609375 318.136719 279.402344 C 309.394531 239.234375 323.617188 199.777344 344.550781 166.085938 C 341.367188 138.570312 324.671875 110.066406 336.832031 82 C 342.914062 67.277344 343.167969 51.058594 334.101562 37.628906 C 349.796875 46.726562 357.1875 64.785156 367.253906 79.160156 C 392.015625 124.554688 418.214844 172.96875 416.246094 226.332031 C 436.511719 221.234375 457.539062 214.226562 479.476562 217.632812 C 443.882812 233.082031 386.953125 276.675781 414.390625 323.230469 C 451.550781 385.058594 488.144531 447.324219 525.882812 508.75 C 538.519531 485.945312 533.277344 447.03125 557.472656 426.28125 C 584.453125 384.039062 643.585938 380.726562 685.371094 386.585938 C 651.816406 429.320312 610.707031 494.898438 548.078125 481.847656 C 536.097656 496.027344 524.082031 517.578125 538.101562 534.484375 C 583.945312 614.457031 602.734375 706.023438 617.898438 795.570312 C 616.078125 798.648438 613.273438 802.5625 609.195312 801.777344 C 602.949219 766.070312 594.921875 730.667969 586.457031 695.414062 C 566.320312 602.390625 520.515625 517.25 469.117188 438.023438 C 461.507812 418.800781 427.71875 420.550781 422.839844 441.261719 C 419.871094 463.503906 416.976562 488.800781 397.675781 503.214844 C 362.339844 523.527344 323.597656 540.289062 297.125 572.542969 C 293.429688 529.351562 296.398438 473.804688 331.335938 440.425781 C 368.292969 416.253906 415.628906 417.035156 457.867188 421.914062 C 433.453125 385.878906 419.195312 335.316406 376.539062 317.808594 C 378.578125 313.238281 388.464844 314.878906 388.539062 308.160156 C 360.355469 312.273438 331.40625 325.085938 315.496094 349.730469 C 305.082031 363.890625 312.855469 329.199219 310.597656 323.648438 C 253.832031 322.976562 210.972656 279.242188 175.546875 239.945312 C 162.820312 224.964844 144.796875 232.15625 131.648438 240.890625 C 128.539062 224.183594 136.402344 202.5625 142.867188 184.816406 C 134.546875 160.863281 124.933594 128.941406 143.59375 107.117188 C 162.128906 92.394531 183.992188 82.910156 204.800781 72.007812 C 229.308594 53.316406 244.636719 20.847656 275.476562 11 M 274.203125 42.558594 C 286.183594 47.457031 308.503906 46.746094 310.652344 63.253906 C 309.542969 97.488281 278.375 120.53125 252.59375 137.859375 C 268.761719 114.960938 287.820312 82.949219 270.234375 55.847656 C 258.746094 51.953125 240.066406 52.1875 232.457031 61.507812 C 242.617188 59.761719 254.175781 54.207031 263.917969 60.398438 C 271.21875 72.589844 265.8125 96.253906 248.804688 95.050781 C 251.171875 77.707031 232.984375 64.253906 218.074219 73.628906 C 225.121094 74.847656 236.425781 71.84375 238.394531 81.144531 C 248.734375 118.164062 204.492188 137.605469 176.109375 120.878906 C 184.59375 136.4375 206.824219 136.839844 222.117188 133.144531 C 239.101562 130.816406 241.523438 106.773438 255.742188 101.347656 C 246.640625 138.839844 193.953125 169.835938 165.023438 134.035156 C 172.414062 170.019531 215.527344 168.253906 239.558594 150.472656 C 242.671875 162.15625 241.214844 174.421875 242.253906 186.363281 C 219.058594 182.324219 194.441406 187.910156 171.667969 180.285156 C 151.511719 170.730469 160.945312 141.863281 154.390625 126.867188 C 150.074219 145.921875 147.015625 166.46875 155.609375 184.925781 C 141.097656 194.40625 134.234375 220.472656 135.109375 233.320312 C 181.007812 196.738281 245.855469 187.964844 297.746094 217.757812 C 284.925781 202.851562 266.230469 193.660156 247.496094 187.890625 C 246.839844 164.613281 279.957031 165.777344 283.308594 144.9375 C 291.097656 119.804688 310.652344 100.183594 317.117188 74.59375 C 327.3125 48.148438 291.574219 38.847656 274.203125 42.558594 M 180.003906 117.273438 C 199.066406 114.199219 210.957031 92.539062 228.6875 87.316406 C 231.582031 103.441406 216.78125 113.34375 207.132812 123.296875 C 226.25 118.800781 235.808594 98.945312 238.390625 81.144531 C 217.492188 75.394531 205.785156 101.601562 187.035156 106.828125 C 190.292969 96.089844 201.652344 90.027344 204.875 79.527344 C 191.492188 85.003906 174.691406 103.058594 180.003906 117.273438 Z M 180.003906 117.273438"/></g></svg>