<?xml version="1.0" encoding="UTF-8"?><svg xmlns="http://www.w3.org/2000/svg" xmlns:xlink="http://www.w3.org/1999/xlink" contentScriptType="text/ecmascript" width="375" zoomAndPan="magnify" contentStyleType="text/css" viewBox="0 0 375 374.999991" height="374.999991" preserveAspectRatio="xMidYMid meet" version="1.0"><defs><clipPath id="clip-0"><path d="M 6.898438 18.632812 L 287.832031 18.632812 L 287.832031 212 L 6.898438 212 Z M 6.898438 18.632812 " clip-rule="nonzero"/></clipPath></defs><path fill="rgb(63.919067%, 49.01886%, 30.979919%)" d="M 343.480469 253.195312 C 339.769531 242.105469 334.371094 234.714844 323.613281 224.597656 C 304.066406 206.222656 280.316406 192.378906 262.617188 172.226562 C 255.710938 164.363281 249.683594 155.308594 247.695312 145.046875 C 240.121094 105.902344 289.507812 74.796875 322.171875 96.621094 C 332.597656 103.582031 343.691406 118.066406 341.277344 134.613281 C 339.914062 143.96875 334.730469 150.527344 331.738281 153.746094 C 331.738281 153.746094 331.738281 153.746094 330.433594 163.070312 C 329.128906 172.394531 333.949219 186.71875 333.949219 186.71875 C 333.949219 186.71875 333.949219 186.71875 327.136719 180.746094 C 320.328125 174.769531 317.070312 156.453125 317.070312 156.453125 C 309.632812 154.691406 310.859375 137.167969 309.808594 131.644531 C 307.542969 119.722656 299.113281 111.589844 286.207031 112.558594 C 261.117188 114.4375 257.945312 141.007812 270.300781 158.21875 C 278.253906 169.300781 288.140625 174.789062 296.855469 179.125 C 296.90625 179.152344 296.992188 179.195312 297.105469 179.253906 C 319.089844 190.246094 354.058594 207.582031 363.921875 229.011719 C 374.324219 251.617188 359.941406 285.503906 334.234375 313.171875 C 339.929688 303.066406 351.90625 278.402344 343.480469 253.195312 " fill-opacity="1" fill-rule="nonzero"/><path fill="rgb(63.919067%, 49.01886%, 30.979919%)" d="M 282.042969 244.636719 C 261.277344 242.511719 259.679688 247.292969 221.335938 252.605469 C 196.109375 256.101562 161.75 254.789062 139.855469 235.105469 C 134.179688 230 123.992188 218.992188 118.554688 198.417969 C 127.039062 209.503906 144.980469 229.167969 172.34375 235.105469 C 183.8125 237.597656 194.519531 237.152344 199.8125 236.898438 C 228.890625 235.515625 256.46875 218.59375 285.765625 222.058594 C 306.472656 224.511719 326.992188 239.378906 334.765625 258.976562 C 344.03125 282.355469 326.851562 307.605469 325.179688 309.984375 C 328.375 268.011719 302.8125 246.761719 282.042969 244.636719 " fill-opacity="1" fill-rule="nonzero"/><path fill="rgb(63.919067%, 49.01886%, 30.979919%)" d="M 252.777344 327.851562 C 290.988281 322.53125 312.613281 296.914062 317.210938 291.195312 C 316.957031 309.847656 310.429688 320.621094 306.5625 325.726562 C 283.585938 356.046875 225.957031 355.828125 194.730469 329.976562 C 185.152344 322.050781 179.628906 313.011719 176.625 307.132812 C 181.710938 311.136719 211.308594 333.628906 252.777344 327.851562 " fill-opacity="1" fill-rule="nonzero"/><path fill="rgb(63.919067%, 49.01886%, 30.979919%)" d="M 102.578125 193.390625 C 104.109375 208.5 109.398438 232.445312 128.140625 250.769531 C 154.566406 276.605469 191.898438 275.792969 218.675781 275.207031 C 244.035156 274.65625 264.507812 269.15625 277.785156 264.582031 C 214.929688 304.039062 146.257812 296.949219 117.488281 260.863281 C 99.25 237.980469 100.6875 207.996094 102.578125 193.390625 " fill-opacity="1" fill-rule="nonzero"/><g clip-path="url(#clip-0)"><path fill="rgb(63.919067%, 49.01886%, 30.979919%)" d="M 288.148438 211.5625 C 288.148438 211.5625 250.667969 198.796875 230.402344 153.285156 C 210.132812 107.769531 238.175781 74.1875 238.175781 74.1875 C 238.175781 74.1875 212.078125 49.210938 151.277344 49.765625 C 90.476562 50.320312 44.113281 49.210938 6.910156 18.683594 C 6.910156 18.683594 22.183594 44.492188 80.207031 58.371094 C 138.230469 72.246094 186.8125 57.816406 212.355469 84.457031 C 212.355469 84.457031 186.535156 181.3125 288.148438 211.5625 Z M 288.148438 211.5625 " fill-opacity="1" fill-rule="nonzero"/></g><path fill="rgb(63.919067%, 49.01886%, 30.979919%)" d="M 266.214844 209.621094 C 266.214844 209.621094 260.324219 207.371094 252.035156 202.714844 C 252.035156 202.714844 240.671875 212.671875 219.851562 217.667969 C 219.851562 217.667969 232.066406 219.890625 246.226562 217.113281 C 260.382812 214.339844 266.214844 209.621094 266.214844 209.621094 Z M 266.214844 209.621094 " fill-opacity="1" fill-rule="nonzero"/><path fill="rgb(63.919067%, 49.01886%, 30.979919%)" d="M 232.65625 189.648438 C 236.367188 192.644531 240.078125 195.296875 243.605469 197.601562 C 243.605469 197.601562 206.246094 224.054688 161.273438 206.566406 C 161.273438 206.566406 184.316406 211.5625 207.914062 203.238281 C 227.867188 196.199219 232.65625 189.648438 232.65625 189.648438 Z M 232.65625 189.648438 " fill-opacity="1" fill-rule="nonzero"/><path fill="rgb(63.919067%, 49.01886%, 30.979919%)" d="M 227.835938 185.546875 C 222.664062 180.902344 217.652344 175.558594 213.300781 169.5 C 213.300781 169.5 199.027344 193.804688 144.335938 198.796875 C 144.335938 198.796875 158.773438 204.347656 187.367188 200.460938 C 215.964844 196.578125 227.835938 185.546875 227.835938 185.546875 Z M 227.835938 185.546875 " fill-opacity="1" fill-rule="nonzero"/><path fill="rgb(63.919067%, 49.01886%, 30.979919%)" d="M 210.007812 164.566406 C 208.976562 162.890625 207.996094 161.160156 207.082031 159.386719 C 204.597656 154.578125 202.621094 149.6875 201.058594 144.835938 C 201.058594 144.835938 179.875 149.398438 167.101562 150.785156 C 167.101562 150.785156 182.648438 151.894531 192.089844 154.949219 C 192.089844 154.949219 152.109375 187.972656 97.695312 167.160156 C 97.695312 167.160156 113.785156 181.4375 157.109375 180.480469 C 194.863281 179.648438 210.007812 164.566406 210.007812 164.566406 Z M 210.007812 164.566406 " fill-opacity="1" fill-rule="nonzero"/><path fill="rgb(63.919067%, 49.01886%, 30.979919%)" d="M 199.457031 139.363281 C 196.402344 127.777344 195.539062 116.738281 195.523438 108.046875 C 195.523438 108.046875 179.316406 104.996094 152.109375 102.496094 C 124.902344 100 98.53125 95.558594 78.539062 83.347656 C 78.539062 83.347656 90.753906 102.496094 177.929688 118.039062 L 178.761719 127.472656 C 178.761719 127.472656 152.664062 134.964844 117.128906 125.808594 C 81.59375 116.648438 66.601562 96.390625 66.601562 96.390625 C 66.601562 96.390625 83.257812 126.917969 125.179688 139.128906 C 167.101562 151.339844 199.457031 139.363281 199.457031 139.363281 Z M 199.457031 139.363281 " fill-opacity="1" fill-rule="nonzero"/><path fill="rgb(63.919067%, 49.01886%, 30.979919%)" d="M 195.738281 100.296875 C 196.101562 93.90625 196.808594 90.007812 196.808594 90.007812 C 196.808594 90.007812 180.429688 82.511719 143.503906 80.847656 C 106.578125 79.183594 52.441406 70.859375 26.347656 38.941406 C 26.347656 38.941406 36.339844 59.757812 73.542969 77.519531 C 110.742188 95.28125 154.054688 94.726562 172.65625 96.390625 C 191.257812 98.054688 195.738281 100.296875 195.738281 100.296875 Z M 195.738281 100.296875 " fill-opacity="1" fill-rule="nonzero"/><path fill="rgb(63.919067%, 49.01886%, 30.979919%)" d="M 164.324219 125.808594 C 164.324219 125.808594 154.054688 122.753906 149.335938 117.484375 C 149.335938 117.484375 86.867188 108.046875 44.949219 63.921875 C 44.949219 63.921875 85.480469 123.589844 164.324219 125.808594 Z M 164.324219 125.808594 " fill-opacity="1" fill-rule="nonzero"/><path fill="rgb(63.919067%, 49.01886%, 30.979919%)" d="M 175.152344 159.113281 C 175.152344 159.113281 166.269531 167.710938 147.390625 168.269531 C 147.390625 168.269531 99.359375 153.5625 82.425781 132.746094 C 82.425781 132.746094 117.683594 159.667969 175.152344 159.113281 Z M 175.152344 159.113281 " fill-opacity="1" fill-rule="nonzero"/></svg>