<svg xmlns="http://www.w3.org/2000/svg" width="810" viewBox="0 0 810 810" height="810" version="1.0"><defs><clipPath id="a"><path d="M 260 264 L 700 264 L 700 704 L 260 704 Z M 260 264"/></clipPath><clipPath id="b"><path d="M -6.210938 219.933594 L 215.464844 -1.746094 L 809.964844 592.753906 L 588.289062 814.433594 Z M -6.210938 219.933594"/></clipPath><clipPath id="c"><path d="M -6.210938 219.933594 L 215.464844 -1.746094 L 809.964844 592.753906 L 588.289062 814.433594 Z M -6.210938 219.933594"/></clipPath><clipPath id="d"><path d="M 245.777344 349.269531 L 345.207031 249.839844 L 750.871094 655.503906 L 651.441406 754.929688 Z M 245.777344 349.269531"/></clipPath><clipPath id="e"><path d="M 245.777344 349.269531 L 345.207031 249.839844 L 749.101562 653.734375 L 649.675781 753.164062 Z M 245.777344 349.269531"/></clipPath><clipPath id="f"><path d="M 171 175 L 393 175 L 393 397 L 171 397 Z M 171 175"/></clipPath><clipPath id="g"><path d="M -6.210938 219.933594 L 215.464844 -1.746094 L 809.964844 592.753906 L 588.289062 814.433594 Z M -6.210938 219.933594"/></clipPath><clipPath id="h"><path d="M -6.210938 219.933594 L 215.464844 -1.746094 L 809.964844 592.753906 L 588.289062 814.433594 Z M -6.210938 219.933594"/></clipPath><clipPath id="i"><path d="M 144.335938 369.578125 L 365.515625 148.398438 L 406.082031 188.964844 L 184.902344 410.144531 Z M 144.335938 369.578125"/></clipPath><clipPath id="j"><path d="M 144.335938 369.578125 L 365.070312 148.839844 L 405.636719 189.40625 L 184.902344 410.144531 Z M 144.335938 369.578125"/></clipPath><clipPath id="k"><path d="M 104 109 L 296 109 L 296 301 L 104 301 Z M 104 109"/></clipPath><clipPath id="l"><path d="M -6.210938 219.933594 L 215.464844 -1.746094 L 809.964844 592.753906 L 588.289062 814.433594 Z M -6.210938 219.933594"/></clipPath><clipPath id="m"><path d="M -6.210938 219.933594 L 215.464844 -1.746094 L 809.964844 592.753906 L 588.289062 814.433594 Z M -6.210938 219.933594"/></clipPath></defs><g clip-path="url(#a)"><g clip-path="url(#b)"><g clip-path="url(#c)"><g clip-path="url(#d)"><g clip-path="url(#e)"><path fill="#A37D4F" d="M 685.121094 682.476562 L 311.386719 308.742188 L 331.816406 281.183594 C 352.414062 307.015625 445.285156 422.824219 491.59375 469.132812 C 552.816406 530.355469 586.941406 525.386719 598.304688 520.820312 C 656.738281 588.097656 678.011719 653.265625 685.121094 682.476562 Z M 464.628906 496.101562 C 418.316406 449.789062 302.5 356.925781 276.671875 336.328125 L 304.238281 315.890625 L 677.972656 689.625 C 648.753906 682.523438 583.59375 661.242188 516.308594 602.820312 C 520.875 591.453125 525.851562 557.320312 464.628906 496.101562 Z M 498.734375 461.992188 C 447.132812 410.390625 336.746094 271.152344 335.636719 269.757812 L 331.550781 264.589844 L 301.125 305.628906 L 260.085938 336.054688 L 265.242188 340.148438 C 266.644531 341.25 405.875 451.628906 457.488281 503.242188 C 525.570312 571.324219 506.15625 600.738281 506.007812 600.953125 L 503.136719 604.691406 L 506.664062 607.804688 C 600.488281 690.726562 689.023438 702.421875 692.746094 702.882812 L 699.167969 703.671875 L 698.375 697.253906 C 697.917969 693.527344 686.214844 605.003906 603.292969 511.175781 L 600.179688 507.648438 L 596.4375 510.519531 C 596.160156 510.734375 566.707031 529.964844 498.734375 461.992188"/></g></g></g></g></g><g clip-path="url(#f)"><g clip-path="url(#g)"><g clip-path="url(#h)"><g clip-path="url(#i)"><g clip-path="url(#j)"><path fill="#A37D4F" d="M 392.074219 175.859375 L 299.28125 218.449219 L 338.039062 217.894531 L 213.390625 342.546875 L 213.9375 303.792969 L 171.347656 396.585938 L 294.808594 299.316406 L 392.074219 175.859375"/></g></g></g></g></g><g clip-path="url(#k)"><g clip-path="url(#l)"><g clip-path="url(#m)"><path fill="#A37D4F" d="M 153.65625 183.269531 C 198.945312 225.292969 245.375 300.101562 245.375 300.101562 L 295.597656 249.882812 C 295.597656 249.882812 220.78125 203.457031 178.765625 158.160156 C 178.765625 158.160156 194.101562 141.839844 171.179688 125.464844 C 148.265625 109.097656 104.601562 109.105469 104.601562 109.105469 C 104.601562 109.105469 104.589844 152.769531 120.957031 175.6875 C 137.335938 198.609375 153.65625 183.269531 153.65625 183.269531"/></g></g></g></svg>