<svg xmlns="http://www.w3.org/2000/svg" xmlns:xlink="http://www.w3.org/1999/xlink" width="810" height="810" contentScriptType="text/ecmascript" contentStyleType="text/css" preserveAspectRatio="xMidYMid meet" version="1.0" viewBox="0 0 810 810" zoomAndPan="magnify"><defs><clipPath id="clip-0"><path d="M 101.949219 12 L 705 12 L 705 798 L 101.949219 798 Z M 101.949219 12" clip-rule="nonzero"/></clipPath></defs><g clip-path="url(#clip-0)"><path fill="#A37D4F" fill-opacity="1" fill-rule="nonzero" d="M 237.488281 210.585938 C 243.621094 208.847656 247.609375 203.019531 246.945312 196.679688 C 246.28125 189.625 245.921875 183.746094 245.921875 178.171875 C 245.921875 101.132812 292.910156 38.453125 350.632812 38.453125 C 391.074219 38.453125 428.292969 70.253906 445.523438 119.535156 C 447.515625 125.3125 453.347656 128.890625 459.378906 128.175781 C 462.34375 127.867188 465.359375 127.613281 468.429688 127.613281 C 526.152344 127.613281 573.136719 190.289062 573.136719 267.28125 C 573.136719 284.101562 570.835938 300.355469 566.4375 315.847656 C 533.308594 321.367188 500.128906 344.324219 479.472656 379.851562 C 478.757812 381.132812 478.039062 382.359375 477.375 383.636719 C 432.894531 376.480469 390.253906 391.101562 363.71875 421.722656 L 363.71875 208.589844 C 363.71875 201.382812 357.839844 195.503906 350.632812 195.503906 C 343.421875 195.503906 337.542969 201.382812 337.542969 208.589844 L 337.542969 373.308594 L 268.265625 304.039062 C 263.152344 298.925781 254.871094 298.925781 249.757812 304.039062 C 244.644531 309.148438 244.644531 317.433594 249.757812 322.542969 L 337.542969 410.324219 L 337.542969 475.300781 C 320.773438 480.566406 303.238281 483.429688 285.1875 483.429688 C 198.578125 483.429688 128.125 420.75 128.125 343.710938 C 128.125 282.617188 172.09375 229.144531 237.488281 210.585938 Z M 635.410156 421.824219 C 634.234375 427.910156 637.558594 433.941406 643.230469 436.292969 C 645.023438 437.058594 646.8125 437.828125 648.550781 438.746094 C 648.550781 438.746094 648.550781 438.796875 648.550781 438.796875 C 661.433594 445.851562 670.585938 458.019531 674.980469 473.96875 C 681.476562 497.332031 676.925781 525.042969 662.507812 549.886719 C 637.300781 593.394531 589.90625 613.945312 556.828125 595.746094 C 551.664062 592.882812 547.011719 589.097656 542.921875 584.34375 C 540.363281 581.378906 536.734375 579.847656 533.003906 579.847656 C 530.804688 579.847656 528.554688 580.410156 526.558594 581.585938 C 502.886719 595.082031 473.796875 597.945312 446.085938 590.328125 L 528.246094 533.476562 C 534.179688 529.335938 535.660156 521.207031 531.570312 515.226562 C 527.429688 509.296875 519.300781 507.8125 513.316406 511.902344 L 417.558594 578.210938 C 392.554688 563.640625 374.148438 540.789062 366.992188 515.023438 C 360.855469 492.835938 363.464844 470.1875 374.457031 451.222656 C 394.394531 416.816406 437.496094 400.710938 481.722656 411.191406 C 487.804688 412.675781 494.09375 409.554688 496.652344 403.828125 C 498.285156 400.199219 500.078125 396.570312 502.171875 392.992188 C 527.378906 349.484375 574.824219 328.933594 607.851562 347.132812 C 630.65625 359.660156 641.441406 389.003906 635.410156 421.824219 Z M 363.71875 565.171875 C 372.207031 576.214844 382.484375 586.132812 394.242188 594.363281 L 363.71875 615.480469 Z M 101.949219 343.710938 C 101.949219 435.167969 184.160156 509.601562 285.1875 509.601562 C 303.082031 509.601562 320.671875 507.25 337.542969 502.652344 L 337.542969 771.351562 L 173.9375 771.351562 C 166.726562 771.351562 160.847656 777.230469 160.847656 784.441406 C 160.847656 791.648438 166.726562 797.527344 173.9375 797.527344 L 540.414062 797.527344 C 547.625 797.527344 553.503906 791.648438 553.503906 784.441406 C 553.503906 777.230469 547.625 771.351562 540.414062 771.351562 L 363.71875 771.351562 L 363.71875 647.328125 L 419.753906 608.578125 C 456.054688 624.375 496.703125 624.628906 530.496094 608.933594 C 534.742188 612.71875 539.289062 615.988281 544.199219 618.648438 C 556.164062 625.242188 569.40625 628.363281 582.953125 628.363281 C 620.839844 628.363281 661.382812 604.027344 685.15625 563.027344 C 703.101562 532.097656 708.574219 497.078125 700.238281 466.964844 C 694.105469 444.984375 680.757812 427.140625 662.558594 416.660156 C 666.75 376.53125 650.800781 340.898438 620.480469 324.179688 C 612.042969 319.578125 603.046875 316.664062 593.742188 315.335938 C 597.421875 299.847656 599.3125 283.792969 599.3125 267.28125 C 599.3125 175.105469 539.851562 99.902344 466.640625 101.4375 C 444.246094 46.941406 399.558594 12.277344 350.632812 12.277344 C 278.441406 12.277344 219.746094 86.714844 219.746094 178.171875 C 219.746094 181.546875 219.847656 184.972656 220.054688 188.601562 C 148.984375 212.988281 101.949219 274.078125 101.949219 343.710938"/></g></svg>