<?xml version="1.0" encoding="UTF-8"?><svg xmlns="http://www.w3.org/2000/svg" xmlns:xlink="http://www.w3.org/1999/xlink" contentScriptType="text/ecmascript" width="810" zoomAndPan="magnify" contentStyleType="text/css" viewBox="0 0 810 809.999993" height="809.999993" preserveAspectRatio="xMidYMid meet" version="1.0"><defs><clipPath id="clip-0"><path d="M 58.296875 6.074219 L 752.046875 6.074219 L 752.046875 804 L 58.296875 804 Z M 58.296875 6.074219 " clip-rule="nonzero"/></clipPath></defs><path fill="rgb(63.919067%, 49.01886%, 30.979919%)" d="M 601.621094 781.214844 C 601.605469 781.207031 601.59375 781.207031 601.582031 781.203125 L 601.621094 781.214844 " fill-opacity="1" fill-rule="nonzero"/><path fill="rgb(63.919067%, 49.01886%, 30.979919%)" d="M 356.914062 712.148438 L 356.910156 712.148438 C 356.90625 712.148438 356.902344 712.152344 356.898438 712.15625 L 356.914062 712.148438 " fill-opacity="1" fill-rule="nonzero"/><path fill="rgb(63.919067%, 49.01886%, 30.979919%)" d="M 526.777344 488.847656 C 526.777344 488.851562 526.777344 488.855469 526.777344 488.855469 C 526.769531 488.863281 526.769531 488.871094 526.765625 488.878906 L 526.777344 488.847656 " fill-opacity="1" fill-rule="nonzero"/><g clip-path="url(#clip-0)"><path fill="rgb(63.919067%, 49.01886%, 30.979919%)" d="M 725.148438 777.089844 L 725.007812 777.101562 C 724.6875 777.132812 723.847656 777.207031 722.511719 777.320312 C 721.882812 777.363281 721.398438 777.414062 721.003906 777.449219 L 721.027344 777.449219 C 719.398438 777.601562 717.207031 777.800781 714.792969 777.816406 L 714.699219 777.816406 L 703.660156 778.089844 C 702.777344 778.105469 702.007812 778.125 701.265625 778.144531 L 701.269531 778.144531 C 699.800781 778.191406 698.347656 778.226562 696.925781 778.226562 L 688.484375 778 C 677.285156 777.6875 664.5 776.632812 650.574219 774.847656 C 639.277344 773.273438 622.570312 770.71875 605.277344 766.40625 L 605.230469 766.394531 L 605.242188 766.394531 C 590.171875 762.71875 575.058594 758.082031 560.308594 752.695312 L 557.191406 751.554688 L 554.242188 753.046875 C 509.402344 775.707031 458.78125 788.488281 405.179688 788.496094 C 351.066406 788.488281 299.980469 775.46875 254.820312 752.410156 L 251.835938 750.886719 L 248.699219 752.046875 C 233.390625 757.71875 217.652344 762.570312 201.890625 766.417969 L 201.855469 766.421875 C 184.644531 770.71875 167.933594 773.273438 156.8125 774.828125 C 142.699219 776.632812 129.925781 777.6875 118.703125 778 L 110.285156 778.226562 C 108.871094 778.226562 107.40625 778.191406 105.9375 778.144531 L 105.949219 778.144531 C 105.195312 778.125 104.425781 778.105469 103.648438 778.089844 L 103.699219 778.089844 L 92.496094 777.816406 L 92.425781 777.816406 C 90.019531 777.800781 87.835938 777.601562 86.207031 777.449219 C 85.820312 777.414062 85.410156 777.371094 84.925781 777.339844 L 84.925781 777.335938 C 83.921875 777.253906 83.191406 777.195312 82.722656 777.152344 C 82.488281 777.132812 82.316406 777.113281 82.207031 777.101562 L 82.0625 777.089844 L 73.964844 776.296875 L 74.046875 765.261719 C 74.058594 764.789062 74.054688 764.394531 74.058594 764.03125 L 74.058594 764.023438 C 74.058594 762.410156 74.070312 760.234375 74.28125 757.867188 L 74.289062 757.796875 L 75.074219 746.742188 L 75.070312 746.789062 C 75.136719 745.933594 75.1875 745.164062 75.234375 744.425781 C 75.34375 742.761719 75.460938 741.101562 75.621094 739.507812 L 76.59375 731.6875 C 77.972656 720.554688 80.238281 707.9375 83.332031 694.265625 C 85.972656 683.160156 90.113281 666.773438 96.042969 649.972656 L 96.054688 649.933594 C 100.183594 638.070312 104.917969 626.210938 110.171875 614.589844 L 111.6875 611.242188 L 110.007812 607.964844 C 86.722656 562.65625 73.578125 511.351562 73.578125 456.992188 C 73.578125 380.640625 99.511719 310.292969 143.0625 254.183594 C 186.609375 198.078125 247.761719 156.273438 318.113281 137.113281 L 321.3125 136.242188 L 322.855469 133.3125 C 323.738281 131.636719 324.53125 130.058594 325.300781 128.636719 L 325.3125 128.617188 C 331.90625 116.378906 339.527344 104 349.339844 89.605469 L 350.847656 87.484375 L 356.308594 79.796875 L 356.332031 79.765625 C 357.035156 78.769531 357.683594 77.855469 358.328125 77.007812 L 358.285156 77.066406 L 363.257812 70.707031 L 363.265625 70.691406 C 366.460938 66.585938 369.386719 62.832031 372.476562 59.328125 L 372.515625 59.289062 L 377.828125 53.085938 L 390.152344 40.066406 L 390.207031 40.007812 C 391.796875 38.265625 393.378906 36.808594 394.554688 35.726562 C 394.839844 35.46875 395.140625 35.195312 395.492188 34.859375 L 397.59375 32.890625 L 397.589844 32.898438 L 403.628906 27.253906 L 411.875 34.890625 C 412.210938 35.210938 412.511719 35.484375 412.78125 35.730469 L 412.773438 35.726562 C 413.957031 36.8125 415.539062 38.273438 417.125 40.007812 L 417.175781 40.0625 L 430.046875 53.6875 L 434.796875 59.269531 L 434.84375 59.320312 C 437.902344 62.785156 440.78125 66.46875 443.933594 70.515625 L 448.957031 76.949219 L 448.914062 76.898438 C 449.679688 77.898438 450.328125 78.808594 451.050781 79.835938 L 458.003906 89.621094 C 467.835938 104.039062 475.453125 116.421875 482.039062 128.664062 L 482.0625 128.707031 L 482.058594 128.699219 C 482.636719 129.765625 483.265625 131.011719 483.980469 132.367188 L 485.542969 135.335938 L 488.796875 136.179688 C 560.023438 154.742188 622.035156 196.46875 666.226562 252.804688 C 710.414062 309.136719 736.773438 380.015625 736.78125 456.992188 C 736.78125 512.636719 722.984375 565.0625 698.664062 611.15625 L 696.9375 614.417969 L 698.433594 617.792969 C 703.128906 628.417969 707.425781 639.195312 711.183594 650.011719 L 711.195312 650.046875 C 717.101562 666.773438 721.242188 683.167969 723.847656 694.09375 C 726.976562 707.9375 729.242188 720.546875 730.621094 731.691406 L 730.621094 731.703125 L 731.589844 739.5 C 731.75 741.082031 731.867188 742.734375 731.976562 744.394531 C 732.019531 745.152344 732.074219 745.917969 732.136719 746.699219 L 732.136719 746.636719 L 732.921875 757.78125 L 732.929688 757.863281 C 733.148438 760.234375 733.152344 762.417969 733.160156 764.023438 L 733.160156 764.03125 C 733.160156 764.398438 733.160156 764.800781 733.167969 765.285156 L 733.199219 768.214844 L 733.238281 776.296875 Z M 748.425781 765.121094 L 748.425781 765.050781 L 748.417969 764.957031 C 748.414062 764.84375 748.414062 764.480469 748.414062 763.992188 L 748.414062 764 C 748.414062 762.375 748.402344 759.710938 748.136719 756.632812 L 747.351562 745.550781 L 747.351562 745.496094 C 747.300781 744.851562 747.253906 744.148438 747.199219 743.394531 C 747.089844 741.699219 746.964844 739.84375 746.769531 737.902344 L 746.757812 737.828125 L 745.757812 729.816406 L 745.757812 729.828125 C 744.308594 718.03125 741.941406 704.933594 738.707031 690.660156 L 738.695312 690.601562 L 738.691406 690.578125 C 736.035156 679.4375 731.785156 662.527344 725.582031 644.96875 L 725.597656 645.003906 C 722.082031 634.894531 718.117188 624.867188 713.832031 614.980469 C 738.21875 567.574219 752.039062 513.847656 752.039062 456.992188 C 752.039062 376.507812 724.445312 302.28125 678.230469 243.386719 C 632.710938 185.375 569.105469 142.214844 495.960938 122.359375 C 495.800781 122.042969 495.636719 121.742188 495.460938 121.414062 L 495.476562 121.441406 C 488.589844 108.640625 480.652344 95.757812 470.589844 81.003906 L 470.550781 80.945312 L 463.503906 71.03125 L 463.523438 71.050781 C 462.789062 70.007812 461.992188 68.886719 461.023438 67.628906 L 461 67.589844 L 455.964844 61.136719 C 452.839844 57.128906 449.789062 53.203125 446.355469 49.316406 L 441.40625 43.507812 L 428.3125 29.636719 C 426.234375 27.367188 424.277344 25.578125 423.089844 24.488281 L 423.078125 24.476562 C 422.726562 24.160156 422.46875 23.917969 422.386719 23.835938 L 422.308594 23.769531 L 403.582031 6.421875 L 387.171875 21.75 L 387.164062 21.757812 L 385 23.785156 L 384.953125 23.828125 C 384.871094 23.917969 384.601562 24.160156 384.246094 24.488281 C 383.058594 25.578125 381.105469 27.363281 379.03125 29.632812 L 366.472656 42.890625 L 360.960938 49.328125 L 360.960938 49.332031 C 357.492188 53.265625 354.394531 57.25 351.226562 61.328125 L 351.230469 61.316406 L 346.234375 67.714844 L 346.214844 67.738281 C 345.34375 68.875 344.578125 69.964844 343.847656 70.992188 L 338.410156 78.65625 L 338.40625 78.660156 L 336.769531 80.964844 L 336.742188 81.003906 C 326.699219 95.726562 318.765625 108.605469 311.878906 121.382812 L 311.890625 121.363281 C 311.523438 122.042969 311.179688 122.707031 310.839844 123.359375 C 238.59375 143.804688 175.863281 187.042969 131.007812 244.832031 C 85.472656 303.488281 58.316406 377.160156 58.320312 456.992188 C 58.316406 512.511719 71.480469 565.0625 94.804688 611.648438 C 89.957031 622.617188 85.53125 633.753906 81.644531 644.925781 L 81.65625 644.898438 C 75.433594 662.527344 71.179688 679.4375 68.480469 690.761719 L 68.472656 690.792969 L 68.464844 690.839844 C 65.269531 704.945312 62.910156 718.042969 61.453125 729.808594 L 60.457031 737.8125 L 60.445312 737.90625 C 60.25 739.855469 60.125 741.71875 60.011719 743.425781 C 59.960938 744.179688 59.917969 744.867188 59.859375 745.613281 L 59.074219 756.644531 C 58.808594 759.714844 58.804688 762.371094 58.800781 763.996094 L 58.800781 763.984375 C 58.800781 764.480469 58.800781 764.84375 58.792969 764.957031 L 58.792969 765.035156 L 58.605469 790.125 L 80.578125 792.269531 C 80.621094 792.269531 81.605469 792.367188 83.695312 792.539062 L 83.75 792.539062 L 83.804688 792.546875 C 83.941406 792.554688 84.292969 792.589844 84.75 792.632812 L 84.78125 792.636719 C 86.402344 792.785156 89.074219 793.035156 92.191406 793.066406 L 103.328125 793.335938 L 103.382812 793.339844 C 104.027344 793.351562 104.738281 793.371094 105.5 793.394531 L 105.511719 793.394531 C 107.011719 793.4375 108.644531 793.484375 110.355469 793.484375 L 110.476562 793.484375 L 119.125 793.246094 C 130.992188 792.914062 144.257812 791.8125 158.804688 789.953125 L 158.839844 789.941406 L 158.890625 789.941406 C 170.230469 788.359375 187.472656 785.722656 205.546875 781.222656 L 205.511719 781.234375 C 220.796875 777.503906 236.003906 772.839844 250.867188 767.460938 C 297.371094 790.65625 349.792969 803.746094 405.179688 803.746094 C 460.046875 803.746094 511.996094 790.890625 558.167969 768.101562 C 572.449219 773.203125 587.023438 777.644531 601.625 781.214844 C 619.761719 785.730469 636.988281 788.359375 648.515625 789.960938 L 648.542969 789.972656 L 648.59375 789.972656 C 662.953125 791.8125 676.222656 792.914062 688.058594 793.246094 L 696.75 793.484375 L 696.851562 793.484375 C 698.566406 793.484375 700.195312 793.4375 701.703125 793.394531 L 701.707031 793.394531 C 702.476562 793.371094 703.179688 793.351562 703.972656 793.335938 L 704.035156 793.335938 L 715.023438 793.066406 C 718.140625 793.035156 720.8125 792.785156 722.4375 792.636719 L 722.460938 792.632812 C 722.929688 792.589844 723.210938 792.5625 723.667969 792.527344 L 723.707031 792.527344 L 723.757812 792.519531 C 725.617188 792.367188 726.597656 792.269531 726.640625 792.269531 L 748.574219 790.125 L 748.453125 768.007812 L 748.425781 765.121094 " fill-opacity="1" fill-rule="nonzero"/></g><path fill="rgb(63.919067%, 49.01886%, 30.979919%)" d="M 696.847656 745.183594 L 696.769531 745.183594 L 689.339844 744.960938 C 679.242188 744.679688 667.597656 743.714844 654.980469 742.101562 C 644.601562 740.65625 629.050781 738.269531 613.199219 734.320312 L 613.164062 734.3125 C 639.066406 714.847656 662.140625 691.835938 681.71875 666.023438 C 686.226562 679.589844 689.515625 692.65625 691.640625 701.570312 C 694.488281 714.171875 696.566406 725.695312 697.808594 735.773438 L 697.8125 735.785156 L 698.714844 743.035156 C 698.777344 743.699219 698.824219 744.429688 698.875 745.140625 C 698.195312 745.160156 697.496094 745.183594 696.847656 745.183594 Z M 714.375 747.964844 C 714.324219 747.300781 714.261719 746.457031 714.210938 745.574219 C 714.125 744.328125 714.039062 742.949219 713.894531 741.464844 L 713.878906 741.371094 L 712.945312 733.890625 L 712.945312 733.898438 C 711.625 723.167969 709.449219 711.164062 706.507812 698.132812 L 706.496094 698.097656 L 706.484375 698.050781 C 704.042969 687.824219 700.085938 672.074219 694.390625 655.921875 C 693.347656 652.945312 692.265625 650.03125 691.195312 647.175781 L 686.097656 633.519531 L 677.789062 645.496094 C 654.46875 679.078125 625.136719 708.179688 591.328125 731.1875 L 577.90625 740.324219 L 593.507812 744.820312 C 598.800781 746.339844 604.144531 747.808594 609.535156 749.128906 L 609.503906 749.121094 C 626.21875 753.289062 642.289062 755.730469 652.886719 757.210938 L 652.925781 757.214844 L 652.972656 757.21875 C 666.0625 758.898438 678.222656 759.910156 688.996094 760.210938 L 696.546875 760.433594 L 696.847656 760.433594 C 698.253906 760.433594 699.570312 760.394531 700.761719 760.359375 L 700.746094 760.363281 C 701.648438 760.339844 702.5 760.3125 703.285156 760.296875 L 703.339844 760.296875 L 715.234375 760.003906 L 714.371094 747.910156 L 714.375 747.964844 " fill-opacity="1" fill-rule="nonzero"/><path fill="rgb(63.919067%, 49.01886%, 30.979919%)" d="M 694.386719 655.890625 C 694.386719 655.90625 694.390625 655.910156 694.394531 655.917969 L 694.394531 655.925781 L 694.386719 655.890625 " fill-opacity="1" fill-rule="nonzero"/><path fill="rgb(63.919067%, 49.01886%, 30.979919%)" d="M 554.824219 715.105469 C 551.761719 713.867188 548.632812 712.488281 545.339844 710.996094 L 545.3125 710.972656 L 545.011719 710.847656 L 544.96875 710.820312 L 544.933594 710.8125 C 538.472656 708.019531 531.535156 704.652344 522.421875 699.871094 L 522.453125 699.886719 C 506.808594 691.59375 491.925781 682.457031 478.207031 672.71875 L 478.195312 672.707031 C 463.960938 662.648438 450.277344 651.648438 437.527344 640.027344 C 452.699219 623.007812 466.492188 605.09375 478.691406 586.402344 C 484.464844 577.5625 489.339844 569.550781 493.472656 562.109375 L 496.785156 556.292969 L 500.125 549.960938 L 500.101562 550.007812 C 501.886719 546.667969 504.242188 542.210938 506.480469 537.46875 C 506.484375 537.460938 506.484375 537.457031 506.484375 537.449219 C 506.5 537.421875 506.515625 537.394531 506.53125 537.367188 C 514.238281 521.589844 521.050781 505.265625 526.777344 488.855469 C 529.324219 481.648438 531.691406 474.167969 533.96875 466.1875 C 545.964844 474.949219 557.636719 484.382812 568.882812 494.554688 L 568.882812 494.558594 C 581.863281 506.277344 594.289062 519.015625 605.816406 532.425781 L 605.828125 532.441406 C 616.8125 545.15625 627.328125 559.097656 637.027344 573.808594 L 637.007812 573.78125 C 642.65625 582.421875 646.667969 588.996094 650.082031 595.199219 L 650.097656 595.222656 L 650.246094 595.492188 L 650.277344 595.542969 L 650.285156 595.558594 C 652.277344 599.035156 654.328125 602.644531 656.15625 606.238281 L 656.175781 606.285156 L 657.371094 608.558594 L 657.371094 608.566406 C 658.160156 610.058594 658.898438 611.488281 659.609375 612.878906 C 633.695312 654.992188 597.617188 690.210938 554.824219 715.105469 Z M 674.871094 617.199219 L 676.957031 613.699219 L 675.214844 610.019531 C 673.847656 607.15625 672.390625 604.355469 670.882812 601.480469 L 670.886719 601.488281 L 669.714844 599.25 C 667.699219 595.289062 665.550781 591.515625 663.5625 588.042969 L 663.421875 587.792969 L 663.445312 587.839844 C 659.792969 581.207031 655.554688 574.269531 649.785156 565.441406 L 649.765625 565.414062 C 639.71875 550.175781 628.816406 535.714844 617.375 522.472656 L 617.390625 522.484375 C 605.441406 508.585938 592.578125 495.394531 579.113281 483.238281 L 579.117188 483.242188 C 564.648438 470.152344 549.511719 458.183594 533.851562 447.34375 L 524.882812 441.136719 L 522.125 451.6875 C 519.039062 463.507812 515.882812 473.894531 512.378906 483.796875 L 512.371094 483.828125 C 506.84375 499.691406 500.234375 515.503906 492.773438 530.761719 L 492.761719 530.792969 L 492.726562 530.863281 C 490.660156 535.253906 488.40625 539.53125 486.648438 542.808594 L 483.40625 548.960938 L 480.160156 554.664062 L 480.132812 554.703125 C 476.214844 561.761719 471.527344 569.460938 465.914062 578.066406 C 452.855469 598.085938 437.878906 617.230469 421.234375 635.316406 L 416.125 640.859375 L 421.613281 646.027344 C 423.226562 647.546875 424.890625 649.164062 426.695312 650.8125 C 440.082031 663.050781 454.433594 674.597656 469.390625 685.167969 L 469.378906 685.15625 C 483.671875 695.289062 499.097656 704.769531 515.300781 713.359375 L 515.328125 713.375 C 524.621094 718.25 531.914062 721.800781 538.816406 724.785156 L 539.0625 724.894531 C 542.859375 726.617188 546.683594 728.335938 550.625 729.878906 L 552.542969 730.664062 L 555.960938 732.058594 L 559.175781 730.238281 C 606.878906 703.265625 646.835938 664.195312 674.871094 617.199219 " fill-opacity="1" fill-rule="nonzero"/><path fill="rgb(63.919067%, 49.01886%, 30.979919%)" d="M 405.175781 755.449219 C 372.417969 755.441406 340.910156 750.128906 311.414062 740.34375 C 327.402344 731.667969 342.710938 722.21875 356.910156 712.148438 C 372.992188 700.785156 388.429688 688.363281 402.8125 675.210938 L 402.808594 675.214844 C 403.082031 674.960938 403.335938 674.714844 403.605469 674.464844 C 403.871094 674.714844 404.121094 674.953125 404.398438 675.207031 C 418.785156 688.367188 434.230469 700.792969 450.285156 712.136719 L 450.273438 712.125 C 464.832031 722.453125 480.519531 732.121094 496.960938 740.984375 C 468.03125 750.355469 437.207031 755.441406 405.175781 755.449219 Z M 506.996094 729.097656 L 507.023438 729.113281 C 490.0625 720.121094 473.960938 710.230469 459.101562 699.6875 L 459.09375 699.675781 C 443.558594 688.707031 428.601562 676.667969 414.6875 663.945312 C 412.78125 662.207031 410.867188 660.351562 408.847656 658.445312 L 403.605469 653.488281 L 398.367188 658.441406 C 396.34375 660.355469 394.425781 662.207031 392.515625 663.949219 L 392.515625 663.953125 C 378.609375 676.667969 363.65625 688.703125 348.09375 699.699219 L 348.082031 699.707031 C 333.257812 710.21875 317.148438 720.121094 300.25 729.078125 C 296.195312 731.207031 292.542969 733.074219 289.125 734.757812 L 273.75 742.355469 L 289.6875 748.6875 C 325.449219 762.886719 364.433594 770.699219 405.175781 770.699219 C 445.242188 770.699219 483.597656 763.136719 518.867188 749.382812 L 535.066406 743.066406 L 519.445312 735.433594 C 515.652344 733.574219 511.578125 731.503906 506.996094 729.097656 " fill-opacity="1" fill-rule="nonzero"/><path fill="rgb(63.919067%, 49.01886%, 30.979919%)" d="M 160.949219 285.546875 C 191.851562 241.691406 234.292969 206.542969 283.765625 184.429688 L 282.300781 188.453125 L 280.085938 195.222656 L 280.109375 195.148438 C 277.328125 203.378906 274.679688 212.367188 272.015625 222.613281 C 262.351562 259.683594 257.417969 298.667969 257.332031 338.46875 L 257.332031 338.449219 C 257.332031 338.785156 257.332031 339.113281 257.332031 339.457031 C 257.332031 340.816406 257.371094 342.152344 257.386719 343.507812 L 257.207031 343.523438 L 257.332031 366.027344 L 257.371094 368.984375 L 257.371094 369.140625 C 257.378906 369.265625 257.378906 369.628906 257.382812 370.121094 L 257.382812 370.105469 C 257.390625 371.71875 257.398438 374.371094 257.679688 377.425781 L 259.046875 395.625 L 260.105469 404.042969 L 260.109375 404.042969 C 260.535156 407.882812 261.132812 411.585938 261.757812 415.300781 C 242.335938 428.199219 223.652344 442.691406 205.9375 458.722656 L 205.945312 458.714844 C 191.453125 471.796875 177.609375 485.992188 164.800781 500.886719 L 164.8125 500.871094 C 152.449219 515.195312 140.675781 530.796875 129.769531 547.335938 L 129.753906 547.359375 C 127.585938 550.683594 125.613281 553.761719 123.789062 556.683594 C 112.695312 525.492188 106.636719 491.953125 106.632812 456.996094 C 106.636719 393.210938 126.734375 334.105469 160.949219 285.546875 Z M 121.304688 591.535156 L 128.976562 577.816406 C 132.621094 571.300781 136.824219 564.429688 142.519531 555.71875 C 153.074219 539.714844 164.453125 524.632812 176.359375 510.84375 L 176.371094 510.828125 C 188.757812 496.421875 202.164062 482.683594 216.171875 470.035156 L 216.179688 470.027344 C 234.566406 453.386719 254.011719 438.445312 274.257812 425.3125 L 278.476562 422.578125 L 277.433594 416.519531 C 276.554688 411.457031 275.761719 406.835938 275.257812 402.257812 L 275.246094 402.160156 L 274.230469 394.089844 L 272.886719 376.222656 L 272.882812 376.144531 C 272.660156 373.792969 272.644531 371.640625 272.640625 370.046875 L 272.640625 370.03125 C 272.636719 369.648438 272.636719 369.242188 272.625 368.746094 L 272.585938 365.773438 L 272.585938 365.828125 L 272.542969 357.554688 L 272.910156 357.523438 L 272.738281 350.339844 C 272.652344 346.671875 272.585938 343.035156 272.585938 339.457031 C 272.585938 339.144531 272.585938 338.832031 272.589844 338.511719 L 272.589844 338.496094 C 272.671875 299.933594 277.453125 262.230469 286.777344 226.457031 C 289.375 216.484375 291.921875 207.851562 294.566406 200.035156 L 294.578125 199.996094 L 296.722656 193.433594 L 298.945312 187.328125 L 298.964844 187.277344 C 300.289062 183.558594 301.914062 179.105469 303.722656 174.75 L 303.742188 174.703125 L 303.769531 174.640625 C 303.851562 174.425781 304.027344 174.03125 304.261719 173.449219 L 310.769531 157.304688 L 294.488281 163.460938 C 235.1875 185.886719 184.429688 225.746094 148.472656 276.761719 C 112.519531 327.773438 91.371094 389.992188 91.375 456.996094 C 91.375 499.46875 99.890625 540.035156 115.273438 577.023438 L 121.304688 591.535156 " fill-opacity="1" fill-rule="nonzero"/><path fill="rgb(63.919067%, 49.01886%, 30.979919%)" d="M 305.644531 338.621094 L 305.644531 338.589844 C 305.722656 302.796875 310.144531 267.867188 318.769531 234.78125 C 321.167969 225.574219 323.492188 217.679688 325.945312 210.425781 L 325.957031 210.390625 L 327.886719 204.457031 L 330.046875 198.523438 L 330.066406 198.476562 C 331.355469 194.859375 332.734375 191.078125 334.351562 187.179688 L 334.371094 187.128906 L 334.394531 187.078125 C 337.367188 179.59375 340.65625 172.199219 344.101562 164.871094 C 363.828125 160.75 384.242188 158.542969 405.175781 158.542969 C 424.929688 158.542969 444.214844 160.507812 462.894531 164.183594 C 466.46875 171.726562 469.863281 179.355469 472.929688 187.074219 L 472.957031 187.140625 L 473.050781 187.375 L 473.0625 187.398438 L 473.074219 187.425781 C 474.625 191.15625 476.050781 195.074219 477.304688 198.597656 L 477.316406 198.625 L 478.777344 202.644531 L 481.46875 210.683594 C 483.855469 217.742188 486.175781 225.613281 488.5625 234.78125 C 497.183594 267.851562 501.601562 302.78125 501.6875 338.605469 L 501.6875 339.222656 C 501.6875 339.699219 501.671875 340.203125 501.667969 340.683594 L 497.714844 340.605469 L 489.640625 340.867188 C 484.390625 340.957031 479.363281 341.34375 474.214844 341.738281 L 474.222656 341.738281 L 466.199219 342.339844 L 466.132812 342.34375 C 464.710938 342.46875 463.398438 342.625 462.164062 342.777344 L 462.042969 342.792969 L 450.3125 344.207031 L 449.929688 344.261719 L 449.914062 344.265625 C 432.371094 346.726562 417.59375 349.496094 403.605469 352.96875 C 389.585938 349.492188 374.824219 346.722656 357.300781 344.265625 L 357.234375 344.25 L 345.027344 342.777344 L 345.0625 342.78125 C 343.816406 342.625 342.476562 342.460938 340.929688 342.335938 L 332.996094 341.738281 L 333 341.738281 C 327.855469 341.34375 322.824219 340.957031 317.578125 340.867188 L 309.507812 340.605469 L 305.667969 340.683594 C 305.664062 340.222656 305.644531 339.742188 305.644531 339.28125 C 305.644531 339.042969 305.644531 338.824219 305.644531 338.621094 Z M 290.390625 338.523438 C 290.390625 338.53125 290.390625 338.546875 290.390625 338.558594 L 290.390625 338.523438 C 290.390625 338.792969 290.390625 339.042969 290.390625 339.28125 C 290.390625 342.441406 290.457031 345.554688 290.515625 348.617188 L 290.671875 356.238281 L 309.402344 355.863281 L 317.152344 356.113281 L 317.210938 356.117188 C 321.886719 356.183594 326.636719 356.546875 331.839844 356.945312 L 331.847656 356.945312 L 339.722656 357.539062 L 339.667969 357.535156 C 340.875 357.636719 341.957031 357.765625 343.160156 357.917969 L 343.246094 357.925781 L 355.273438 359.378906 C 372.511719 361.804688 386.773438 364.496094 400.273438 367.851562 L 400.304688 367.855469 C 400.589844 367.929688 401.074219 368.066406 401.761719 368.238281 L 403.613281 368.703125 L 405.46875 368.238281 C 406.140625 368.066406 406.640625 367.921875 406.972656 367.847656 L 406.992188 367.835938 C 420.46875 364.488281 434.753906 361.792969 452.035156 359.363281 L 452.277344 359.332031 L 464.015625 357.921875 L 464.042969 357.917969 C 465.25 357.765625 466.359375 357.636719 467.414062 357.542969 L 467.351562 357.546875 L 475.367188 356.945312 L 475.378906 356.945312 C 480.578125 356.546875 485.328125 356.183594 490.003906 356.117188 L 490.070312 356.113281 L 497.804688 355.863281 L 516.65625 356.238281 L 516.816406 348.617188 C 516.875 345.539062 516.949219 342.40625 516.949219 339.222656 L 516.949219 338.5625 C 516.855469 301.515625 512.285156 265.308594 503.328125 230.9375 C 500.863281 221.476562 498.4375 213.226562 495.902344 205.738281 L 493.179688 197.617188 L 491.664062 193.433594 L 491.683594 193.488281 C 490.398438 189.882812 488.890625 185.722656 487.164062 181.574219 L 487.183594 181.621094 L 487.085938 181.382812 L 487.109375 181.445312 C 483.429688 172.175781 479.375 163.058594 475.050781 154.132812 L 473.421875 150.753906 L 469.75 149.984375 C 448.902344 145.605469 427.304688 143.292969 405.175781 143.292969 C 381.824219 143.292969 359.050781 145.878906 337.132812 150.746094 L 333.519531 151.542969 L 331.914062 154.878906 C 327.746094 163.546875 323.828125 172.375 320.257812 181.347656 C 320.25 181.355469 320.246094 181.371094 320.242188 181.382812 C 320.234375 181.402344 320.222656 181.429688 320.214844 181.449219 C 318.460938 185.6875 317 189.699219 315.695312 193.355469 L 313.464844 199.480469 L 311.464844 205.621094 C 308.882812 213.265625 306.460938 221.5 304.003906 230.933594 C 295.046875 265.3125 290.472656 301.503906 290.390625 338.523438 " fill-opacity="1" fill-rule="nonzero"/><path fill="rgb(63.919067%, 49.01886%, 30.979919%)" d="M 376.53125 108.40625 L 382.179688 100.457031 L 382.144531 100.503906 C 382.578125 99.90625 382.984375 99.332031 383.367188 98.785156 C 383.820312 98.136719 384.226562 97.5625 384.460938 97.253906 L 389.347656 91.003906 L 389.351562 90.996094 C 392.382812 87.101562 394.921875 83.84375 397.347656 81.105469 L 397.378906 81.070312 L 402.183594 75.433594 L 403.664062 73.867188 L 405.132812 75.421875 L 409.945312 81.066406 L 409.992188 81.121094 C 412.378906 83.8125 414.875 87 417.859375 90.828125 L 417.859375 90.835938 L 422.785156 97.136719 C 423.136719 97.609375 423.539062 98.175781 424.015625 98.855469 L 424.039062 98.886719 L 430.808594 108.421875 C 431.488281 109.425781 432.148438 110.402344 432.808594 111.382812 C 423.691406 110.660156 414.480469 110.246094 405.175781 110.246094 C 394.773438 110.246094 384.496094 110.761719 374.324219 111.671875 C 375.050781 110.589844 375.777344 109.511719 376.53125 108.40625 Z M 405.175781 125.5 C 419.3125 125.5 433.238281 126.390625 446.917969 128.117188 L 462.867188 130.128906 L 454.339844 116.503906 C 450.992188 111.164062 447.375 105.632812 443.363281 99.753906 L 443.328125 99.703125 L 436.476562 90.054688 L 436.492188 90.078125 C 436.035156 89.429688 435.503906 88.671875 434.859375 87.832031 L 434.847656 87.808594 L 429.886719 81.453125 L 429.886719 81.457031 C 426.9375 77.675781 424.3125 74.296875 421.515625 71.121094 L 416.492188 65.234375 L 403.667969 51.652344 L 390.828125 65.234375 L 385.824219 71.105469 L 385.828125 71.105469 C 382.980469 74.335938 380.308594 77.773438 377.3125 81.625 L 377.316406 81.617188 L 372.382812 87.933594 L 372.347656 87.976562 C 371.808594 88.6875 371.335938 89.371094 370.886719 90.011719 C 370.507812 90.550781 370.140625 91.070312 369.777344 91.574219 L 363.996094 99.703125 L 363.960938 99.757812 C 359.835938 105.808594 356.125 111.484375 352.707031 116.960938 L 344.089844 130.753906 L 360.203125 128.5625 C 374.921875 126.554688 389.925781 125.5 405.175781 125.5 " fill-opacity="1" fill-rule="nonzero"/><path fill="rgb(63.919067%, 49.01886%, 30.979919%)" d="M 648.351562 284.039062 C 683.207031 332.875 703.71875 392.550781 703.726562 456.992188 C 703.71875 493.15625 697.246094 527.804688 685.410156 559.894531 C 683.046875 556.023438 680.425781 551.894531 677.421875 547.304688 L 677.402344 547.28125 C 666.535156 530.796875 654.769531 515.191406 642.425781 500.902344 L 642.4375 500.914062 C 629.613281 485.992188 615.769531 471.800781 601.285156 458.726562 L 601.285156 458.730469 C 583.566406 442.695312 564.875 428.199219 545.460938 415.300781 C 546.082031 411.59375 546.675781 407.890625 547.105469 404.058594 L 547.109375 404.058594 L 548.078125 396.476562 L 549.535156 377.4375 L 549.53125 377.4375 C 549.816406 374.378906 549.824219 371.730469 549.832031 370.125 C 549.832031 369.628906 549.832031 369.265625 549.839844 369.179688 L 549.839844 369.066406 L 550.046875 343.425781 L 549.949219 343.417969 C 549.964844 342.078125 550.003906 340.742188 550.003906 339.390625 C 550.003906 339.082031 550.003906 338.777344 550.003906 338.484375 C 549.910156 298.648438 544.976562 259.664062 535.320312 222.613281 C 532.667969 212.410156 530.027344 203.449219 527.3125 195.417969 L 525.203125 188.972656 L 522.988281 182.835938 C 573.433594 204.585938 616.785156 239.820312 648.351562 284.039062 Z M 503.617188 174.765625 L 503.628906 174.804688 L 503.648438 174.863281 C 505.472656 179.265625 507.074219 183.636719 508.40625 187.394531 L 508.421875 187.433594 L 510.78125 193.933594 L 512.804688 200.144531 L 512.835938 200.226562 C 515.414062 207.855469 517.964844 216.492188 520.554688 226.453125 C 529.871094 262.214844 534.65625 299.921875 534.75 338.515625 C 534.75 338.808594 534.75 339.101562 534.75 339.390625 C 534.75 342.996094 534.675781 346.648438 534.597656 350.347656 L 534.425781 357.621094 L 534.675781 357.636719 L 534.589844 368.839844 C 534.578125 369.3125 534.582031 369.703125 534.578125 370.042969 C 534.574219 371.65625 534.558594 373.800781 534.332031 376.140625 L 534.324219 376.234375 L 532.898438 394.914062 L 531.964844 402.183594 L 531.957031 402.25 C 531.453125 406.820312 530.664062 411.425781 529.792969 416.46875 L 529.59375 417.621094 L 528.738281 422.574219 L 532.957031 425.3125 C 553.203125 438.449219 572.648438 453.390625 591.054688 470.039062 L 591.058594 470.042969 C 605.054688 482.679688 618.460938 496.421875 630.871094 510.859375 L 630.878906 510.871094 C 642.765625 524.636719 654.148438 539.722656 664.664062 555.671875 C 670.777344 565.023438 675.15625 572.21875 678.972656 579.128906 L 679.011719 579.203125 L 679.039062 579.238281 C 679.335938 579.761719 679.6875 580.402344 680.070312 581.074219 L 687.671875 594.359375 L 693.703125 580.296875 C 709.964844 542.429688 718.980469 500.730469 718.980469 456.992188 C 718.980469 389.296875 697.398438 326.484375 660.769531 275.175781 C 624.132812 223.863281 572.457031 184.007812 512.191406 162.082031 L 496.078125 156.226562 L 502.515625 172.113281 C 502.9375 173.160156 503.324219 174.042969 503.617188 174.765625 " fill-opacity="1" fill-rule="nonzero"/><path fill="rgb(63.919067%, 49.01886%, 30.979919%)" d="M 488.878906 442.304688 C 486.265625 452.347656 484.089844 459.738281 481.820312 466.375 L 481.714844 466.695312 L 481.6875 466.769531 L 481.683594 466.777344 C 480.394531 470.785156 479.15625 474.566406 477.722656 478.300781 L 477.707031 478.34375 L 476.859375 480.664062 L 476.859375 480.667969 C 475.679688 483.917969 474.597656 486.878906 473.464844 489.582031 L 473.449219 489.617188 L 473.320312 489.941406 L 473.296875 489.992188 L 473.292969 490.003906 C 467.503906 504.582031 460.773438 518.941406 453.273438 532.722656 L 453.230469 532.800781 L 453.25 532.753906 C 445.5625 547.066406 436.851562 560.1875 431.039062 568.679688 C 423.636719 579.257812 416.5 588.539062 409.882812 596.246094 L 409.875 596.257812 L 405.121094 601.796875 C 404.675781 602.296875 404.15625 602.824219 403.667969 603.339844 C 403.175781 602.824219 402.65625 602.296875 402.210938 601.800781 L 397.441406 596.242188 L 397.433594 596.230469 C 390.816406 588.539062 383.679688 579.238281 376.378906 568.808594 C 370.464844 560.15625 361.761719 547.050781 354.035156 532.683594 L 354.019531 532.65625 C 346.558594 518.949219 339.832031 504.59375 334.035156 490.003906 L 334.019531 489.960938 L 333.898438 489.660156 L 333.878906 489.617188 L 333.871094 489.605469 C 332.726562 486.859375 331.632812 483.867188 330.4375 480.582031 L 330.433594 480.570312 L 329.566406 478.207031 L 329.554688 478.175781 L 329.53125 478.109375 C 328.183594 474.570312 326.933594 470.761719 325.640625 466.761719 L 325.628906 466.726562 L 325.527344 466.425781 L 325.503906 466.359375 L 325.511719 466.378906 C 323.226562 459.691406 321.054688 452.300781 318.472656 442.382812 C 318.105469 440.945312 317.777344 439.464844 317.429688 438.007812 C 319.621094 436.808594 321.804688 435.570312 324.007812 434.417969 C 332.445312 429.992188 339.855469 426.402344 346.859375 423.339844 L 346.816406 423.359375 L 358.476562 418.351562 C 362.039062 416.859375 365.796875 415.332031 369.476562 414.003906 L 369.601562 413.964844 L 369.742188 413.914062 L 369.824219 413.882812 C 380.894531 409.726562 392.214844 406.082031 403.605469 402.921875 C 414.984375 406.070312 426.3125 409.71875 437.390625 413.882812 L 437.441406 413.902344 L 437.472656 413.914062 L 437.710938 414 L 437.761719 414.023438 L 437.742188 414.011719 C 441.394531 415.320312 445.144531 416.855469 448.816406 418.386719 L 460.550781 423.433594 C 467.359375 426.402344 474.765625 429.992188 483.207031 434.417969 C 485.445312 435.589844 487.660156 436.847656 489.886719 438.070312 C 489.550781 439.484375 489.230469 440.917969 488.878906 442.304688 Z M 503.648438 446.132812 L 503.65625 446.101562 C 504.539062 442.640625 505.324219 439.238281 506.089844 435.890625 L 507.367188 430.355469 L 502.433594 427.550781 C 498.421875 425.269531 494.375 423.050781 490.289062 420.910156 C 481.601562 416.355469 473.863281 412.59375 466.636719 409.441406 L 466.59375 409.417969 L 454.769531 404.339844 L 454.71875 404.320312 C 450.96875 402.757812 446.980469 401.121094 442.882812 399.652344 L 442.675781 399.574219 C 430.5 395.003906 418.074219 391.019531 405.605469 387.636719 L 403.605469 387.09375 L 401.609375 387.636719 C 389.121094 391.03125 376.699219 395.007812 364.539062 399.574219 L 364.296875 399.664062 L 364.320312 399.65625 C 360.226562 401.125 356.242188 402.757812 352.597656 404.273438 L 352.5625 404.289062 L 340.730469 409.367188 L 340.746094 409.363281 C 333.347656 412.601562 325.605469 416.355469 316.921875 420.90625 C 312.878906 423.03125 308.867188 425.226562 304.886719 427.488281 L 299.949219 430.289062 L 301.222656 435.824219 C 302 439.21875 302.800781 442.671875 303.695312 446.171875 L 303.703125 446.203125 C 306.34375 456.351562 308.628906 464.15625 311.074219 471.3125 L 311.058594 471.265625 L 311.128906 471.476562 C 312.421875 475.476562 313.734375 479.480469 315.238281 483.445312 L 316.101562 485.8125 L 316.097656 485.796875 C 317.289062 489.0625 318.449219 492.253906 319.777344 495.433594 L 319.859375 495.640625 C 325.882812 510.796875 332.863281 525.695312 340.613281 539.941406 L 340.597656 539.914062 C 348.753906 555.066406 357.761719 568.597656 363.800781 577.441406 L 363.820312 577.46875 L 363.847656 577.503906 C 371.394531 588.296875 378.820312 597.972656 385.863281 606.171875 L 385.859375 606.167969 L 390.785156 611.910156 L 390.851562 611.980469 C 391.851562 613.089844 392.828125 614.097656 393.6875 614.992188 L 393.699219 615.003906 C 394.300781 615.621094 394.871094 616.21875 395.402344 616.78125 L 395.4375 616.816406 L 403.667969 625.429688 L 411.976562 616.734375 L 412.003906 616.703125 C 412.457031 616.226562 413.042969 615.613281 413.652344 614.976562 L 413.648438 614.988281 C 414.519531 614.085938 415.488281 613.082031 416.492188 611.972656 L 416.558594 611.894531 L 421.460938 606.183594 L 421.453125 606.1875 C 428.511719 597.976562 435.933594 588.296875 443.585938 577.359375 L 443.640625 577.285156 C 449.566406 568.605469 458.566406 555.074219 466.6875 540 C 474.476562 525.675781 481.457031 510.777344 487.472656 495.632812 L 487.449219 495.695312 L 487.566406 495.402344 L 487.566406 495.398438 C 488.878906 492.261719 490.027344 489.105469 491.199219 485.875 L 491.199219 485.878906 L 492.019531 483.632812 C 493.589844 479.507812 494.894531 475.515625 496.179688 471.542969 L 496.269531 471.261719 L 496.253906 471.3125 C 498.691406 464.195312 500.972656 456.398438 503.648438 446.132812 " fill-opacity="1" fill-rule="nonzero"/><path fill="rgb(63.919067%, 49.01886%, 30.979919%)" d="M 319.882812 495.699219 L 319.859375 495.640625 C 319.859375 495.640625 319.859375 495.632812 319.855469 495.632812 L 319.882812 495.699219 " fill-opacity="1" fill-rule="nonzero"/><path fill="rgb(63.919067%, 49.01886%, 30.979919%)" d="M 488.875 442.3125 L 488.847656 442.414062 L 488.875 442.328125 C 488.875 442.320312 488.875 442.316406 488.875 442.3125 " fill-opacity="1" fill-rule="nonzero"/><path fill="rgb(63.919067%, 49.01886%, 30.979919%)" d="M 268.191406 724.875 C 268.1875 724.878906 268.1875 724.878906 268.1875 724.878906 L 268.152344 724.890625 L 268.191406 724.875 " fill-opacity="1" fill-rule="nonzero"/><path fill="rgb(63.919067%, 49.01886%, 30.979919%)" d="M 337.808594 685.175781 C 337.804688 685.179688 337.800781 685.179688 337.800781 685.179688 C 337.796875 685.179688 337.796875 685.179688 337.796875 685.179688 L 337.808594 685.175781 " fill-opacity="1" fill-rule="nonzero"/><path fill="rgb(63.919067%, 49.01886%, 30.979919%)" d="M 112.839844 655.855469 C 112.84375 655.851562 112.847656 655.84375 112.851562 655.832031 C 112.851562 655.832031 112.851562 655.828125 112.851562 655.824219 L 112.839844 655.855469 " fill-opacity="1" fill-rule="nonzero"/><path fill="rgb(63.919067%, 49.01886%, 30.979919%)" d="M 262.28125 710.8125 L 262.1875 710.851562 L 261.910156 710.972656 L 261.875 710.996094 C 259.269531 712.175781 256.742188 713.28125 254.210938 714.347656 C 211.054688 688.945312 174.8125 653.007812 149.050781 610.097656 C 149.324219 609.570312 149.574219 609.074219 149.859375 608.53125 L 149.863281 608.523438 L 151.113281 606.132812 L 151.140625 606.082031 C 152.871094 602.671875 154.839844 599.195312 156.929688 595.554688 L 157.101562 595.246094 L 157.128906 595.199219 L 157.132812 595.199219 C 160.539062 589.003906 164.550781 582.421875 170.15625 573.847656 C 179.890625 559.085938 190.402344 545.148438 201.40625 532.410156 L 201.417969 532.402344 C 212.925781 519.011719 225.347656 506.277344 238.34375 494.546875 L 238.347656 494.539062 C 249.578125 484.378906 261.246094 474.949219 273.246094 466.1875 C 275.519531 474.160156 277.882812 481.628906 280.421875 488.816406 L 280.410156 488.789062 C 286.15625 505.265625 292.976562 521.589844 300.683594 537.359375 C 300.6875 537.375 300.695312 537.390625 300.703125 537.40625 C 300.710938 537.421875 300.722656 537.445312 300.730469 537.46875 C 302.96875 542.207031 305.320312 546.667969 307.039062 549.871094 L 307.011719 549.816406 L 309.429688 554.425781 L 313.660156 561.964844 L 313.644531 561.941406 C 317.875 569.558594 322.75 577.566406 328.519531 586.402344 C 340.71875 605.09375 354.511719 623.007812 369.683594 640.027344 C 356.933594 651.644531 343.253906 662.648438 328.988281 672.734375 L 328.976562 672.738281 C 315.285156 682.449219 300.402344 691.59375 284.828125 699.851562 C 275.660156 704.660156 268.734375 708.019531 262.28125 710.8125 Z M 291.945312 713.339844 L 291.972656 713.324219 C 308.109375 704.769531 323.539062 695.296875 337.800781 685.179688 C 352.78125 674.597656 367.132812 663.046875 380.507812 650.820312 L 380.503906 650.824219 C 382.3125 649.167969 383.984375 647.546875 385.59375 646.027344 L 391.078125 640.859375 L 385.976562 635.316406 C 369.332031 617.230469 354.359375 598.085938 341.296875 578.066406 C 335.679688 569.46875 331.003906 561.769531 326.980469 554.535156 L 326.933594 554.4375 L 322.835938 547.136719 L 320.496094 542.679688 L 320.488281 542.671875 C 318.804688 539.53125 316.550781 535.25 314.488281 530.867188 L 314.457031 530.800781 L 314.4375 530.761719 C 306.976562 515.511719 300.371094 499.691406 294.816406 483.765625 L 294.808594 483.738281 C 291.328125 473.886719 288.171875 463.503906 285.082031 451.6875 L 282.324219 441.136719 L 273.359375 447.34375 C 257.699219 458.183594 242.566406 470.144531 228.109375 483.230469 L 228.113281 483.226562 C 214.636719 495.394531 201.773438 508.585938 189.847656 522.460938 L 189.859375 522.445312 C 178.398438 535.714844 167.496094 550.167969 157.40625 565.464844 L 157.351562 565.554688 L 157.390625 565.492188 C 151.652344 574.269531 147.417969 581.207031 143.765625 587.839844 L 143.792969 587.789062 L 143.65625 588.03125 L 143.691406 587.96875 C 141.597656 591.621094 139.515625 595.289062 137.578125 599.089844 L 136.34375 601.449219 L 136.347656 601.445312 C 135.359375 603.328125 134.417969 605.148438 133.507812 606.957031 L 131.644531 610.652344 L 133.722656 614.222656 C 161.574219 662.105469 201.710938 701.960938 249.816406 729.476562 L 252.984375 731.289062 L 256.386719 729.953125 C 260.527344 728.335938 264.367188 726.613281 268.1875 724.878906 L 268.40625 724.777344 C 275.304688 721.796875 282.597656 718.25 291.945312 713.339844 " fill-opacity="1" fill-rule="nonzero"/><path fill="rgb(63.919067%, 49.01886%, 30.979919%)" d="M 193.972656 734.332031 L 193.9375 734.339844 C 178.171875 738.269531 162.621094 740.648438 152.429688 742.070312 C 139.585938 743.710938 127.910156 744.683594 117.765625 744.964844 L 117.753906 744.964844 L 110.277344 745.179688 C 109.65625 745.179688 108.988281 745.160156 108.332031 745.140625 C 108.382812 744.429688 108.425781 743.691406 108.492188 743.03125 L 109.398438 735.757812 L 109.402344 735.75 C 110.644531 725.699219 112.71875 714.175781 115.527344 701.746094 C 117.839844 692.054688 121.449219 677.777344 126.46875 663.160156 C 146.296875 689.875 169.859375 713.648438 196.390625 733.703125 C 195.585938 733.910156 194.777344 734.132812 193.972656 734.332031 Z M 130.558594 642.597656 L 122.351562 630.503906 L 117.121094 644.152344 C 115.636719 648.03125 114.210938 651.921875 112.851562 655.832031 C 107.125 672.066406 103.164062 687.824219 100.683594 698.230469 L 100.664062 698.300781 L 100.664062 698.316406 C 97.753906 711.171875 95.585938 723.171875 94.257812 733.878906 L 93.324219 741.347656 L 93.3125 741.464844 C 93.167969 742.957031 93.082031 744.347656 92.996094 745.585938 L 92.996094 745.597656 C 92.941406 746.476562 92.886719 747.304688 92.824219 748.070312 L 91.976562 760 L 104.015625 760.296875 L 104.066406 760.300781 C 104.699219 760.3125 105.5625 760.335938 106.460938 760.363281 L 106.449219 760.359375 C 107.636719 760.394531 108.953125 760.433594 110.355469 760.433594 L 110.472656 760.433594 L 118.195312 760.210938 L 118.1875 760.210938 C 128.988281 759.910156 141.152344 758.898438 154.417969 757.195312 L 154.492188 757.1875 L 154.507812 757.1875 C 164.910156 755.730469 180.964844 753.285156 197.589844 749.148438 L 197.625 749.136719 C 197.617188 749.144531 197.605469 749.144531 197.597656 749.148438 C 203.78125 747.640625 209.898438 745.941406 215.953125 744.160156 L 231.347656 739.625 L 218.113281 730.554688 C 183.722656 706.980469 153.96875 677.101562 130.558594 642.597656 " fill-opacity="1" fill-rule="nonzero"/><path fill="rgb(63.919067%, 49.01886%, 30.979919%)" d="M 296.285156 411.792969 L 305.90625 406.648438 C 306.996094 406.0625 307.898438 405.542969 308.644531 405.15625 L 308.65625 405.152344 C 317.789062 400.359375 325.894531 396.4375 333.445312 393.132812 L 333.484375 393.121094 L 339.808594 390.28125 L 340.636719 389.941406 L 368.488281 378.53125 L 338.394531 375.28125 L 330.464844 374.691406 L 330.472656 374.691406 C 325.601562 374.3125 321.25 373.976562 316.949219 373.910156 L 309.230469 373.660156 L 291.691406 374.003906 L 292.492188 382.210938 C 292.847656 385.851562 293.21875 389.53125 293.679688 393.25 L 293.679688 393.230469 C 294.003906 395.914062 294.402344 398.507812 294.753906 400.992188 L 296.285156 411.792969 " fill-opacity="1" fill-rule="nonzero"/><path fill="rgb(63.919067%, 49.01886%, 30.979919%)" d="M 319.796875 495.492188 C 319.789062 495.46875 319.78125 495.449219 319.777344 495.433594 L 319.773438 495.429688 L 319.796875 495.492188 " fill-opacity="1" fill-rule="nonzero"/><path fill="rgb(63.919067%, 49.01886%, 30.979919%)" d="M 514.835938 382.210938 L 515.636719 374.003906 L 497.972656 373.660156 L 490.261719 373.910156 C 485.964844 373.980469 481.617188 374.3125 476.738281 374.691406 L 476.746094 374.691406 L 436.695312 377.703125 L 467.953125 390.515625 L 473.914062 393.203125 L 473.941406 393.214844 C 481.304688 396.433594 489.414062 400.355469 498.5625 405.152344 L 498.554688 405.144531 C 499.355469 405.5625 500.296875 406.109375 501.417969 406.710938 L 511.035156 411.855469 L 512.570312 401.058594 C 512.925781 398.566406 513.324219 395.964844 513.644531 393.277344 C 513.644531 393.273438 513.652344 393.269531 513.652344 393.261719 L 513.644531 393.277344 C 514.109375 389.554688 514.480469 385.859375 514.835938 382.210938 " fill-opacity="1" fill-rule="nonzero"/></svg>